G04 #@! TF.GenerationSoftware,KiCad,Pcbnew,5.1.6+dfsg1-1*
G04 #@! TF.CreationDate,2020-07-15T23:43:31+02:00*
G04 #@! TF.ProjectId,continuity,636f6e74-696e-4756-9974-792e6b696361,rev?*
G04 #@! TF.SameCoordinates,Original*
G04 #@! TF.FileFunction,Copper,L2,Bot*
G04 #@! TF.FilePolarity,Positive*
%FSLAX46Y46*%
G04 Gerber Fmt 4.6, Leading zero omitted, Abs format (unit mm)*
G04 Created by KiCad (PCBNEW 5.1.6+dfsg1-1) date 2020-07-15 23:43:31*
%MOMM*%
%LPD*%
G01*
G04 APERTURE LIST*
G04 #@! TA.AperFunction,ComponentPad*
%ADD10C,0.900000*%
G04 #@! TD*
G04 #@! TA.AperFunction,ComponentPad*
%ADD11C,8.000000*%
G04 #@! TD*
G04 #@! TA.AperFunction,ComponentPad*
%ADD12C,1.980000*%
G04 #@! TD*
G04 #@! TA.AperFunction,ViaPad*
%ADD13C,1.200000*%
G04 #@! TD*
G04 #@! TA.AperFunction,ViaPad*
%ADD14C,0.800000*%
G04 #@! TD*
G04 #@! TA.AperFunction,Conductor*
%ADD15C,1.000000*%
G04 #@! TD*
G04 #@! TA.AperFunction,Conductor*
%ADD16C,0.254000*%
G04 #@! TD*
G04 APERTURE END LIST*
D10*
X155621320Y-70378680D03*
X153500000Y-69500000D03*
X151378680Y-70378680D03*
X150500000Y-72500000D03*
X151378680Y-74621320D03*
X153500000Y-75500000D03*
X155621320Y-74621320D03*
X156500000Y-72500000D03*
D11*
X153500000Y-72500000D03*
D10*
X155621320Y-90378680D03*
X153500000Y-89500000D03*
X151378680Y-90378680D03*
X150500000Y-92500000D03*
X151378680Y-94621320D03*
X153500000Y-95500000D03*
X155621320Y-94621320D03*
X156500000Y-92500000D03*
D11*
X153500000Y-92500000D03*
G04 #@! TA.AperFunction,SMDPad,CuDef*
G36*
G01*
X84065000Y-72432500D02*
X84065000Y-78147500D01*
G75*
G02*
X83747500Y-78465000I-317500J0D01*
G01*
X77042500Y-78465000D01*
G75*
G02*
X76725000Y-78147500I0J317500D01*
G01*
X76725000Y-72432500D01*
G75*
G02*
X77042500Y-72115000I317500J0D01*
G01*
X83747500Y-72115000D01*
G75*
G02*
X84065000Y-72432500I0J-317500D01*
G01*
G37*
G04 #@! TD.AperFunction*
G04 #@! TA.AperFunction,SMDPad,CuDef*
G36*
G01*
X84065000Y-86852500D02*
X84065000Y-92567500D01*
G75*
G02*
X83747500Y-92885000I-317500J0D01*
G01*
X77042500Y-92885000D01*
G75*
G02*
X76725000Y-92567500I0J317500D01*
G01*
X76725000Y-86852500D01*
G75*
G02*
X77042500Y-86535000I317500J0D01*
G01*
X83747500Y-86535000D01*
G75*
G02*
X84065000Y-86852500I0J-317500D01*
G01*
G37*
G04 #@! TD.AperFunction*
G04 #@! TA.AperFunction,SMDPad,CuDef*
G36*
G01*
X146275000Y-72432500D02*
X146275000Y-78147500D01*
G75*
G02*
X145957500Y-78465000I-317500J0D01*
G01*
X139252500Y-78465000D01*
G75*
G02*
X138935000Y-78147500I0J317500D01*
G01*
X138935000Y-72432500D01*
G75*
G02*
X139252500Y-72115000I317500J0D01*
G01*
X145957500Y-72115000D01*
G75*
G02*
X146275000Y-72432500I0J-317500D01*
G01*
G37*
G04 #@! TD.AperFunction*
D12*
X138935000Y-68560000D03*
G04 #@! TA.AperFunction,SMDPad,CuDef*
G36*
G01*
X146275000Y-86852500D02*
X146275000Y-92567500D01*
G75*
G02*
X145957500Y-92885000I-317500J0D01*
G01*
X139252500Y-92885000D01*
G75*
G02*
X138935000Y-92567500I0J317500D01*
G01*
X138935000Y-86852500D01*
G75*
G02*
X139252500Y-86535000I317500J0D01*
G01*
X145957500Y-86535000D01*
G75*
G02*
X146275000Y-86852500I0J-317500D01*
G01*
G37*
G04 #@! TD.AperFunction*
D13*
X111000000Y-81000000D03*
X110000000Y-78000000D03*
X104500000Y-71000000D03*
X122500000Y-70500000D03*
X119000000Y-70000000D03*
X106200000Y-80200004D03*
X118000000Y-77500000D03*
D14*
X118500000Y-82000000D03*
X113000000Y-80000000D03*
X114000000Y-84000000D03*
X106000000Y-82500000D03*
X114000000Y-73500000D03*
X109875000Y-71875000D03*
D13*
X106500000Y-92500000D03*
X113000000Y-95500000D03*
X148000000Y-86500000D03*
X137500000Y-84000000D03*
D15*
X117500000Y-72500000D02*
X117500000Y-71500000D01*
X115000000Y-82000000D02*
X113000000Y-80000000D01*
X118500000Y-82000000D02*
X115000000Y-82000000D01*
X113500000Y-82500000D02*
X106000000Y-82500000D01*
X114000000Y-83000000D02*
X113500000Y-82500000D01*
X114000000Y-84000000D02*
X114000000Y-83000000D01*
X111500000Y-73500000D02*
X109875000Y-71875000D01*
X114000000Y-73500000D02*
X111500000Y-73500000D01*
D16*
G36*
X104881423Y-82277501D02*
G01*
X104859509Y-82500000D01*
X104881423Y-82722499D01*
X104946324Y-82936447D01*
X105051716Y-83133623D01*
X105193551Y-83306449D01*
X105366377Y-83448284D01*
X105563553Y-83553676D01*
X105777501Y-83618577D01*
X105944248Y-83635000D01*
X112865000Y-83635000D01*
X112865000Y-84055751D01*
X112881423Y-84222498D01*
X112946324Y-84436446D01*
X113051716Y-84633623D01*
X113193551Y-84806449D01*
X113366377Y-84948284D01*
X113563553Y-85053676D01*
X113777501Y-85118577D01*
X114000000Y-85140491D01*
X114222498Y-85118577D01*
X114436446Y-85053676D01*
X114633623Y-84948284D01*
X114806449Y-84806449D01*
X114948284Y-84633623D01*
X115053676Y-84436447D01*
X115118577Y-84222499D01*
X115135000Y-84055752D01*
X115135000Y-83135000D01*
X118555752Y-83135000D01*
X118722499Y-83118577D01*
X118936447Y-83053676D01*
X119133623Y-82948284D01*
X119306449Y-82806449D01*
X119448284Y-82633623D01*
X119553676Y-82436447D01*
X119618577Y-82222499D01*
X119627983Y-82127000D01*
X159340001Y-82127000D01*
X159340000Y-99340000D01*
X89627000Y-99340000D01*
X89627000Y-92885000D01*
X138296928Y-92885000D01*
X138309188Y-93009482D01*
X138345498Y-93129180D01*
X138404463Y-93239494D01*
X138483815Y-93336185D01*
X138580506Y-93415537D01*
X138690820Y-93474502D01*
X138810518Y-93510812D01*
X138935000Y-93523072D01*
X142319250Y-93520000D01*
X142478000Y-93361250D01*
X142478000Y-89837000D01*
X142732000Y-89837000D01*
X142732000Y-93361250D01*
X142890750Y-93520000D01*
X146275000Y-93523072D01*
X146399482Y-93510812D01*
X146519180Y-93474502D01*
X146629494Y-93415537D01*
X146726185Y-93336185D01*
X146805537Y-93239494D01*
X146864502Y-93129180D01*
X146900812Y-93009482D01*
X146913072Y-92885000D01*
X146912178Y-92043492D01*
X148865000Y-92043492D01*
X148865000Y-92956508D01*
X149043120Y-93851980D01*
X149392516Y-94695496D01*
X149899760Y-95454640D01*
X150545360Y-96100240D01*
X151304504Y-96607484D01*
X152148020Y-96956880D01*
X153043492Y-97135000D01*
X153956508Y-97135000D01*
X154851980Y-96956880D01*
X155695496Y-96607484D01*
X156454640Y-96100240D01*
X157100240Y-95454640D01*
X157607484Y-94695496D01*
X157956880Y-93851980D01*
X158135000Y-92956508D01*
X158135000Y-92043492D01*
X157956880Y-91148020D01*
X157607484Y-90304504D01*
X157100240Y-89545360D01*
X156454640Y-88899760D01*
X155695496Y-88392516D01*
X154851980Y-88043120D01*
X153956508Y-87865000D01*
X153043492Y-87865000D01*
X152148020Y-88043120D01*
X151304504Y-88392516D01*
X150545360Y-88899760D01*
X149899760Y-89545360D01*
X149392516Y-90304504D01*
X149043120Y-91148020D01*
X148865000Y-92043492D01*
X146912178Y-92043492D01*
X146910000Y-89995750D01*
X146751250Y-89837000D01*
X142732000Y-89837000D01*
X142478000Y-89837000D01*
X138458750Y-89837000D01*
X138300000Y-89995750D01*
X138296928Y-92885000D01*
X89627000Y-92885000D01*
X89627000Y-86535000D01*
X138296928Y-86535000D01*
X138300000Y-89424250D01*
X138458750Y-89583000D01*
X142478000Y-89583000D01*
X142478000Y-86058750D01*
X142732000Y-86058750D01*
X142732000Y-89583000D01*
X146751250Y-89583000D01*
X146910000Y-89424250D01*
X146913072Y-86535000D01*
X146900812Y-86410518D01*
X146864502Y-86290820D01*
X146805537Y-86180506D01*
X146726185Y-86083815D01*
X146629494Y-86004463D01*
X146519180Y-85945498D01*
X146399482Y-85909188D01*
X146275000Y-85896928D01*
X142890750Y-85900000D01*
X142732000Y-86058750D01*
X142478000Y-86058750D01*
X142319250Y-85900000D01*
X138935000Y-85896928D01*
X138810518Y-85909188D01*
X138690820Y-85945498D01*
X138580506Y-86004463D01*
X138483815Y-86083815D01*
X138404463Y-86180506D01*
X138345498Y-86290820D01*
X138309188Y-86410518D01*
X138296928Y-86535000D01*
X89627000Y-86535000D01*
X89627000Y-82127000D01*
X104927077Y-82127000D01*
X104881423Y-82277501D01*
G37*
X104881423Y-82277501D02*
X104859509Y-82500000D01*
X104881423Y-82722499D01*
X104946324Y-82936447D01*
X105051716Y-83133623D01*
X105193551Y-83306449D01*
X105366377Y-83448284D01*
X105563553Y-83553676D01*
X105777501Y-83618577D01*
X105944248Y-83635000D01*
X112865000Y-83635000D01*
X112865000Y-84055751D01*
X112881423Y-84222498D01*
X112946324Y-84436446D01*
X113051716Y-84633623D01*
X113193551Y-84806449D01*
X113366377Y-84948284D01*
X113563553Y-85053676D01*
X113777501Y-85118577D01*
X114000000Y-85140491D01*
X114222498Y-85118577D01*
X114436446Y-85053676D01*
X114633623Y-84948284D01*
X114806449Y-84806449D01*
X114948284Y-84633623D01*
X115053676Y-84436447D01*
X115118577Y-84222499D01*
X115135000Y-84055752D01*
X115135000Y-83135000D01*
X118555752Y-83135000D01*
X118722499Y-83118577D01*
X118936447Y-83053676D01*
X119133623Y-82948284D01*
X119306449Y-82806449D01*
X119448284Y-82633623D01*
X119553676Y-82436447D01*
X119618577Y-82222499D01*
X119627983Y-82127000D01*
X159340001Y-82127000D01*
X159340000Y-99340000D01*
X89627000Y-99340000D01*
X89627000Y-92885000D01*
X138296928Y-92885000D01*
X138309188Y-93009482D01*
X138345498Y-93129180D01*
X138404463Y-93239494D01*
X138483815Y-93336185D01*
X138580506Y-93415537D01*
X138690820Y-93474502D01*
X138810518Y-93510812D01*
X138935000Y-93523072D01*
X142319250Y-93520000D01*
X142478000Y-93361250D01*
X142478000Y-89837000D01*
X142732000Y-89837000D01*
X142732000Y-93361250D01*
X142890750Y-93520000D01*
X146275000Y-93523072D01*
X146399482Y-93510812D01*
X146519180Y-93474502D01*
X146629494Y-93415537D01*
X146726185Y-93336185D01*
X146805537Y-93239494D01*
X146864502Y-93129180D01*
X146900812Y-93009482D01*
X146913072Y-92885000D01*
X146912178Y-92043492D01*
X148865000Y-92043492D01*
X148865000Y-92956508D01*
X149043120Y-93851980D01*
X149392516Y-94695496D01*
X149899760Y-95454640D01*
X150545360Y-96100240D01*
X151304504Y-96607484D01*
X152148020Y-96956880D01*
X153043492Y-97135000D01*
X153956508Y-97135000D01*
X154851980Y-96956880D01*
X155695496Y-96607484D01*
X156454640Y-96100240D01*
X157100240Y-95454640D01*
X157607484Y-94695496D01*
X157956880Y-93851980D01*
X158135000Y-92956508D01*
X158135000Y-92043492D01*
X157956880Y-91148020D01*
X157607484Y-90304504D01*
X157100240Y-89545360D01*
X156454640Y-88899760D01*
X155695496Y-88392516D01*
X154851980Y-88043120D01*
X153956508Y-87865000D01*
X153043492Y-87865000D01*
X152148020Y-88043120D01*
X151304504Y-88392516D01*
X150545360Y-88899760D01*
X149899760Y-89545360D01*
X149392516Y-90304504D01*
X149043120Y-91148020D01*
X148865000Y-92043492D01*
X146912178Y-92043492D01*
X146910000Y-89995750D01*
X146751250Y-89837000D01*
X142732000Y-89837000D01*
X142478000Y-89837000D01*
X138458750Y-89837000D01*
X138300000Y-89995750D01*
X138296928Y-92885000D01*
X89627000Y-92885000D01*
X89627000Y-86535000D01*
X138296928Y-86535000D01*
X138300000Y-89424250D01*
X138458750Y-89583000D01*
X142478000Y-89583000D01*
X142478000Y-86058750D01*
X142732000Y-86058750D01*
X142732000Y-89583000D01*
X146751250Y-89583000D01*
X146910000Y-89424250D01*
X146913072Y-86535000D01*
X146900812Y-86410518D01*
X146864502Y-86290820D01*
X146805537Y-86180506D01*
X146726185Y-86083815D01*
X146629494Y-86004463D01*
X146519180Y-85945498D01*
X146399482Y-85909188D01*
X146275000Y-85896928D01*
X142890750Y-85900000D01*
X142732000Y-86058750D01*
X142478000Y-86058750D01*
X142319250Y-85900000D01*
X138935000Y-85896928D01*
X138810518Y-85909188D01*
X138690820Y-85945498D01*
X138580506Y-86004463D01*
X138483815Y-86083815D01*
X138404463Y-86180506D01*
X138345498Y-86290820D01*
X138309188Y-86410518D01*
X138296928Y-86535000D01*
X89627000Y-86535000D01*
X89627000Y-82127000D01*
X104927077Y-82127000D01*
X104881423Y-82277501D01*
G36*
X159340001Y-81373000D02*
G01*
X119451824Y-81373000D01*
X119448284Y-81366377D01*
X119306449Y-81193551D01*
X119133623Y-81051716D01*
X118936447Y-80946324D01*
X118722499Y-80881423D01*
X118555752Y-80865000D01*
X115470132Y-80865000D01*
X113763143Y-79158012D01*
X113633622Y-79051717D01*
X113436446Y-78946324D01*
X113222498Y-78881423D01*
X113000000Y-78859509D01*
X112777502Y-78881423D01*
X112563554Y-78946324D01*
X112366378Y-79051717D01*
X112193552Y-79193552D01*
X112051717Y-79366378D01*
X111946324Y-79563554D01*
X111881423Y-79777502D01*
X111859509Y-80000000D01*
X111881423Y-80222498D01*
X111946324Y-80436446D01*
X112051717Y-80633622D01*
X112158012Y-80763143D01*
X112759869Y-81365000D01*
X105944248Y-81365000D01*
X105863022Y-81373000D01*
X89627000Y-81373000D01*
X89627000Y-78465000D01*
X138296928Y-78465000D01*
X138309188Y-78589482D01*
X138345498Y-78709180D01*
X138404463Y-78819494D01*
X138483815Y-78916185D01*
X138580506Y-78995537D01*
X138690820Y-79054502D01*
X138810518Y-79090812D01*
X138935000Y-79103072D01*
X142319250Y-79100000D01*
X142478000Y-78941250D01*
X142478000Y-75417000D01*
X142732000Y-75417000D01*
X142732000Y-78941250D01*
X142890750Y-79100000D01*
X146275000Y-79103072D01*
X146399482Y-79090812D01*
X146519180Y-79054502D01*
X146629494Y-78995537D01*
X146726185Y-78916185D01*
X146805537Y-78819494D01*
X146864502Y-78709180D01*
X146900812Y-78589482D01*
X146913072Y-78465000D01*
X146910207Y-75769580D01*
X150410025Y-75769580D01*
X150866197Y-76341185D01*
X151666183Y-76781207D01*
X152536641Y-77056704D01*
X153444121Y-77157091D01*
X154353748Y-77078508D01*
X155230566Y-76823975D01*
X156040879Y-76403275D01*
X156133803Y-76341185D01*
X156589975Y-75769580D01*
X153500000Y-72679605D01*
X150410025Y-75769580D01*
X146910207Y-75769580D01*
X146910000Y-75575750D01*
X146751250Y-75417000D01*
X142732000Y-75417000D01*
X142478000Y-75417000D01*
X138458750Y-75417000D01*
X138300000Y-75575750D01*
X138296928Y-78465000D01*
X89627000Y-78465000D01*
X89627000Y-71875000D01*
X108734509Y-71875000D01*
X108756423Y-72097498D01*
X108821324Y-72311446D01*
X108926717Y-72508622D01*
X109033012Y-72638143D01*
X110658009Y-74263140D01*
X110693551Y-74306449D01*
X110866377Y-74448284D01*
X111055413Y-74549325D01*
X111063553Y-74553676D01*
X111277501Y-74618577D01*
X111499999Y-74640491D01*
X111555751Y-74635000D01*
X114055752Y-74635000D01*
X114222499Y-74618577D01*
X114436447Y-74553676D01*
X114633623Y-74448284D01*
X114806449Y-74306449D01*
X114948284Y-74133623D01*
X115053676Y-73936447D01*
X115118577Y-73722499D01*
X115140491Y-73500000D01*
X115118577Y-73277501D01*
X115053676Y-73063553D01*
X114948284Y-72866377D01*
X114806449Y-72693551D01*
X114633623Y-72551716D01*
X114436447Y-72446324D01*
X114222499Y-72381423D01*
X114055752Y-72365000D01*
X111970132Y-72365000D01*
X111720132Y-72115000D01*
X138296928Y-72115000D01*
X138300000Y-75004250D01*
X138458750Y-75163000D01*
X142478000Y-75163000D01*
X142478000Y-71638750D01*
X142732000Y-71638750D01*
X142732000Y-75163000D01*
X146751250Y-75163000D01*
X146910000Y-75004250D01*
X146912722Y-72444121D01*
X148842909Y-72444121D01*
X148921492Y-73353748D01*
X149176025Y-74230566D01*
X149596725Y-75040879D01*
X149658815Y-75133803D01*
X150230420Y-75589975D01*
X153320395Y-72500000D01*
X153679605Y-72500000D01*
X156769580Y-75589975D01*
X157341185Y-75133803D01*
X157781207Y-74333817D01*
X158056704Y-73463359D01*
X158157091Y-72555879D01*
X158078508Y-71646252D01*
X157823975Y-70769434D01*
X157403275Y-69959121D01*
X157341185Y-69866197D01*
X156769580Y-69410025D01*
X153679605Y-72500000D01*
X153320395Y-72500000D01*
X150230420Y-69410025D01*
X149658815Y-69866197D01*
X149218793Y-70666183D01*
X148943296Y-71536641D01*
X148842909Y-72444121D01*
X146912722Y-72444121D01*
X146913072Y-72115000D01*
X146900812Y-71990518D01*
X146864502Y-71870820D01*
X146805537Y-71760506D01*
X146726185Y-71663815D01*
X146629494Y-71584463D01*
X146519180Y-71525498D01*
X146399482Y-71489188D01*
X146275000Y-71476928D01*
X142890750Y-71480000D01*
X142732000Y-71638750D01*
X142478000Y-71638750D01*
X142319250Y-71480000D01*
X138935000Y-71476928D01*
X138810518Y-71489188D01*
X138690820Y-71525498D01*
X138580506Y-71584463D01*
X138483815Y-71663815D01*
X138404463Y-71760506D01*
X138345498Y-71870820D01*
X138309188Y-71990518D01*
X138296928Y-72115000D01*
X111720132Y-72115000D01*
X110638143Y-71033012D01*
X110508622Y-70926717D01*
X110311446Y-70821324D01*
X110097498Y-70756423D01*
X109875000Y-70734509D01*
X109652502Y-70756423D01*
X109438554Y-70821324D01*
X109241378Y-70926717D01*
X109068552Y-71068552D01*
X108926717Y-71241378D01*
X108821324Y-71438554D01*
X108756423Y-71652502D01*
X108734509Y-71875000D01*
X89627000Y-71875000D01*
X89627000Y-68399951D01*
X137310000Y-68399951D01*
X137310000Y-68720049D01*
X137372448Y-69033995D01*
X137494943Y-69329726D01*
X137672780Y-69595877D01*
X137899123Y-69822220D01*
X138165274Y-70000057D01*
X138461005Y-70122552D01*
X138774951Y-70185000D01*
X139095049Y-70185000D01*
X139408995Y-70122552D01*
X139704726Y-70000057D01*
X139970877Y-69822220D01*
X140197220Y-69595877D01*
X140375057Y-69329726D01*
X140416190Y-69230420D01*
X150410025Y-69230420D01*
X153500000Y-72320395D01*
X156589975Y-69230420D01*
X156133803Y-68658815D01*
X155333817Y-68218793D01*
X154463359Y-67943296D01*
X153555879Y-67842909D01*
X152646252Y-67921492D01*
X151769434Y-68176025D01*
X150959121Y-68596725D01*
X150866197Y-68658815D01*
X150410025Y-69230420D01*
X140416190Y-69230420D01*
X140497552Y-69033995D01*
X140560000Y-68720049D01*
X140560000Y-68399951D01*
X140497552Y-68086005D01*
X140375057Y-67790274D01*
X140197220Y-67524123D01*
X139970877Y-67297780D01*
X139704726Y-67119943D01*
X139408995Y-66997448D01*
X139095049Y-66935000D01*
X138774951Y-66935000D01*
X138461005Y-66997448D01*
X138165274Y-67119943D01*
X137899123Y-67297780D01*
X137672780Y-67524123D01*
X137494943Y-67790274D01*
X137372448Y-68086005D01*
X137310000Y-68399951D01*
X89627000Y-68399951D01*
X89627000Y-65660000D01*
X159340001Y-65660000D01*
X159340001Y-81373000D01*
G37*
X159340001Y-81373000D02*
X119451824Y-81373000D01*
X119448284Y-81366377D01*
X119306449Y-81193551D01*
X119133623Y-81051716D01*
X118936447Y-80946324D01*
X118722499Y-80881423D01*
X118555752Y-80865000D01*
X115470132Y-80865000D01*
X113763143Y-79158012D01*
X113633622Y-79051717D01*
X113436446Y-78946324D01*
X113222498Y-78881423D01*
X113000000Y-78859509D01*
X112777502Y-78881423D01*
X112563554Y-78946324D01*
X112366378Y-79051717D01*
X112193552Y-79193552D01*
X112051717Y-79366378D01*
X111946324Y-79563554D01*
X111881423Y-79777502D01*
X111859509Y-80000000D01*
X111881423Y-80222498D01*
X111946324Y-80436446D01*
X112051717Y-80633622D01*
X112158012Y-80763143D01*
X112759869Y-81365000D01*
X105944248Y-81365000D01*
X105863022Y-81373000D01*
X89627000Y-81373000D01*
X89627000Y-78465000D01*
X138296928Y-78465000D01*
X138309188Y-78589482D01*
X138345498Y-78709180D01*
X138404463Y-78819494D01*
X138483815Y-78916185D01*
X138580506Y-78995537D01*
X138690820Y-79054502D01*
X138810518Y-79090812D01*
X138935000Y-79103072D01*
X142319250Y-79100000D01*
X142478000Y-78941250D01*
X142478000Y-75417000D01*
X142732000Y-75417000D01*
X142732000Y-78941250D01*
X142890750Y-79100000D01*
X146275000Y-79103072D01*
X146399482Y-79090812D01*
X146519180Y-79054502D01*
X146629494Y-78995537D01*
X146726185Y-78916185D01*
X146805537Y-78819494D01*
X146864502Y-78709180D01*
X146900812Y-78589482D01*
X146913072Y-78465000D01*
X146910207Y-75769580D01*
X150410025Y-75769580D01*
X150866197Y-76341185D01*
X151666183Y-76781207D01*
X152536641Y-77056704D01*
X153444121Y-77157091D01*
X154353748Y-77078508D01*
X155230566Y-76823975D01*
X156040879Y-76403275D01*
X156133803Y-76341185D01*
X156589975Y-75769580D01*
X153500000Y-72679605D01*
X150410025Y-75769580D01*
X146910207Y-75769580D01*
X146910000Y-75575750D01*
X146751250Y-75417000D01*
X142732000Y-75417000D01*
X142478000Y-75417000D01*
X138458750Y-75417000D01*
X138300000Y-75575750D01*
X138296928Y-78465000D01*
X89627000Y-78465000D01*
X89627000Y-71875000D01*
X108734509Y-71875000D01*
X108756423Y-72097498D01*
X108821324Y-72311446D01*
X108926717Y-72508622D01*
X109033012Y-72638143D01*
X110658009Y-74263140D01*
X110693551Y-74306449D01*
X110866377Y-74448284D01*
X111055413Y-74549325D01*
X111063553Y-74553676D01*
X111277501Y-74618577D01*
X111499999Y-74640491D01*
X111555751Y-74635000D01*
X114055752Y-74635000D01*
X114222499Y-74618577D01*
X114436447Y-74553676D01*
X114633623Y-74448284D01*
X114806449Y-74306449D01*
X114948284Y-74133623D01*
X115053676Y-73936447D01*
X115118577Y-73722499D01*
X115140491Y-73500000D01*
X115118577Y-73277501D01*
X115053676Y-73063553D01*
X114948284Y-72866377D01*
X114806449Y-72693551D01*
X114633623Y-72551716D01*
X114436447Y-72446324D01*
X114222499Y-72381423D01*
X114055752Y-72365000D01*
X111970132Y-72365000D01*
X111720132Y-72115000D01*
X138296928Y-72115000D01*
X138300000Y-75004250D01*
X138458750Y-75163000D01*
X142478000Y-75163000D01*
X142478000Y-71638750D01*
X142732000Y-71638750D01*
X142732000Y-75163000D01*
X146751250Y-75163000D01*
X146910000Y-75004250D01*
X146912722Y-72444121D01*
X148842909Y-72444121D01*
X148921492Y-73353748D01*
X149176025Y-74230566D01*
X149596725Y-75040879D01*
X149658815Y-75133803D01*
X150230420Y-75589975D01*
X153320395Y-72500000D01*
X153679605Y-72500000D01*
X156769580Y-75589975D01*
X157341185Y-75133803D01*
X157781207Y-74333817D01*
X158056704Y-73463359D01*
X158157091Y-72555879D01*
X158078508Y-71646252D01*
X157823975Y-70769434D01*
X157403275Y-69959121D01*
X157341185Y-69866197D01*
X156769580Y-69410025D01*
X153679605Y-72500000D01*
X153320395Y-72500000D01*
X150230420Y-69410025D01*
X149658815Y-69866197D01*
X149218793Y-70666183D01*
X148943296Y-71536641D01*
X148842909Y-72444121D01*
X146912722Y-72444121D01*
X146913072Y-72115000D01*
X146900812Y-71990518D01*
X146864502Y-71870820D01*
X146805537Y-71760506D01*
X146726185Y-71663815D01*
X146629494Y-71584463D01*
X146519180Y-71525498D01*
X146399482Y-71489188D01*
X146275000Y-71476928D01*
X142890750Y-71480000D01*
X142732000Y-71638750D01*
X142478000Y-71638750D01*
X142319250Y-71480000D01*
X138935000Y-71476928D01*
X138810518Y-71489188D01*
X138690820Y-71525498D01*
X138580506Y-71584463D01*
X138483815Y-71663815D01*
X138404463Y-71760506D01*
X138345498Y-71870820D01*
X138309188Y-71990518D01*
X138296928Y-72115000D01*
X111720132Y-72115000D01*
X110638143Y-71033012D01*
X110508622Y-70926717D01*
X110311446Y-70821324D01*
X110097498Y-70756423D01*
X109875000Y-70734509D01*
X109652502Y-70756423D01*
X109438554Y-70821324D01*
X109241378Y-70926717D01*
X109068552Y-71068552D01*
X108926717Y-71241378D01*
X108821324Y-71438554D01*
X108756423Y-71652502D01*
X108734509Y-71875000D01*
X89627000Y-71875000D01*
X89627000Y-68399951D01*
X137310000Y-68399951D01*
X137310000Y-68720049D01*
X137372448Y-69033995D01*
X137494943Y-69329726D01*
X137672780Y-69595877D01*
X137899123Y-69822220D01*
X138165274Y-70000057D01*
X138461005Y-70122552D01*
X138774951Y-70185000D01*
X139095049Y-70185000D01*
X139408995Y-70122552D01*
X139704726Y-70000057D01*
X139970877Y-69822220D01*
X140197220Y-69595877D01*
X140375057Y-69329726D01*
X140416190Y-69230420D01*
X150410025Y-69230420D01*
X153500000Y-72320395D01*
X156589975Y-69230420D01*
X156133803Y-68658815D01*
X155333817Y-68218793D01*
X154463359Y-67943296D01*
X153555879Y-67842909D01*
X152646252Y-67921492D01*
X151769434Y-68176025D01*
X150959121Y-68596725D01*
X150866197Y-68658815D01*
X150410025Y-69230420D01*
X140416190Y-69230420D01*
X140497552Y-69033995D01*
X140560000Y-68720049D01*
X140560000Y-68399951D01*
X140497552Y-68086005D01*
X140375057Y-67790274D01*
X140197220Y-67524123D01*
X139970877Y-67297780D01*
X139704726Y-67119943D01*
X139408995Y-66997448D01*
X139095049Y-66935000D01*
X138774951Y-66935000D01*
X138461005Y-66997448D01*
X138165274Y-67119943D01*
X137899123Y-67297780D01*
X137672780Y-67524123D01*
X137494943Y-67790274D01*
X137372448Y-68086005D01*
X137310000Y-68399951D01*
X89627000Y-68399951D01*
X89627000Y-65660000D01*
X159340001Y-65660000D01*
X159340001Y-81373000D01*
G36*
X88873000Y-99340000D02*
G01*
X75660000Y-99340000D01*
X75660000Y-92885000D01*
X76086928Y-92885000D01*
X76099188Y-93009482D01*
X76135498Y-93129180D01*
X76194463Y-93239494D01*
X76273815Y-93336185D01*
X76370506Y-93415537D01*
X76480820Y-93474502D01*
X76600518Y-93510812D01*
X76725000Y-93523072D01*
X80109250Y-93520000D01*
X80268000Y-93361250D01*
X80268000Y-89837000D01*
X80522000Y-89837000D01*
X80522000Y-93361250D01*
X80680750Y-93520000D01*
X84065000Y-93523072D01*
X84189482Y-93510812D01*
X84309180Y-93474502D01*
X84419494Y-93415537D01*
X84516185Y-93336185D01*
X84595537Y-93239494D01*
X84654502Y-93129180D01*
X84690812Y-93009482D01*
X84703072Y-92885000D01*
X84700000Y-89995750D01*
X84541250Y-89837000D01*
X80522000Y-89837000D01*
X80268000Y-89837000D01*
X76248750Y-89837000D01*
X76090000Y-89995750D01*
X76086928Y-92885000D01*
X75660000Y-92885000D01*
X75660000Y-86535000D01*
X76086928Y-86535000D01*
X76090000Y-89424250D01*
X76248750Y-89583000D01*
X80268000Y-89583000D01*
X80268000Y-86058750D01*
X80522000Y-86058750D01*
X80522000Y-89583000D01*
X84541250Y-89583000D01*
X84700000Y-89424250D01*
X84703072Y-86535000D01*
X84690812Y-86410518D01*
X84654502Y-86290820D01*
X84595537Y-86180506D01*
X84516185Y-86083815D01*
X84419494Y-86004463D01*
X84309180Y-85945498D01*
X84189482Y-85909188D01*
X84065000Y-85896928D01*
X80680750Y-85900000D01*
X80522000Y-86058750D01*
X80268000Y-86058750D01*
X80109250Y-85900000D01*
X76725000Y-85896928D01*
X76600518Y-85909188D01*
X76480820Y-85945498D01*
X76370506Y-86004463D01*
X76273815Y-86083815D01*
X76194463Y-86180506D01*
X76135498Y-86290820D01*
X76099188Y-86410518D01*
X76086928Y-86535000D01*
X75660000Y-86535000D01*
X75660000Y-78465000D01*
X76086928Y-78465000D01*
X76099188Y-78589482D01*
X76135498Y-78709180D01*
X76194463Y-78819494D01*
X76273815Y-78916185D01*
X76370506Y-78995537D01*
X76480820Y-79054502D01*
X76600518Y-79090812D01*
X76725000Y-79103072D01*
X80109250Y-79100000D01*
X80268000Y-78941250D01*
X80268000Y-75417000D01*
X80522000Y-75417000D01*
X80522000Y-78941250D01*
X80680750Y-79100000D01*
X84065000Y-79103072D01*
X84189482Y-79090812D01*
X84309180Y-79054502D01*
X84419494Y-78995537D01*
X84516185Y-78916185D01*
X84595537Y-78819494D01*
X84654502Y-78709180D01*
X84690812Y-78589482D01*
X84703072Y-78465000D01*
X84700000Y-75575750D01*
X84541250Y-75417000D01*
X80522000Y-75417000D01*
X80268000Y-75417000D01*
X76248750Y-75417000D01*
X76090000Y-75575750D01*
X76086928Y-78465000D01*
X75660000Y-78465000D01*
X75660000Y-72115000D01*
X76086928Y-72115000D01*
X76090000Y-75004250D01*
X76248750Y-75163000D01*
X80268000Y-75163000D01*
X80268000Y-71638750D01*
X80522000Y-71638750D01*
X80522000Y-75163000D01*
X84541250Y-75163000D01*
X84700000Y-75004250D01*
X84703072Y-72115000D01*
X84690812Y-71990518D01*
X84654502Y-71870820D01*
X84595537Y-71760506D01*
X84516185Y-71663815D01*
X84419494Y-71584463D01*
X84309180Y-71525498D01*
X84189482Y-71489188D01*
X84065000Y-71476928D01*
X80680750Y-71480000D01*
X80522000Y-71638750D01*
X80268000Y-71638750D01*
X80109250Y-71480000D01*
X76725000Y-71476928D01*
X76600518Y-71489188D01*
X76480820Y-71525498D01*
X76370506Y-71584463D01*
X76273815Y-71663815D01*
X76194463Y-71760506D01*
X76135498Y-71870820D01*
X76099188Y-71990518D01*
X76086928Y-72115000D01*
X75660000Y-72115000D01*
X75660000Y-65660000D01*
X88873000Y-65660000D01*
X88873000Y-99340000D01*
G37*
X88873000Y-99340000D02*
X75660000Y-99340000D01*
X75660000Y-92885000D01*
X76086928Y-92885000D01*
X76099188Y-93009482D01*
X76135498Y-93129180D01*
X76194463Y-93239494D01*
X76273815Y-93336185D01*
X76370506Y-93415537D01*
X76480820Y-93474502D01*
X76600518Y-93510812D01*
X76725000Y-93523072D01*
X80109250Y-93520000D01*
X80268000Y-93361250D01*
X80268000Y-89837000D01*
X80522000Y-89837000D01*
X80522000Y-93361250D01*
X80680750Y-93520000D01*
X84065000Y-93523072D01*
X84189482Y-93510812D01*
X84309180Y-93474502D01*
X84419494Y-93415537D01*
X84516185Y-93336185D01*
X84595537Y-93239494D01*
X84654502Y-93129180D01*
X84690812Y-93009482D01*
X84703072Y-92885000D01*
X84700000Y-89995750D01*
X84541250Y-89837000D01*
X80522000Y-89837000D01*
X80268000Y-89837000D01*
X76248750Y-89837000D01*
X76090000Y-89995750D01*
X76086928Y-92885000D01*
X75660000Y-92885000D01*
X75660000Y-86535000D01*
X76086928Y-86535000D01*
X76090000Y-89424250D01*
X76248750Y-89583000D01*
X80268000Y-89583000D01*
X80268000Y-86058750D01*
X80522000Y-86058750D01*
X80522000Y-89583000D01*
X84541250Y-89583000D01*
X84700000Y-89424250D01*
X84703072Y-86535000D01*
X84690812Y-86410518D01*
X84654502Y-86290820D01*
X84595537Y-86180506D01*
X84516185Y-86083815D01*
X84419494Y-86004463D01*
X84309180Y-85945498D01*
X84189482Y-85909188D01*
X84065000Y-85896928D01*
X80680750Y-85900000D01*
X80522000Y-86058750D01*
X80268000Y-86058750D01*
X80109250Y-85900000D01*
X76725000Y-85896928D01*
X76600518Y-85909188D01*
X76480820Y-85945498D01*
X76370506Y-86004463D01*
X76273815Y-86083815D01*
X76194463Y-86180506D01*
X76135498Y-86290820D01*
X76099188Y-86410518D01*
X76086928Y-86535000D01*
X75660000Y-86535000D01*
X75660000Y-78465000D01*
X76086928Y-78465000D01*
X76099188Y-78589482D01*
X76135498Y-78709180D01*
X76194463Y-78819494D01*
X76273815Y-78916185D01*
X76370506Y-78995537D01*
X76480820Y-79054502D01*
X76600518Y-79090812D01*
X76725000Y-79103072D01*
X80109250Y-79100000D01*
X80268000Y-78941250D01*
X80268000Y-75417000D01*
X80522000Y-75417000D01*
X80522000Y-78941250D01*
X80680750Y-79100000D01*
X84065000Y-79103072D01*
X84189482Y-79090812D01*
X84309180Y-79054502D01*
X84419494Y-78995537D01*
X84516185Y-78916185D01*
X84595537Y-78819494D01*
X84654502Y-78709180D01*
X84690812Y-78589482D01*
X84703072Y-78465000D01*
X84700000Y-75575750D01*
X84541250Y-75417000D01*
X80522000Y-75417000D01*
X80268000Y-75417000D01*
X76248750Y-75417000D01*
X76090000Y-75575750D01*
X76086928Y-78465000D01*
X75660000Y-78465000D01*
X75660000Y-72115000D01*
X76086928Y-72115000D01*
X76090000Y-75004250D01*
X76248750Y-75163000D01*
X80268000Y-75163000D01*
X80268000Y-71638750D01*
X80522000Y-71638750D01*
X80522000Y-75163000D01*
X84541250Y-75163000D01*
X84700000Y-75004250D01*
X84703072Y-72115000D01*
X84690812Y-71990518D01*
X84654502Y-71870820D01*
X84595537Y-71760506D01*
X84516185Y-71663815D01*
X84419494Y-71584463D01*
X84309180Y-71525498D01*
X84189482Y-71489188D01*
X84065000Y-71476928D01*
X80680750Y-71480000D01*
X80522000Y-71638750D01*
X80268000Y-71638750D01*
X80109250Y-71480000D01*
X76725000Y-71476928D01*
X76600518Y-71489188D01*
X76480820Y-71525498D01*
X76370506Y-71584463D01*
X76273815Y-71663815D01*
X76194463Y-71760506D01*
X76135498Y-71870820D01*
X76099188Y-71990518D01*
X76086928Y-72115000D01*
X75660000Y-72115000D01*
X75660000Y-65660000D01*
X88873000Y-65660000D01*
X88873000Y-99340000D01*
M02*
