G04 #@! TF.GenerationSoftware,KiCad,Pcbnew,5.1.6+dfsg1-1*
G04 #@! TF.CreationDate,2020-07-15T23:43:31+02:00*
G04 #@! TF.ProjectId,continuity,636f6e74-696e-4756-9974-792e6b696361,rev?*
G04 #@! TF.SameCoordinates,Original*
G04 #@! TF.FileFunction,Soldermask,Bot*
G04 #@! TF.FilePolarity,Negative*
%FSLAX46Y46*%
G04 Gerber Fmt 4.6, Leading zero omitted, Abs format (unit mm)*
G04 Created by KiCad (PCBNEW 5.1.6+dfsg1-1) date 2020-07-15 23:43:31*
%MOMM*%
%LPD*%
G01*
G04 APERTURE LIST*
%ADD10C,0.100000*%
G04 APERTURE END LIST*
D10*
G36*
X154681632Y-88604677D02*
G01*
X154987005Y-88731167D01*
X155418868Y-88910050D01*
X156082362Y-89353383D01*
X156646617Y-89917638D01*
X157089950Y-90581132D01*
X157104389Y-90615992D01*
X157395323Y-91318368D01*
X157551000Y-92101010D01*
X157551000Y-92898990D01*
X157395323Y-93681632D01*
X157268833Y-93987005D01*
X157089950Y-94418868D01*
X156646617Y-95082362D01*
X156082362Y-95646617D01*
X155418868Y-96089950D01*
X154987005Y-96268833D01*
X154681632Y-96395323D01*
X153898990Y-96551000D01*
X153101010Y-96551000D01*
X152318368Y-96395323D01*
X152012995Y-96268833D01*
X151581132Y-96089950D01*
X150917638Y-95646617D01*
X150353383Y-95082362D01*
X149910050Y-94418868D01*
X149731167Y-93987005D01*
X149604677Y-93681632D01*
X149449000Y-92898990D01*
X149449000Y-92101010D01*
X149604677Y-91318368D01*
X149895611Y-90615992D01*
X149910050Y-90581132D01*
X150353383Y-89917638D01*
X150917638Y-89353383D01*
X151581132Y-88910050D01*
X152012995Y-88731167D01*
X152318368Y-88604677D01*
X153101010Y-88449000D01*
X153898990Y-88449000D01*
X154681632Y-88604677D01*
G37*
G36*
X146156769Y-86488630D02*
G01*
X146196069Y-86500552D01*
X146232292Y-86519913D01*
X146264036Y-86545964D01*
X146290087Y-86577708D01*
X146309448Y-86613931D01*
X146321370Y-86653231D01*
X146326000Y-86700240D01*
X146326000Y-92719760D01*
X146321370Y-92766769D01*
X146309448Y-92806069D01*
X146290087Y-92842292D01*
X146264036Y-92874036D01*
X146232292Y-92900087D01*
X146196069Y-92919448D01*
X146156769Y-92931370D01*
X146109760Y-92936000D01*
X139100240Y-92936000D01*
X139053231Y-92931370D01*
X139013931Y-92919448D01*
X138977708Y-92900087D01*
X138945964Y-92874036D01*
X138919913Y-92842292D01*
X138900552Y-92806069D01*
X138888630Y-92766769D01*
X138884000Y-92719760D01*
X138884000Y-86700240D01*
X138888630Y-86653231D01*
X138900552Y-86613931D01*
X138919913Y-86577708D01*
X138945964Y-86545964D01*
X138977708Y-86519913D01*
X139013931Y-86500552D01*
X139053231Y-86488630D01*
X139100240Y-86484000D01*
X146109760Y-86484000D01*
X146156769Y-86488630D01*
G37*
G36*
X83946769Y-86488630D02*
G01*
X83986069Y-86500552D01*
X84022292Y-86519913D01*
X84054036Y-86545964D01*
X84080087Y-86577708D01*
X84099448Y-86613931D01*
X84111370Y-86653231D01*
X84116000Y-86700240D01*
X84116000Y-92719760D01*
X84111370Y-92766769D01*
X84099448Y-92806069D01*
X84080087Y-92842292D01*
X84054036Y-92874036D01*
X84022292Y-92900087D01*
X83986069Y-92919448D01*
X83946769Y-92931370D01*
X83899760Y-92936000D01*
X76890240Y-92936000D01*
X76843231Y-92931370D01*
X76803931Y-92919448D01*
X76767708Y-92900087D01*
X76735964Y-92874036D01*
X76709913Y-92842292D01*
X76690552Y-92806069D01*
X76678630Y-92766769D01*
X76674000Y-92719760D01*
X76674000Y-86700240D01*
X76678630Y-86653231D01*
X76690552Y-86613931D01*
X76709913Y-86577708D01*
X76735964Y-86545964D01*
X76767708Y-86519913D01*
X76803931Y-86500552D01*
X76843231Y-86488630D01*
X76890240Y-86484000D01*
X83899760Y-86484000D01*
X83946769Y-86488630D01*
G37*
G36*
X146156769Y-72068630D02*
G01*
X146196069Y-72080552D01*
X146232292Y-72099913D01*
X146264036Y-72125964D01*
X146290087Y-72157708D01*
X146309448Y-72193931D01*
X146321370Y-72233231D01*
X146326000Y-72280240D01*
X146326000Y-78299760D01*
X146321370Y-78346769D01*
X146309448Y-78386069D01*
X146290087Y-78422292D01*
X146264036Y-78454036D01*
X146232292Y-78480087D01*
X146196069Y-78499448D01*
X146156769Y-78511370D01*
X146109760Y-78516000D01*
X139100240Y-78516000D01*
X139053231Y-78511370D01*
X139013931Y-78499448D01*
X138977708Y-78480087D01*
X138945964Y-78454036D01*
X138919913Y-78422292D01*
X138900552Y-78386069D01*
X138888630Y-78346769D01*
X138884000Y-78299760D01*
X138884000Y-72280240D01*
X138888630Y-72233231D01*
X138900552Y-72193931D01*
X138919913Y-72157708D01*
X138945964Y-72125964D01*
X138977708Y-72099913D01*
X139013931Y-72080552D01*
X139053231Y-72068630D01*
X139100240Y-72064000D01*
X146109760Y-72064000D01*
X146156769Y-72068630D01*
G37*
G36*
X83946769Y-72068630D02*
G01*
X83986069Y-72080552D01*
X84022292Y-72099913D01*
X84054036Y-72125964D01*
X84080087Y-72157708D01*
X84099448Y-72193931D01*
X84111370Y-72233231D01*
X84116000Y-72280240D01*
X84116000Y-78299760D01*
X84111370Y-78346769D01*
X84099448Y-78386069D01*
X84080087Y-78422292D01*
X84054036Y-78454036D01*
X84022292Y-78480087D01*
X83986069Y-78499448D01*
X83946769Y-78511370D01*
X83899760Y-78516000D01*
X76890240Y-78516000D01*
X76843231Y-78511370D01*
X76803931Y-78499448D01*
X76767708Y-78480087D01*
X76735964Y-78454036D01*
X76709913Y-78422292D01*
X76690552Y-78386069D01*
X76678630Y-78346769D01*
X76674000Y-78299760D01*
X76674000Y-72280240D01*
X76678630Y-72233231D01*
X76690552Y-72193931D01*
X76709913Y-72157708D01*
X76735964Y-72125964D01*
X76767708Y-72099913D01*
X76803931Y-72080552D01*
X76843231Y-72068630D01*
X76890240Y-72064000D01*
X83899760Y-72064000D01*
X83946769Y-72068630D01*
G37*
G36*
X154681632Y-68604677D02*
G01*
X154987005Y-68731167D01*
X155418868Y-68910050D01*
X156082362Y-69353383D01*
X156646617Y-69917638D01*
X157089950Y-70581132D01*
X157104389Y-70615992D01*
X157395323Y-71318368D01*
X157551000Y-72101010D01*
X157551000Y-72898990D01*
X157395323Y-73681632D01*
X157268833Y-73987005D01*
X157089950Y-74418868D01*
X156646617Y-75082362D01*
X156082362Y-75646617D01*
X155418868Y-76089950D01*
X154987005Y-76268833D01*
X154681632Y-76395323D01*
X153898990Y-76551000D01*
X153101010Y-76551000D01*
X152318368Y-76395323D01*
X152012995Y-76268833D01*
X151581132Y-76089950D01*
X150917638Y-75646617D01*
X150353383Y-75082362D01*
X149910050Y-74418868D01*
X149731167Y-73987005D01*
X149604677Y-73681632D01*
X149449000Y-72898990D01*
X149449000Y-72101010D01*
X149604677Y-71318368D01*
X149895611Y-70615992D01*
X149910050Y-70581132D01*
X150353383Y-69917638D01*
X150917638Y-69353383D01*
X151581132Y-68910050D01*
X152012995Y-68731167D01*
X152318368Y-68604677D01*
X153101010Y-68449000D01*
X153898990Y-68449000D01*
X154681632Y-68604677D01*
G37*
G36*
X139238647Y-67559004D02*
G01*
X139428097Y-67637477D01*
X139428098Y-67637478D01*
X139598599Y-67751402D01*
X139743598Y-67896401D01*
X139819719Y-68010326D01*
X139857523Y-68066903D01*
X139935996Y-68256353D01*
X139976000Y-68457469D01*
X139976000Y-68662531D01*
X139935996Y-68863647D01*
X139857523Y-69053097D01*
X139857522Y-69053098D01*
X139743598Y-69223599D01*
X139598599Y-69368598D01*
X139484674Y-69444719D01*
X139428097Y-69482523D01*
X139238647Y-69560996D01*
X139037531Y-69601000D01*
X138832469Y-69601000D01*
X138631353Y-69560996D01*
X138441903Y-69482523D01*
X138385326Y-69444719D01*
X138271401Y-69368598D01*
X138126402Y-69223599D01*
X138012478Y-69053098D01*
X138012477Y-69053097D01*
X137934004Y-68863647D01*
X137894000Y-68662531D01*
X137894000Y-68457469D01*
X137934004Y-68256353D01*
X138012477Y-68066903D01*
X138050281Y-68010326D01*
X138126402Y-67896401D01*
X138271401Y-67751402D01*
X138441902Y-67637478D01*
X138441903Y-67637477D01*
X138631353Y-67559004D01*
X138832469Y-67519000D01*
X139037531Y-67519000D01*
X139238647Y-67559004D01*
G37*
M02*
