M48
; DRILL file {KiCad 5.1.6+dfsg1-1} date Wed Jul 15 23:43:28 2020
; FORMAT={-:-/ absolute / inch / decimal}
; #@! TF.CreationDate,2020-07-15T23:43:28+02:00
; #@! TF.GenerationSoftware,Kicad,Pcbnew,5.1.6+dfsg1-1
; #@! TF.FileFunction,Plated,1,2,PTH
FMAT,2
INCH
T1C0.0157
T2C0.0236
T3C0.0780
T4C0.1575
%
G90
G05
T1
X4.1732Y-3.248
X4.3258Y-2.8297
X4.4488Y-3.1496
X4.4882Y-2.8937
X4.4882Y-3.3071
X4.6654Y-3.2283
T2
X4.1142Y-2.7953
X4.1811Y-3.1575
X4.1929Y-3.6417
X4.3307Y-3.0709
X4.3701Y-3.189
X4.4488Y-3.7598
X4.6457Y-3.0512
X4.685Y-2.7559
X4.8228Y-2.7756
X5.4134Y-3.3071
X5.8268Y-3.4055
X5.9252Y-2.8543
X5.9598Y-2.7708
X5.9598Y-2.9378
X6.0433Y-2.7362
X6.0433Y-2.9724
X6.1268Y-2.7708
X6.1268Y-2.9378
X6.1614Y-2.8543
X5.9252Y-3.6417
X5.9598Y-3.5582
X5.9598Y-3.7252
X6.0433Y-3.5236
X6.0433Y-3.7598
X6.1268Y-3.5582
X6.1268Y-3.7252
X6.1614Y-3.6417
T3
X5.4699Y-2.6992
T4
X6.0433Y-2.8543
X6.0433Y-3.6417
T0
M30
