G04 #@! TF.GenerationSoftware,KiCad,Pcbnew,5.1.6+dfsg1-1*
G04 #@! TF.CreationDate,2020-07-15T23:43:31+02:00*
G04 #@! TF.ProjectId,continuity,636f6e74-696e-4756-9974-792e6b696361,rev?*
G04 #@! TF.SameCoordinates,Original*
G04 #@! TF.FileFunction,Legend,Bot*
G04 #@! TF.FilePolarity,Positive*
%FSLAX46Y46*%
G04 Gerber Fmt 4.6, Leading zero omitted, Abs format (unit mm)*
G04 Created by KiCad (PCBNEW 5.1.6+dfsg1-1) date 2020-07-15 23:43:31*
%MOMM*%
%LPD*%
G01*
G04 APERTURE LIST*
%ADD10C,0.120000*%
%ADD11C,0.150000*%
G04 APERTURE END LIST*
D10*
X80500000Y-71500000D02*
X80500000Y-66500000D01*
X80500000Y-66500000D02*
X142500000Y-66500000D01*
X142500000Y-66500000D02*
X142500000Y-71500000D01*
X142500000Y-93500000D02*
X142500000Y-98500000D01*
X142500000Y-98500000D02*
X80500000Y-98500000D01*
X80500000Y-98500000D02*
X80500000Y-93500000D01*
X80500000Y-85500000D02*
X80500000Y-79500000D01*
X142500000Y-79500000D02*
X142500000Y-85500000D01*
X137500000Y-75500000D02*
X134500000Y-75500000D01*
X85500000Y-89500000D02*
X88500000Y-89500000D01*
X86500000Y-75500000D02*
X89500000Y-75500000D01*
X87500000Y-73500000D02*
X87500000Y-77500000D01*
X135500000Y-87500000D02*
X135500000Y-90500000D01*
X135500000Y-90500000D02*
X135500000Y-91500000D01*
X137500000Y-89500000D02*
X133500000Y-89500000D01*
X86500000Y-75500000D02*
X85500000Y-75500000D01*
X88500000Y-89500000D02*
X89500000Y-89500000D01*
X134500000Y-75500000D02*
X133500000Y-75500000D01*
D11*
X113738333Y-84212380D02*
X113738333Y-84926666D01*
X113785952Y-85069523D01*
X113881190Y-85164761D01*
X114024047Y-85212380D01*
X114119285Y-85212380D01*
X113309761Y-84307619D02*
X113262142Y-84260000D01*
X113166904Y-84212380D01*
X112928809Y-84212380D01*
X112833571Y-84260000D01*
X112785952Y-84307619D01*
X112738333Y-84402857D01*
X112738333Y-84498095D01*
X112785952Y-84640952D01*
X113357380Y-85212380D01*
X112738333Y-85212380D01*
M02*
