G04 #@! TF.GenerationSoftware,KiCad,Pcbnew,5.1.6+dfsg1-1*
G04 #@! TF.CreationDate,2020-07-15T23:43:31+02:00*
G04 #@! TF.ProjectId,continuity,636f6e74-696e-4756-9974-792e6b696361,rev?*
G04 #@! TF.SameCoordinates,Original*
G04 #@! TF.FileFunction,Legend,Top*
G04 #@! TF.FilePolarity,Positive*
%FSLAX46Y46*%
G04 Gerber Fmt 4.6, Leading zero omitted, Abs format (unit mm)*
G04 Created by KiCad (PCBNEW 5.1.6+dfsg1-1) date 2020-07-15 23:43:31*
%MOMM*%
%LPD*%
G01*
G04 APERTURE LIST*
%ADD10C,0.120000*%
%ADD11C,0.150000*%
G04 APERTURE END LIST*
D10*
X104100000Y-94650000D02*
X104500000Y-94650000D01*
X104100000Y-96850000D02*
X104100000Y-94650000D01*
X104100000Y-89850000D02*
X104100000Y-87650000D01*
X94900000Y-89850000D02*
X94900000Y-87650000D01*
X94900000Y-87650000D02*
X104100000Y-87650000D01*
X94900000Y-96850000D02*
X94900000Y-94650000D01*
X104100000Y-96850000D02*
X94900000Y-96850000D01*
X96840000Y-70090000D02*
X96840000Y-71350000D01*
X96840000Y-76910000D02*
X96840000Y-75650000D01*
X100600000Y-70090000D02*
X96840000Y-70090000D01*
X102850000Y-76910000D02*
X96840000Y-76910000D01*
X114650000Y-80600000D02*
X114650000Y-84500000D01*
X117850000Y-80600000D02*
X117850000Y-84500000D01*
X114650000Y-84500000D02*
X117850000Y-84500000D01*
D11*
X145400000Y-87000000D02*
X139550000Y-87000000D01*
X139550000Y-87000000D02*
X139250000Y-87000000D01*
X139250000Y-87000000D02*
X139250000Y-88000000D01*
X139250000Y-88000000D02*
X139250000Y-90900000D01*
X139250000Y-90900000D02*
X139250000Y-90950000D01*
X139250000Y-90950000D02*
X145700000Y-90950000D01*
X145700000Y-90950000D02*
X145700000Y-87000000D01*
X145700000Y-87000000D02*
X145400000Y-87000000D01*
D10*
X136790000Y-81736252D02*
X136790000Y-81213748D01*
X138210000Y-81736252D02*
X138210000Y-81213748D01*
X150590000Y-82602064D02*
X150590000Y-81397936D01*
X152410000Y-82602064D02*
X152410000Y-81397936D01*
X156910000Y-81397936D02*
X156910000Y-82602064D01*
X155090000Y-81397936D02*
X155090000Y-82602064D01*
X115350000Y-73110000D02*
X117150000Y-73110000D01*
X117150000Y-69890000D02*
X114700000Y-69890000D01*
X110578733Y-69990000D02*
X110921267Y-69990000D01*
X110578733Y-71010000D02*
X110921267Y-71010000D01*
X116171267Y-76010000D02*
X115828733Y-76010000D01*
X116171267Y-74990000D02*
X115828733Y-74990000D01*
X122078733Y-74990000D02*
X122421267Y-74990000D01*
X122078733Y-76010000D02*
X122421267Y-76010000D01*
X110578733Y-72990000D02*
X110921267Y-72990000D01*
X110578733Y-74010000D02*
X110921267Y-74010000D01*
X106010000Y-74328733D02*
X106010000Y-74671267D01*
X104990000Y-74328733D02*
X104990000Y-74671267D01*
X110578733Y-81990000D02*
X110921267Y-81990000D01*
X110578733Y-83010000D02*
X110921267Y-83010000D01*
X110578733Y-78990000D02*
X110921267Y-78990000D01*
X110578733Y-80010000D02*
X110921267Y-80010000D01*
X110578733Y-84990000D02*
X110921267Y-84990000D01*
X110578733Y-86010000D02*
X110921267Y-86010000D01*
X115703733Y-86490000D02*
X116046267Y-86490000D01*
X115703733Y-87510000D02*
X116046267Y-87510000D01*
X127578733Y-89490000D02*
X127921267Y-89490000D01*
X127578733Y-90510000D02*
X127921267Y-90510000D01*
X98440000Y-79090000D02*
X98440000Y-80350000D01*
X98440000Y-85910000D02*
X98440000Y-84650000D01*
X102200000Y-79090000D02*
X98440000Y-79090000D01*
X104450000Y-85910000D02*
X98440000Y-85910000D01*
X120660000Y-96410000D02*
X120660000Y-95150000D01*
X120660000Y-89590000D02*
X120660000Y-90850000D01*
X116900000Y-96410000D02*
X120660000Y-96410000D01*
X114650000Y-89590000D02*
X120660000Y-89590000D01*
X147400000Y-80150000D02*
X148600000Y-80150000D01*
X147400000Y-78300000D02*
X147400000Y-80150000D01*
X148600000Y-78300000D02*
X148600000Y-80150000D01*
X147400000Y-85450000D02*
X148600000Y-85450000D01*
X147400000Y-83600000D02*
X147400000Y-85450000D01*
X148600000Y-83600000D02*
X148600000Y-85450000D01*
X140350000Y-83400000D02*
X143650000Y-83400000D01*
X143650000Y-83400000D02*
X143650000Y-76500000D01*
X140350000Y-83400000D02*
X140350000Y-76500000D01*
X123740000Y-71671267D02*
X123740000Y-71328733D01*
X124760000Y-71671267D02*
X124760000Y-71328733D01*
X110921267Y-77010000D02*
X110578733Y-77010000D01*
X110921267Y-75990000D02*
X110578733Y-75990000D01*
D11*
X153166666Y-66952380D02*
X153166666Y-67666666D01*
X153119047Y-67809523D01*
X153023809Y-67904761D01*
X152880952Y-67952380D01*
X152785714Y-67952380D01*
X153547619Y-66952380D02*
X154166666Y-66952380D01*
X153833333Y-67333333D01*
X153976190Y-67333333D01*
X154071428Y-67380952D01*
X154119047Y-67428571D01*
X154166666Y-67523809D01*
X154166666Y-67761904D01*
X154119047Y-67857142D01*
X154071428Y-67904761D01*
X153976190Y-67952380D01*
X153690476Y-67952380D01*
X153595238Y-67904761D01*
X153547619Y-67857142D01*
X153166666Y-86952380D02*
X153166666Y-87666666D01*
X153119047Y-87809523D01*
X153023809Y-87904761D01*
X152880952Y-87952380D01*
X152785714Y-87952380D01*
X154166666Y-87952380D02*
X153595238Y-87952380D01*
X153880952Y-87952380D02*
X153880952Y-86952380D01*
X153785714Y-87095238D01*
X153690476Y-87190476D01*
X153595238Y-87238095D01*
X92357142Y-92952380D02*
X91880952Y-92952380D01*
X91880952Y-91952380D01*
X92642857Y-92904761D02*
X92785714Y-92952380D01*
X93023809Y-92952380D01*
X93119047Y-92904761D01*
X93166666Y-92857142D01*
X93214285Y-92761904D01*
X93214285Y-92666666D01*
X93166666Y-92571428D01*
X93119047Y-92523809D01*
X93023809Y-92476190D01*
X92833333Y-92428571D01*
X92738095Y-92380952D01*
X92690476Y-92333333D01*
X92642857Y-92238095D01*
X92642857Y-92142857D01*
X92690476Y-92047619D01*
X92738095Y-92000000D01*
X92833333Y-91952380D01*
X93071428Y-91952380D01*
X93214285Y-92000000D01*
X94166666Y-92952380D02*
X93595238Y-92952380D01*
X93880952Y-92952380D02*
X93880952Y-91952380D01*
X93785714Y-92095238D01*
X93690476Y-92190476D01*
X93595238Y-92238095D01*
X92904761Y-74047619D02*
X92809523Y-74000000D01*
X92714285Y-73904761D01*
X92571428Y-73761904D01*
X92476190Y-73714285D01*
X92380952Y-73714285D01*
X92428571Y-73952380D02*
X92333333Y-73904761D01*
X92238095Y-73809523D01*
X92190476Y-73619047D01*
X92190476Y-73285714D01*
X92238095Y-73095238D01*
X92333333Y-73000000D01*
X92428571Y-72952380D01*
X92619047Y-72952380D01*
X92714285Y-73000000D01*
X92809523Y-73095238D01*
X92857142Y-73285714D01*
X92857142Y-73619047D01*
X92809523Y-73809523D01*
X92714285Y-73904761D01*
X92619047Y-73952380D01*
X92428571Y-73952380D01*
X93190476Y-72952380D02*
X93809523Y-72952380D01*
X93476190Y-73333333D01*
X93619047Y-73333333D01*
X93714285Y-73380952D01*
X93761904Y-73428571D01*
X93809523Y-73523809D01*
X93809523Y-73761904D01*
X93761904Y-73857142D01*
X93714285Y-73904761D01*
X93619047Y-73952380D01*
X93333333Y-73952380D01*
X93238095Y-73904761D01*
X93190476Y-73857142D01*
X115761904Y-78952380D02*
X115761904Y-77952380D01*
X116000000Y-77952380D01*
X116142857Y-78000000D01*
X116238095Y-78095238D01*
X116285714Y-78190476D01*
X116333333Y-78380952D01*
X116333333Y-78523809D01*
X116285714Y-78714285D01*
X116238095Y-78809523D01*
X116142857Y-78904761D01*
X116000000Y-78952380D01*
X115761904Y-78952380D01*
X117285714Y-78952380D02*
X116714285Y-78952380D01*
X117000000Y-78952380D02*
X117000000Y-77952380D01*
X116904761Y-78095238D01*
X116809523Y-78190476D01*
X116714285Y-78238095D01*
X140714285Y-85452380D02*
X141285714Y-85452380D01*
X141000000Y-86452380D02*
X141000000Y-85452380D01*
X141952380Y-85928571D02*
X142095238Y-85976190D01*
X142142857Y-86023809D01*
X142190476Y-86119047D01*
X142190476Y-86261904D01*
X142142857Y-86357142D01*
X142095238Y-86404761D01*
X142000000Y-86452380D01*
X141619047Y-86452380D01*
X141619047Y-85452380D01*
X141952380Y-85452380D01*
X142047619Y-85500000D01*
X142095238Y-85547619D01*
X142142857Y-85642857D01*
X142142857Y-85738095D01*
X142095238Y-85833333D01*
X142047619Y-85880952D01*
X141952380Y-85928571D01*
X141619047Y-85928571D01*
X142619047Y-85452380D02*
X142619047Y-86261904D01*
X142666666Y-86357142D01*
X142714285Y-86404761D01*
X142809523Y-86452380D01*
X143000000Y-86452380D01*
X143095238Y-86404761D01*
X143142857Y-86357142D01*
X143190476Y-86261904D01*
X143190476Y-85452380D01*
X144190476Y-86452380D02*
X143619047Y-86452380D01*
X143904761Y-86452380D02*
X143904761Y-85452380D01*
X143809523Y-85595238D01*
X143714285Y-85690476D01*
X143619047Y-85738095D01*
X137952380Y-84366666D02*
X137476190Y-84700000D01*
X137952380Y-84938095D02*
X136952380Y-84938095D01*
X136952380Y-84557142D01*
X137000000Y-84461904D01*
X137047619Y-84414285D01*
X137142857Y-84366666D01*
X137285714Y-84366666D01*
X137380952Y-84414285D01*
X137428571Y-84461904D01*
X137476190Y-84557142D01*
X137476190Y-84938095D01*
X137952380Y-83414285D02*
X137952380Y-83985714D01*
X137952380Y-83700000D02*
X136952380Y-83700000D01*
X137095238Y-83795238D01*
X137190476Y-83890476D01*
X137238095Y-83985714D01*
X150857142Y-78952380D02*
X150523809Y-78476190D01*
X150285714Y-78952380D02*
X150285714Y-77952380D01*
X150666666Y-77952380D01*
X150761904Y-78000000D01*
X150809523Y-78047619D01*
X150857142Y-78142857D01*
X150857142Y-78285714D01*
X150809523Y-78380952D01*
X150761904Y-78428571D01*
X150666666Y-78476190D01*
X150285714Y-78476190D01*
X151809523Y-78952380D02*
X151238095Y-78952380D01*
X151523809Y-78952380D02*
X151523809Y-77952380D01*
X151428571Y-78095238D01*
X151333333Y-78190476D01*
X151238095Y-78238095D01*
X152142857Y-77952380D02*
X152761904Y-77952380D01*
X152428571Y-78333333D01*
X152571428Y-78333333D01*
X152666666Y-78380952D01*
X152714285Y-78428571D01*
X152761904Y-78523809D01*
X152761904Y-78761904D01*
X152714285Y-78857142D01*
X152666666Y-78904761D01*
X152571428Y-78952380D01*
X152285714Y-78952380D01*
X152190476Y-78904761D01*
X152142857Y-78857142D01*
X155833333Y-78952380D02*
X155500000Y-78476190D01*
X155261904Y-78952380D02*
X155261904Y-77952380D01*
X155642857Y-77952380D01*
X155738095Y-78000000D01*
X155785714Y-78047619D01*
X155833333Y-78142857D01*
X155833333Y-78285714D01*
X155785714Y-78380952D01*
X155738095Y-78428571D01*
X155642857Y-78476190D01*
X155261904Y-78476190D01*
X156309523Y-78952380D02*
X156500000Y-78952380D01*
X156595238Y-78904761D01*
X156642857Y-78857142D01*
X156738095Y-78714285D01*
X156785714Y-78523809D01*
X156785714Y-78142857D01*
X156738095Y-78047619D01*
X156690476Y-78000000D01*
X156595238Y-77952380D01*
X156404761Y-77952380D01*
X156309523Y-78000000D01*
X156261904Y-78047619D01*
X156214285Y-78142857D01*
X156214285Y-78380952D01*
X156261904Y-78476190D01*
X156309523Y-78523809D01*
X156404761Y-78571428D01*
X156595238Y-78571428D01*
X156690476Y-78523809D01*
X156738095Y-78476190D01*
X156785714Y-78380952D01*
X115488095Y-68052380D02*
X115488095Y-68861904D01*
X115535714Y-68957142D01*
X115583333Y-69004761D01*
X115678571Y-69052380D01*
X115869047Y-69052380D01*
X115964285Y-69004761D01*
X116011904Y-68957142D01*
X116059523Y-68861904D01*
X116059523Y-68052380D01*
X117059523Y-69052380D02*
X116488095Y-69052380D01*
X116773809Y-69052380D02*
X116773809Y-68052380D01*
X116678571Y-68195238D01*
X116583333Y-68290476D01*
X116488095Y-68338095D01*
X106607142Y-70952380D02*
X106273809Y-70476190D01*
X106035714Y-70952380D02*
X106035714Y-69952380D01*
X106416666Y-69952380D01*
X106511904Y-70000000D01*
X106559523Y-70047619D01*
X106607142Y-70142857D01*
X106607142Y-70285714D01*
X106559523Y-70380952D01*
X106511904Y-70428571D01*
X106416666Y-70476190D01*
X106035714Y-70476190D01*
X107559523Y-70952380D02*
X106988095Y-70952380D01*
X107273809Y-70952380D02*
X107273809Y-69952380D01*
X107178571Y-70095238D01*
X107083333Y-70190476D01*
X106988095Y-70238095D01*
X107940476Y-70047619D02*
X107988095Y-70000000D01*
X108083333Y-69952380D01*
X108321428Y-69952380D01*
X108416666Y-70000000D01*
X108464285Y-70047619D01*
X108511904Y-70142857D01*
X108511904Y-70238095D01*
X108464285Y-70380952D01*
X107892857Y-70952380D01*
X108511904Y-70952380D01*
X118357142Y-75952380D02*
X118023809Y-75476190D01*
X117785714Y-75952380D02*
X117785714Y-74952380D01*
X118166666Y-74952380D01*
X118261904Y-75000000D01*
X118309523Y-75047619D01*
X118357142Y-75142857D01*
X118357142Y-75285714D01*
X118309523Y-75380952D01*
X118261904Y-75428571D01*
X118166666Y-75476190D01*
X117785714Y-75476190D01*
X119309523Y-75952380D02*
X118738095Y-75952380D01*
X119023809Y-75952380D02*
X119023809Y-74952380D01*
X118928571Y-75095238D01*
X118833333Y-75190476D01*
X118738095Y-75238095D01*
X120261904Y-75952380D02*
X119690476Y-75952380D01*
X119976190Y-75952380D02*
X119976190Y-74952380D01*
X119880952Y-75095238D01*
X119785714Y-75190476D01*
X119690476Y-75238095D01*
X125107142Y-75952380D02*
X124773809Y-75476190D01*
X124535714Y-75952380D02*
X124535714Y-74952380D01*
X124916666Y-74952380D01*
X125011904Y-75000000D01*
X125059523Y-75047619D01*
X125107142Y-75142857D01*
X125107142Y-75285714D01*
X125059523Y-75380952D01*
X125011904Y-75428571D01*
X124916666Y-75476190D01*
X124535714Y-75476190D01*
X126059523Y-75952380D02*
X125488095Y-75952380D01*
X125773809Y-75952380D02*
X125773809Y-74952380D01*
X125678571Y-75095238D01*
X125583333Y-75190476D01*
X125488095Y-75238095D01*
X126678571Y-74952380D02*
X126773809Y-74952380D01*
X126869047Y-75000000D01*
X126916666Y-75047619D01*
X126964285Y-75142857D01*
X127011904Y-75333333D01*
X127011904Y-75571428D01*
X126964285Y-75761904D01*
X126916666Y-75857142D01*
X126869047Y-75904761D01*
X126773809Y-75952380D01*
X126678571Y-75952380D01*
X126583333Y-75904761D01*
X126535714Y-75857142D01*
X126488095Y-75761904D01*
X126440476Y-75571428D01*
X126440476Y-75333333D01*
X126488095Y-75142857D01*
X126535714Y-75047619D01*
X126583333Y-75000000D01*
X126678571Y-74952380D01*
X107833333Y-73752380D02*
X107500000Y-73276190D01*
X107261904Y-73752380D02*
X107261904Y-72752380D01*
X107642857Y-72752380D01*
X107738095Y-72800000D01*
X107785714Y-72847619D01*
X107833333Y-72942857D01*
X107833333Y-73085714D01*
X107785714Y-73180952D01*
X107738095Y-73228571D01*
X107642857Y-73276190D01*
X107261904Y-73276190D01*
X108404761Y-73180952D02*
X108309523Y-73133333D01*
X108261904Y-73085714D01*
X108214285Y-72990476D01*
X108214285Y-72942857D01*
X108261904Y-72847619D01*
X108309523Y-72800000D01*
X108404761Y-72752380D01*
X108595238Y-72752380D01*
X108690476Y-72800000D01*
X108738095Y-72847619D01*
X108785714Y-72942857D01*
X108785714Y-72990476D01*
X108738095Y-73085714D01*
X108690476Y-73133333D01*
X108595238Y-73180952D01*
X108404761Y-73180952D01*
X108309523Y-73228571D01*
X108261904Y-73276190D01*
X108214285Y-73371428D01*
X108214285Y-73561904D01*
X108261904Y-73657142D01*
X108309523Y-73704761D01*
X108404761Y-73752380D01*
X108595238Y-73752380D01*
X108690476Y-73704761D01*
X108738095Y-73657142D01*
X108785714Y-73561904D01*
X108785714Y-73371428D01*
X108738095Y-73276190D01*
X108690476Y-73228571D01*
X108595238Y-73180952D01*
X105952380Y-78166666D02*
X105476190Y-78500000D01*
X105952380Y-78738095D02*
X104952380Y-78738095D01*
X104952380Y-78357142D01*
X105000000Y-78261904D01*
X105047619Y-78214285D01*
X105142857Y-78166666D01*
X105285714Y-78166666D01*
X105380952Y-78214285D01*
X105428571Y-78261904D01*
X105476190Y-78357142D01*
X105476190Y-78738095D01*
X104952380Y-77833333D02*
X104952380Y-77166666D01*
X105952380Y-77595238D01*
X107833333Y-82952380D02*
X107500000Y-82476190D01*
X107261904Y-82952380D02*
X107261904Y-81952380D01*
X107642857Y-81952380D01*
X107738095Y-82000000D01*
X107785714Y-82047619D01*
X107833333Y-82142857D01*
X107833333Y-82285714D01*
X107785714Y-82380952D01*
X107738095Y-82428571D01*
X107642857Y-82476190D01*
X107261904Y-82476190D01*
X108690476Y-81952380D02*
X108500000Y-81952380D01*
X108404761Y-82000000D01*
X108357142Y-82047619D01*
X108261904Y-82190476D01*
X108214285Y-82380952D01*
X108214285Y-82761904D01*
X108261904Y-82857142D01*
X108309523Y-82904761D01*
X108404761Y-82952380D01*
X108595238Y-82952380D01*
X108690476Y-82904761D01*
X108738095Y-82857142D01*
X108785714Y-82761904D01*
X108785714Y-82523809D01*
X108738095Y-82428571D01*
X108690476Y-82380952D01*
X108595238Y-82333333D01*
X108404761Y-82333333D01*
X108309523Y-82380952D01*
X108261904Y-82428571D01*
X108214285Y-82523809D01*
X107833333Y-79952380D02*
X107500000Y-79476190D01*
X107261904Y-79952380D02*
X107261904Y-78952380D01*
X107642857Y-78952380D01*
X107738095Y-79000000D01*
X107785714Y-79047619D01*
X107833333Y-79142857D01*
X107833333Y-79285714D01*
X107785714Y-79380952D01*
X107738095Y-79428571D01*
X107642857Y-79476190D01*
X107261904Y-79476190D01*
X108738095Y-78952380D02*
X108261904Y-78952380D01*
X108214285Y-79428571D01*
X108261904Y-79380952D01*
X108357142Y-79333333D01*
X108595238Y-79333333D01*
X108690476Y-79380952D01*
X108738095Y-79428571D01*
X108785714Y-79523809D01*
X108785714Y-79761904D01*
X108738095Y-79857142D01*
X108690476Y-79904761D01*
X108595238Y-79952380D01*
X108357142Y-79952380D01*
X108261904Y-79904761D01*
X108214285Y-79857142D01*
X107833333Y-85952380D02*
X107500000Y-85476190D01*
X107261904Y-85952380D02*
X107261904Y-84952380D01*
X107642857Y-84952380D01*
X107738095Y-85000000D01*
X107785714Y-85047619D01*
X107833333Y-85142857D01*
X107833333Y-85285714D01*
X107785714Y-85380952D01*
X107738095Y-85428571D01*
X107642857Y-85476190D01*
X107261904Y-85476190D01*
X108690476Y-85285714D02*
X108690476Y-85952380D01*
X108452380Y-84904761D02*
X108214285Y-85619047D01*
X108833333Y-85619047D01*
X112208333Y-87452380D02*
X111875000Y-86976190D01*
X111636904Y-87452380D02*
X111636904Y-86452380D01*
X112017857Y-86452380D01*
X112113095Y-86500000D01*
X112160714Y-86547619D01*
X112208333Y-86642857D01*
X112208333Y-86785714D01*
X112160714Y-86880952D01*
X112113095Y-86928571D01*
X112017857Y-86976190D01*
X111636904Y-86976190D01*
X112541666Y-86452380D02*
X113160714Y-86452380D01*
X112827380Y-86833333D01*
X112970238Y-86833333D01*
X113065476Y-86880952D01*
X113113095Y-86928571D01*
X113160714Y-87023809D01*
X113160714Y-87261904D01*
X113113095Y-87357142D01*
X113065476Y-87404761D01*
X112970238Y-87452380D01*
X112684523Y-87452380D01*
X112589285Y-87404761D01*
X112541666Y-87357142D01*
X124833333Y-90452380D02*
X124500000Y-89976190D01*
X124261904Y-90452380D02*
X124261904Y-89452380D01*
X124642857Y-89452380D01*
X124738095Y-89500000D01*
X124785714Y-89547619D01*
X124833333Y-89642857D01*
X124833333Y-89785714D01*
X124785714Y-89880952D01*
X124738095Y-89928571D01*
X124642857Y-89976190D01*
X124261904Y-89976190D01*
X125214285Y-89547619D02*
X125261904Y-89500000D01*
X125357142Y-89452380D01*
X125595238Y-89452380D01*
X125690476Y-89500000D01*
X125738095Y-89547619D01*
X125785714Y-89642857D01*
X125785714Y-89738095D01*
X125738095Y-89880952D01*
X125166666Y-90452380D01*
X125785714Y-90452380D01*
X94504761Y-83047619D02*
X94409523Y-83000000D01*
X94314285Y-82904761D01*
X94171428Y-82761904D01*
X94076190Y-82714285D01*
X93980952Y-82714285D01*
X94028571Y-82952380D02*
X93933333Y-82904761D01*
X93838095Y-82809523D01*
X93790476Y-82619047D01*
X93790476Y-82285714D01*
X93838095Y-82095238D01*
X93933333Y-82000000D01*
X94028571Y-81952380D01*
X94219047Y-81952380D01*
X94314285Y-82000000D01*
X94409523Y-82095238D01*
X94457142Y-82285714D01*
X94457142Y-82619047D01*
X94409523Y-82809523D01*
X94314285Y-82904761D01*
X94219047Y-82952380D01*
X94028571Y-82952380D01*
X94838095Y-82047619D02*
X94885714Y-82000000D01*
X94980952Y-81952380D01*
X95219047Y-81952380D01*
X95314285Y-82000000D01*
X95361904Y-82047619D01*
X95409523Y-82142857D01*
X95409523Y-82238095D01*
X95361904Y-82380952D01*
X94790476Y-82952380D01*
X95409523Y-82952380D01*
X112904761Y-93547619D02*
X112809523Y-93500000D01*
X112714285Y-93404761D01*
X112571428Y-93261904D01*
X112476190Y-93214285D01*
X112380952Y-93214285D01*
X112428571Y-93452380D02*
X112333333Y-93404761D01*
X112238095Y-93309523D01*
X112190476Y-93119047D01*
X112190476Y-92785714D01*
X112238095Y-92595238D01*
X112333333Y-92500000D01*
X112428571Y-92452380D01*
X112619047Y-92452380D01*
X112714285Y-92500000D01*
X112809523Y-92595238D01*
X112857142Y-92785714D01*
X112857142Y-93119047D01*
X112809523Y-93309523D01*
X112714285Y-93404761D01*
X112619047Y-93452380D01*
X112428571Y-93452380D01*
X113809523Y-93452380D02*
X113238095Y-93452380D01*
X113523809Y-93452380D02*
X113523809Y-92452380D01*
X113428571Y-92595238D01*
X113333333Y-92690476D01*
X113238095Y-92738095D01*
X147261904Y-76952380D02*
X147261904Y-75952380D01*
X147500000Y-75952380D01*
X147642857Y-76000000D01*
X147738095Y-76095238D01*
X147785714Y-76190476D01*
X147833333Y-76380952D01*
X147833333Y-76523809D01*
X147785714Y-76714285D01*
X147738095Y-76809523D01*
X147642857Y-76904761D01*
X147500000Y-76952380D01*
X147261904Y-76952380D01*
X148690476Y-76285714D02*
X148690476Y-76952380D01*
X148452380Y-75904761D02*
X148214285Y-76619047D01*
X148833333Y-76619047D01*
X147261904Y-82002380D02*
X147261904Y-81002380D01*
X147500000Y-81002380D01*
X147642857Y-81050000D01*
X147738095Y-81145238D01*
X147785714Y-81240476D01*
X147833333Y-81430952D01*
X147833333Y-81573809D01*
X147785714Y-81764285D01*
X147738095Y-81859523D01*
X147642857Y-81954761D01*
X147500000Y-82002380D01*
X147261904Y-82002380D01*
X148166666Y-81002380D02*
X148785714Y-81002380D01*
X148452380Y-81383333D01*
X148595238Y-81383333D01*
X148690476Y-81430952D01*
X148738095Y-81478571D01*
X148785714Y-81573809D01*
X148785714Y-81811904D01*
X148738095Y-81907142D01*
X148690476Y-81954761D01*
X148595238Y-82002380D01*
X148309523Y-82002380D01*
X148214285Y-81954761D01*
X148166666Y-81907142D01*
X141011904Y-73952380D02*
X141011904Y-72952380D01*
X141250000Y-72952380D01*
X141392857Y-73000000D01*
X141488095Y-73095238D01*
X141535714Y-73190476D01*
X141583333Y-73380952D01*
X141583333Y-73523809D01*
X141535714Y-73714285D01*
X141488095Y-73809523D01*
X141392857Y-73904761D01*
X141250000Y-73952380D01*
X141011904Y-73952380D01*
X141964285Y-73047619D02*
X142011904Y-73000000D01*
X142107142Y-72952380D01*
X142345238Y-72952380D01*
X142440476Y-73000000D01*
X142488095Y-73047619D01*
X142535714Y-73142857D01*
X142535714Y-73238095D01*
X142488095Y-73380952D01*
X141916666Y-73952380D01*
X142535714Y-73952380D01*
X124333333Y-68857142D02*
X124285714Y-68904761D01*
X124142857Y-68952380D01*
X124047619Y-68952380D01*
X123904761Y-68904761D01*
X123809523Y-68809523D01*
X123761904Y-68714285D01*
X123714285Y-68523809D01*
X123714285Y-68380952D01*
X123761904Y-68190476D01*
X123809523Y-68095238D01*
X123904761Y-68000000D01*
X124047619Y-67952380D01*
X124142857Y-67952380D01*
X124285714Y-68000000D01*
X124333333Y-68047619D01*
X124714285Y-68047619D02*
X124761904Y-68000000D01*
X124857142Y-67952380D01*
X125095238Y-67952380D01*
X125190476Y-68000000D01*
X125238095Y-68047619D01*
X125285714Y-68142857D01*
X125285714Y-68238095D01*
X125238095Y-68380952D01*
X124666666Y-68952380D01*
X125285714Y-68952380D01*
X107833333Y-76857142D02*
X107785714Y-76904761D01*
X107642857Y-76952380D01*
X107547619Y-76952380D01*
X107404761Y-76904761D01*
X107309523Y-76809523D01*
X107261904Y-76714285D01*
X107214285Y-76523809D01*
X107214285Y-76380952D01*
X107261904Y-76190476D01*
X107309523Y-76095238D01*
X107404761Y-76000000D01*
X107547619Y-75952380D01*
X107642857Y-75952380D01*
X107785714Y-76000000D01*
X107833333Y-76047619D01*
X108785714Y-76952380D02*
X108214285Y-76952380D01*
X108500000Y-76952380D02*
X108500000Y-75952380D01*
X108404761Y-76095238D01*
X108309523Y-76190476D01*
X108214285Y-76238095D01*
M02*
