G04 #@! TF.GenerationSoftware,KiCad,Pcbnew,5.1.6+dfsg1-1*
G04 #@! TF.CreationDate,2020-07-15T23:43:31+02:00*
G04 #@! TF.ProjectId,continuity,636f6e74-696e-4756-9974-792e6b696361,rev?*
G04 #@! TF.SameCoordinates,Original*
G04 #@! TF.FileFunction,Paste,Top*
G04 #@! TF.FilePolarity,Positive*
%FSLAX46Y46*%
G04 Gerber Fmt 4.6, Leading zero omitted, Abs format (unit mm)*
G04 Created by KiCad (PCBNEW 5.1.6+dfsg1-1) date 2020-07-15 23:43:31*
%MOMM*%
%LPD*%
G01*
G04 APERTURE LIST*
%ADD10R,2.000000X4.200000*%
%ADD11R,2.000000X1.500000*%
%ADD12R,2.000000X3.800000*%
%ADD13R,2.200000X1.550000*%
%ADD14R,2.200000X2.500000*%
%ADD15R,0.800000X3.400000*%
%ADD16C,0.100000*%
%ADD17R,1.850000X3.400000*%
%ADD18R,1.060000X0.650000*%
%ADD19R,0.700000X0.600000*%
%ADD20R,1.800000X3.500000*%
G04 APERTURE END LIST*
D10*
X95500000Y-92250000D03*
X103500000Y-92250000D03*
D11*
X101900000Y-75800000D03*
X101900000Y-71200000D03*
X101900000Y-73500000D03*
D12*
X95600000Y-73500000D03*
D13*
X116250000Y-80475000D03*
D14*
X116250000Y-83050000D03*
D15*
X142500000Y-89000000D03*
D16*
G36*
X145450000Y-90530000D02*
G01*
X145280000Y-90700000D01*
X143600000Y-90700000D01*
X143600000Y-87300000D01*
X145450000Y-87300000D01*
X145450000Y-90530000D01*
G37*
D17*
X140475000Y-89000000D03*
G36*
G01*
X137950001Y-81025000D02*
X137049999Y-81025000D01*
G75*
G02*
X136800000Y-80775001I0J249999D01*
G01*
X136800000Y-80124999D01*
G75*
G02*
X137049999Y-79875000I249999J0D01*
G01*
X137950001Y-79875000D01*
G75*
G02*
X138200000Y-80124999I0J-249999D01*
G01*
X138200000Y-80775001D01*
G75*
G02*
X137950001Y-81025000I-249999J0D01*
G01*
G37*
G36*
G01*
X137950001Y-83075000D02*
X137049999Y-83075000D01*
G75*
G02*
X136800000Y-82825001I0J249999D01*
G01*
X136800000Y-82174999D01*
G75*
G02*
X137049999Y-81925000I249999J0D01*
G01*
X137950001Y-81925000D01*
G75*
G02*
X138200000Y-82174999I0J-249999D01*
G01*
X138200000Y-82825001D01*
G75*
G02*
X137950001Y-83075000I-249999J0D01*
G01*
G37*
G36*
G01*
X152125000Y-81225000D02*
X150875000Y-81225000D01*
G75*
G02*
X150625000Y-80975000I0J250000D01*
G01*
X150625000Y-80050000D01*
G75*
G02*
X150875000Y-79800000I250000J0D01*
G01*
X152125000Y-79800000D01*
G75*
G02*
X152375000Y-80050000I0J-250000D01*
G01*
X152375000Y-80975000D01*
G75*
G02*
X152125000Y-81225000I-250000J0D01*
G01*
G37*
G36*
G01*
X152125000Y-84200000D02*
X150875000Y-84200000D01*
G75*
G02*
X150625000Y-83950000I0J250000D01*
G01*
X150625000Y-83025000D01*
G75*
G02*
X150875000Y-82775000I250000J0D01*
G01*
X152125000Y-82775000D01*
G75*
G02*
X152375000Y-83025000I0J-250000D01*
G01*
X152375000Y-83950000D01*
G75*
G02*
X152125000Y-84200000I-250000J0D01*
G01*
G37*
G36*
G01*
X155375000Y-82775000D02*
X156625000Y-82775000D01*
G75*
G02*
X156875000Y-83025000I0J-250000D01*
G01*
X156875000Y-83950000D01*
G75*
G02*
X156625000Y-84200000I-250000J0D01*
G01*
X155375000Y-84200000D01*
G75*
G02*
X155125000Y-83950000I0J250000D01*
G01*
X155125000Y-83025000D01*
G75*
G02*
X155375000Y-82775000I250000J0D01*
G01*
G37*
G36*
G01*
X155375000Y-79800000D02*
X156625000Y-79800000D01*
G75*
G02*
X156875000Y-80050000I0J-250000D01*
G01*
X156875000Y-80975000D01*
G75*
G02*
X156625000Y-81225000I-250000J0D01*
G01*
X155375000Y-81225000D01*
G75*
G02*
X155125000Y-80975000I0J250000D01*
G01*
X155125000Y-80050000D01*
G75*
G02*
X155375000Y-79800000I250000J0D01*
G01*
G37*
D18*
X117350000Y-70550000D03*
X117350000Y-72450000D03*
X115150000Y-72450000D03*
X115150000Y-71500000D03*
X115150000Y-70550000D03*
G36*
G01*
X111100000Y-70737500D02*
X111100000Y-70262500D01*
G75*
G02*
X111337500Y-70025000I237500J0D01*
G01*
X111912500Y-70025000D01*
G75*
G02*
X112150000Y-70262500I0J-237500D01*
G01*
X112150000Y-70737500D01*
G75*
G02*
X111912500Y-70975000I-237500J0D01*
G01*
X111337500Y-70975000D01*
G75*
G02*
X111100000Y-70737500I0J237500D01*
G01*
G37*
G36*
G01*
X109350000Y-70737500D02*
X109350000Y-70262500D01*
G75*
G02*
X109587500Y-70025000I237500J0D01*
G01*
X110162500Y-70025000D01*
G75*
G02*
X110400000Y-70262500I0J-237500D01*
G01*
X110400000Y-70737500D01*
G75*
G02*
X110162500Y-70975000I-237500J0D01*
G01*
X109587500Y-70975000D01*
G75*
G02*
X109350000Y-70737500I0J237500D01*
G01*
G37*
G36*
G01*
X115650000Y-75262500D02*
X115650000Y-75737500D01*
G75*
G02*
X115412500Y-75975000I-237500J0D01*
G01*
X114837500Y-75975000D01*
G75*
G02*
X114600000Y-75737500I0J237500D01*
G01*
X114600000Y-75262500D01*
G75*
G02*
X114837500Y-75025000I237500J0D01*
G01*
X115412500Y-75025000D01*
G75*
G02*
X115650000Y-75262500I0J-237500D01*
G01*
G37*
G36*
G01*
X117400000Y-75262500D02*
X117400000Y-75737500D01*
G75*
G02*
X117162500Y-75975000I-237500J0D01*
G01*
X116587500Y-75975000D01*
G75*
G02*
X116350000Y-75737500I0J237500D01*
G01*
X116350000Y-75262500D01*
G75*
G02*
X116587500Y-75025000I237500J0D01*
G01*
X117162500Y-75025000D01*
G75*
G02*
X117400000Y-75262500I0J-237500D01*
G01*
G37*
G36*
G01*
X122600000Y-75737500D02*
X122600000Y-75262500D01*
G75*
G02*
X122837500Y-75025000I237500J0D01*
G01*
X123412500Y-75025000D01*
G75*
G02*
X123650000Y-75262500I0J-237500D01*
G01*
X123650000Y-75737500D01*
G75*
G02*
X123412500Y-75975000I-237500J0D01*
G01*
X122837500Y-75975000D01*
G75*
G02*
X122600000Y-75737500I0J237500D01*
G01*
G37*
G36*
G01*
X120850000Y-75737500D02*
X120850000Y-75262500D01*
G75*
G02*
X121087500Y-75025000I237500J0D01*
G01*
X121662500Y-75025000D01*
G75*
G02*
X121900000Y-75262500I0J-237500D01*
G01*
X121900000Y-75737500D01*
G75*
G02*
X121662500Y-75975000I-237500J0D01*
G01*
X121087500Y-75975000D01*
G75*
G02*
X120850000Y-75737500I0J237500D01*
G01*
G37*
G36*
G01*
X111100000Y-73737500D02*
X111100000Y-73262500D01*
G75*
G02*
X111337500Y-73025000I237500J0D01*
G01*
X111912500Y-73025000D01*
G75*
G02*
X112150000Y-73262500I0J-237500D01*
G01*
X112150000Y-73737500D01*
G75*
G02*
X111912500Y-73975000I-237500J0D01*
G01*
X111337500Y-73975000D01*
G75*
G02*
X111100000Y-73737500I0J237500D01*
G01*
G37*
G36*
G01*
X109350000Y-73737500D02*
X109350000Y-73262500D01*
G75*
G02*
X109587500Y-73025000I237500J0D01*
G01*
X110162500Y-73025000D01*
G75*
G02*
X110400000Y-73262500I0J-237500D01*
G01*
X110400000Y-73737500D01*
G75*
G02*
X110162500Y-73975000I-237500J0D01*
G01*
X109587500Y-73975000D01*
G75*
G02*
X109350000Y-73737500I0J237500D01*
G01*
G37*
G36*
G01*
X105262500Y-74850000D02*
X105737500Y-74850000D01*
G75*
G02*
X105975000Y-75087500I0J-237500D01*
G01*
X105975000Y-75662500D01*
G75*
G02*
X105737500Y-75900000I-237500J0D01*
G01*
X105262500Y-75900000D01*
G75*
G02*
X105025000Y-75662500I0J237500D01*
G01*
X105025000Y-75087500D01*
G75*
G02*
X105262500Y-74850000I237500J0D01*
G01*
G37*
G36*
G01*
X105262500Y-73100000D02*
X105737500Y-73100000D01*
G75*
G02*
X105975000Y-73337500I0J-237500D01*
G01*
X105975000Y-73912500D01*
G75*
G02*
X105737500Y-74150000I-237500J0D01*
G01*
X105262500Y-74150000D01*
G75*
G02*
X105025000Y-73912500I0J237500D01*
G01*
X105025000Y-73337500D01*
G75*
G02*
X105262500Y-73100000I237500J0D01*
G01*
G37*
G36*
G01*
X111100000Y-82737500D02*
X111100000Y-82262500D01*
G75*
G02*
X111337500Y-82025000I237500J0D01*
G01*
X111912500Y-82025000D01*
G75*
G02*
X112150000Y-82262500I0J-237500D01*
G01*
X112150000Y-82737500D01*
G75*
G02*
X111912500Y-82975000I-237500J0D01*
G01*
X111337500Y-82975000D01*
G75*
G02*
X111100000Y-82737500I0J237500D01*
G01*
G37*
G36*
G01*
X109350000Y-82737500D02*
X109350000Y-82262500D01*
G75*
G02*
X109587500Y-82025000I237500J0D01*
G01*
X110162500Y-82025000D01*
G75*
G02*
X110400000Y-82262500I0J-237500D01*
G01*
X110400000Y-82737500D01*
G75*
G02*
X110162500Y-82975000I-237500J0D01*
G01*
X109587500Y-82975000D01*
G75*
G02*
X109350000Y-82737500I0J237500D01*
G01*
G37*
G36*
G01*
X111100000Y-79737500D02*
X111100000Y-79262500D01*
G75*
G02*
X111337500Y-79025000I237500J0D01*
G01*
X111912500Y-79025000D01*
G75*
G02*
X112150000Y-79262500I0J-237500D01*
G01*
X112150000Y-79737500D01*
G75*
G02*
X111912500Y-79975000I-237500J0D01*
G01*
X111337500Y-79975000D01*
G75*
G02*
X111100000Y-79737500I0J237500D01*
G01*
G37*
G36*
G01*
X109350000Y-79737500D02*
X109350000Y-79262500D01*
G75*
G02*
X109587500Y-79025000I237500J0D01*
G01*
X110162500Y-79025000D01*
G75*
G02*
X110400000Y-79262500I0J-237500D01*
G01*
X110400000Y-79737500D01*
G75*
G02*
X110162500Y-79975000I-237500J0D01*
G01*
X109587500Y-79975000D01*
G75*
G02*
X109350000Y-79737500I0J237500D01*
G01*
G37*
G36*
G01*
X111100000Y-85737500D02*
X111100000Y-85262500D01*
G75*
G02*
X111337500Y-85025000I237500J0D01*
G01*
X111912500Y-85025000D01*
G75*
G02*
X112150000Y-85262500I0J-237500D01*
G01*
X112150000Y-85737500D01*
G75*
G02*
X111912500Y-85975000I-237500J0D01*
G01*
X111337500Y-85975000D01*
G75*
G02*
X111100000Y-85737500I0J237500D01*
G01*
G37*
G36*
G01*
X109350000Y-85737500D02*
X109350000Y-85262500D01*
G75*
G02*
X109587500Y-85025000I237500J0D01*
G01*
X110162500Y-85025000D01*
G75*
G02*
X110400000Y-85262500I0J-237500D01*
G01*
X110400000Y-85737500D01*
G75*
G02*
X110162500Y-85975000I-237500J0D01*
G01*
X109587500Y-85975000D01*
G75*
G02*
X109350000Y-85737500I0J237500D01*
G01*
G37*
G36*
G01*
X116225000Y-87237500D02*
X116225000Y-86762500D01*
G75*
G02*
X116462500Y-86525000I237500J0D01*
G01*
X117037500Y-86525000D01*
G75*
G02*
X117275000Y-86762500I0J-237500D01*
G01*
X117275000Y-87237500D01*
G75*
G02*
X117037500Y-87475000I-237500J0D01*
G01*
X116462500Y-87475000D01*
G75*
G02*
X116225000Y-87237500I0J237500D01*
G01*
G37*
G36*
G01*
X114475000Y-87237500D02*
X114475000Y-86762500D01*
G75*
G02*
X114712500Y-86525000I237500J0D01*
G01*
X115287500Y-86525000D01*
G75*
G02*
X115525000Y-86762500I0J-237500D01*
G01*
X115525000Y-87237500D01*
G75*
G02*
X115287500Y-87475000I-237500J0D01*
G01*
X114712500Y-87475000D01*
G75*
G02*
X114475000Y-87237500I0J237500D01*
G01*
G37*
G36*
G01*
X128100000Y-90237500D02*
X128100000Y-89762500D01*
G75*
G02*
X128337500Y-89525000I237500J0D01*
G01*
X128912500Y-89525000D01*
G75*
G02*
X129150000Y-89762500I0J-237500D01*
G01*
X129150000Y-90237500D01*
G75*
G02*
X128912500Y-90475000I-237500J0D01*
G01*
X128337500Y-90475000D01*
G75*
G02*
X128100000Y-90237500I0J237500D01*
G01*
G37*
G36*
G01*
X126350000Y-90237500D02*
X126350000Y-89762500D01*
G75*
G02*
X126587500Y-89525000I237500J0D01*
G01*
X127162500Y-89525000D01*
G75*
G02*
X127400000Y-89762500I0J-237500D01*
G01*
X127400000Y-90237500D01*
G75*
G02*
X127162500Y-90475000I-237500J0D01*
G01*
X126587500Y-90475000D01*
G75*
G02*
X126350000Y-90237500I0J237500D01*
G01*
G37*
D11*
X103500000Y-84800000D03*
X103500000Y-80200000D03*
X103500000Y-82500000D03*
D12*
X97200000Y-82500000D03*
D11*
X115600000Y-90700000D03*
X115600000Y-95300000D03*
X115600000Y-93000000D03*
D12*
X121900000Y-93000000D03*
D19*
X148000000Y-79700000D03*
X148000000Y-78300000D03*
X148000000Y-85000000D03*
X148000000Y-83600000D03*
D20*
X142000000Y-76500000D03*
X142000000Y-81500000D03*
G36*
G01*
X124487500Y-71150000D02*
X124012500Y-71150000D01*
G75*
G02*
X123775000Y-70912500I0J237500D01*
G01*
X123775000Y-70337500D01*
G75*
G02*
X124012500Y-70100000I237500J0D01*
G01*
X124487500Y-70100000D01*
G75*
G02*
X124725000Y-70337500I0J-237500D01*
G01*
X124725000Y-70912500D01*
G75*
G02*
X124487500Y-71150000I-237500J0D01*
G01*
G37*
G36*
G01*
X124487500Y-72900000D02*
X124012500Y-72900000D01*
G75*
G02*
X123775000Y-72662500I0J237500D01*
G01*
X123775000Y-72087500D01*
G75*
G02*
X124012500Y-71850000I237500J0D01*
G01*
X124487500Y-71850000D01*
G75*
G02*
X124725000Y-72087500I0J-237500D01*
G01*
X124725000Y-72662500D01*
G75*
G02*
X124487500Y-72900000I-237500J0D01*
G01*
G37*
G36*
G01*
X110400000Y-76262500D02*
X110400000Y-76737500D01*
G75*
G02*
X110162500Y-76975000I-237500J0D01*
G01*
X109587500Y-76975000D01*
G75*
G02*
X109350000Y-76737500I0J237500D01*
G01*
X109350000Y-76262500D01*
G75*
G02*
X109587500Y-76025000I237500J0D01*
G01*
X110162500Y-76025000D01*
G75*
G02*
X110400000Y-76262500I0J-237500D01*
G01*
G37*
G36*
G01*
X112150000Y-76262500D02*
X112150000Y-76737500D01*
G75*
G02*
X111912500Y-76975000I-237500J0D01*
G01*
X111337500Y-76975000D01*
G75*
G02*
X111100000Y-76737500I0J237500D01*
G01*
X111100000Y-76262500D01*
G75*
G02*
X111337500Y-76025000I237500J0D01*
G01*
X111912500Y-76025000D01*
G75*
G02*
X112150000Y-76262500I0J-237500D01*
G01*
G37*
M02*
