M48
; DRILL file {KiCad (5.1.5)-3} date 07.08.2020 17:04:33
; FORMAT={-:-/ absolute / inch / decimal}
; #@! TF.CreationDate,2020-08-07T17:04:33+02:00
; #@! TF.GenerationSoftware,Kicad,Pcbnew,(5.1.5)-3
; #@! TF.FileFunction,Plated,1,2,PTH
FMAT,2
INCH
T1C0.0197
T2C0.0236
T3C0.0394
%
G90
G05
T1
X2.4494Y-3.1132
X2.2494Y-2.9132
X2.4494Y-3.2132
X2.2494Y-3.0132
X2.4494Y-3.0132
X2.2494Y-3.2132
X2.4494Y-2.9132
X2.2494Y-3.1132
T2
X1.5509Y-2.6632
X1.5509Y-3.5632
X1.6509Y-2.8632
X1.6509Y-3.0632
X1.8009Y-3.0632
X1.9497Y-2.8638
X1.9509Y-2.6632
X1.9509Y-2.7632
X1.9509Y-3.1632
X2.1009Y-2.3132
X2.2509Y-2.7882
X2.3509Y-3.0632
X2.3509Y-3.3632
X2.7509Y-3.5632
X2.9509Y-3.1632
X3.0459Y-2.9632
X3.2009Y-3.5132
T3
X2.3509Y-3.564
X2.3509Y-3.8632
X2.9759Y-3.8148
X2.9759Y-3.9132
X1.7259Y-3.8132
X1.7259Y-3.9117
X2.3494Y-2.1632
X2.3494Y-2.2617
X2.3494Y-2.5148
X2.3494Y-2.6132
X2.3494Y-1.8132
X2.3494Y-1.9117
T0
M30
