%TF.GenerationSoftware,KiCad,Pcbnew,(5.1.5)-3*%
%TF.CreationDate,2020-08-07T17:04:35+02:00*%
%TF.ProjectId,continuity,636f6e74-696e-4756-9974-792e6b696361,rev?*%
%TF.SameCoordinates,Original*%
%TF.FileFunction,Legend,Top*%
%TF.FilePolarity,Positive*%
%FSLAX46Y46*%
G04 Gerber Fmt 4.6, Leading zero omitted, Abs format (unit mm)*
G04 Created by KiCad (PCBNEW (5.1.5)-3) date 2020-08-07 17:04:35*
%MOMM*%
%LPD*%
G04 APERTURE LIST*
%ADD10C,0.150000*%
%ADD11C,0.120000*%
G04 APERTURE END LIST*
D10*
X48029977Y-96824900D02*
X47268072Y-96824900D01*
X48029977Y-99324900D02*
X47268072Y-99324900D01*
X47649025Y-98943948D02*
X47649025Y-99705852D01*
X55483072Y-46127757D02*
X56244977Y-46127757D01*
X55864025Y-46508709D02*
X55864025Y-45746805D01*
X55483072Y-48667757D02*
X56244977Y-48667757D01*
X79018072Y-99507757D02*
X79779977Y-99507757D01*
X79399025Y-99888709D02*
X79399025Y-99126805D01*
X79018072Y-96967757D02*
X79779977Y-96967757D01*
X55483072Y-63907757D02*
X56244977Y-63907757D01*
X55864025Y-64288709D02*
X55864025Y-63526805D01*
X55483072Y-66447757D02*
X56244977Y-66447757D01*
X55483072Y-57557757D02*
X56244977Y-57557757D01*
X55483072Y-55017757D02*
X56244977Y-55017757D01*
X55864025Y-55398709D02*
X55864025Y-54636805D01*
D11*
X56924025Y-69226329D02*
X58174025Y-69226329D01*
X56924025Y-67976329D02*
X56924025Y-69226329D01*
X62424025Y-62076329D02*
X62424025Y-65126329D01*
X59474025Y-62076329D02*
X62424025Y-62076329D01*
X59474025Y-61326329D02*
X59474025Y-62076329D01*
X62424025Y-68176329D02*
X62424025Y-65126329D01*
X59474025Y-68176329D02*
X62424025Y-68176329D01*
X59474025Y-68926329D02*
X59474025Y-68176329D01*
X57224025Y-61326329D02*
X57224025Y-63126329D01*
X57974025Y-61326329D02*
X57224025Y-61326329D01*
X57974025Y-63126329D02*
X57974025Y-61326329D01*
X57224025Y-63126329D02*
X57974025Y-63126329D01*
X57224025Y-67126329D02*
X57224025Y-68926329D01*
X57974025Y-67126329D02*
X57224025Y-67126329D01*
X57974025Y-68926329D02*
X57974025Y-67126329D01*
X57224025Y-68926329D02*
X57974025Y-68926329D01*
X57224025Y-64626329D02*
X57224025Y-65626329D01*
X57974025Y-64626329D02*
X57224025Y-64626329D01*
X57974025Y-65626329D02*
X57974025Y-64626329D01*
X57224025Y-65626329D02*
X57974025Y-65626329D01*
X57214025Y-61316329D02*
X57214025Y-68936329D01*
X63184025Y-61316329D02*
X57214025Y-61316329D01*
X63184025Y-68936329D02*
X63184025Y-61316329D01*
X57214025Y-68936329D02*
X63184025Y-68936329D01*
X46589025Y-94006329D02*
X45339025Y-94006329D01*
X46589025Y-95256329D02*
X46589025Y-94006329D01*
X41089025Y-101156329D02*
X41089025Y-98106329D01*
X44039025Y-101156329D02*
X41089025Y-101156329D01*
X44039025Y-101906329D02*
X44039025Y-101156329D01*
X41089025Y-95056329D02*
X41089025Y-98106329D01*
X44039025Y-95056329D02*
X41089025Y-95056329D01*
X44039025Y-94306329D02*
X44039025Y-95056329D01*
X46289025Y-101906329D02*
X46289025Y-100106329D01*
X45539025Y-101906329D02*
X46289025Y-101906329D01*
X45539025Y-100106329D02*
X45539025Y-101906329D01*
X46289025Y-100106329D02*
X45539025Y-100106329D01*
X46289025Y-96106329D02*
X46289025Y-94306329D01*
X45539025Y-96106329D02*
X46289025Y-96106329D01*
X45539025Y-94306329D02*
X45539025Y-96106329D01*
X46289025Y-94306329D02*
X45539025Y-94306329D01*
X46289025Y-98606329D02*
X46289025Y-97606329D01*
X45539025Y-98606329D02*
X46289025Y-98606329D01*
X45539025Y-97606329D02*
X45539025Y-98606329D01*
X46289025Y-97606329D02*
X45539025Y-97606329D01*
X46299025Y-101916329D02*
X46299025Y-94296329D01*
X40329025Y-101916329D02*
X46299025Y-101916329D01*
X40329025Y-94296329D02*
X40329025Y-101916329D01*
X46299025Y-94296329D02*
X40329025Y-94296329D01*
X46842758Y-83396329D02*
X47185292Y-83396329D01*
X46842758Y-82376329D02*
X47185292Y-82376329D01*
X53874025Y-47497596D02*
X53874025Y-47155062D01*
X52854025Y-47497596D02*
X52854025Y-47155062D01*
X56924025Y-51406329D02*
X58174025Y-51406329D01*
X56924025Y-50156329D02*
X56924025Y-51406329D01*
X62424025Y-44256329D02*
X62424025Y-47306329D01*
X59474025Y-44256329D02*
X62424025Y-44256329D01*
X59474025Y-43506329D02*
X59474025Y-44256329D01*
X62424025Y-50356329D02*
X62424025Y-47306329D01*
X59474025Y-50356329D02*
X62424025Y-50356329D01*
X59474025Y-51106329D02*
X59474025Y-50356329D01*
X57224025Y-43506329D02*
X57224025Y-45306329D01*
X57974025Y-43506329D02*
X57224025Y-43506329D01*
X57974025Y-45306329D02*
X57974025Y-43506329D01*
X57224025Y-45306329D02*
X57974025Y-45306329D01*
X57224025Y-49306329D02*
X57224025Y-51106329D01*
X57974025Y-49306329D02*
X57224025Y-49306329D01*
X57974025Y-51106329D02*
X57974025Y-49306329D01*
X57224025Y-51106329D02*
X57974025Y-51106329D01*
X57224025Y-46806329D02*
X57224025Y-47806329D01*
X57974025Y-46806329D02*
X57224025Y-46806329D01*
X57974025Y-47806329D02*
X57974025Y-46806329D01*
X57224025Y-47806329D02*
X57974025Y-47806329D01*
X57214025Y-43496329D02*
X57214025Y-51116329D01*
X63184025Y-43496329D02*
X57214025Y-43496329D01*
X63184025Y-51116329D02*
X63184025Y-43496329D01*
X57214025Y-51116329D02*
X63184025Y-51116329D01*
X58734025Y-30956329D02*
X57934025Y-30956329D01*
X58734025Y-35606329D02*
X58734025Y-30956329D01*
X55534025Y-35606329D02*
X55534025Y-30956329D01*
X56434025Y-78376329D02*
X57834025Y-78376329D01*
X56434025Y-79776329D02*
X56434025Y-78376329D01*
X57834025Y-79776329D02*
X56434025Y-79776329D01*
X57834025Y-78376329D02*
X57834025Y-79776329D01*
X56434025Y-80916329D02*
X57834025Y-80916329D01*
X56434025Y-82316329D02*
X56434025Y-80916329D01*
X57834025Y-82316329D02*
X56434025Y-82316329D01*
X57834025Y-80916329D02*
X57834025Y-82316329D01*
X61514025Y-80916329D02*
X62914025Y-80916329D01*
X61514025Y-82316329D02*
X61514025Y-80916329D01*
X62914025Y-82316329D02*
X61514025Y-82316329D01*
X62914025Y-80916329D02*
X62914025Y-82316329D01*
X61514025Y-78376329D02*
X62914025Y-78376329D01*
X61514025Y-79776329D02*
X61514025Y-78376329D01*
X62914025Y-79776329D02*
X61514025Y-79776329D01*
X62914025Y-78376329D02*
X62914025Y-79776329D01*
X56434025Y-75836329D02*
X57834025Y-75836329D01*
X56434025Y-77236329D02*
X56434025Y-75836329D01*
X57834025Y-77236329D02*
X56434025Y-77236329D01*
X57834025Y-75836329D02*
X57834025Y-77236329D01*
X61514025Y-75836329D02*
X62914025Y-75836329D01*
X61514025Y-77236329D02*
X61514025Y-75836329D01*
X62914025Y-77236329D02*
X61514025Y-77236329D01*
X62914025Y-75836329D02*
X62914025Y-77236329D01*
X56434025Y-73296329D02*
X57834025Y-73296329D01*
X56434025Y-74696329D02*
X56434025Y-73296329D01*
X57834025Y-74696329D02*
X56434025Y-74696329D01*
X57834025Y-73296329D02*
X57834025Y-74696329D01*
X61514025Y-73296329D02*
X62914025Y-73296329D01*
X61514025Y-74696329D02*
X61514025Y-73296329D01*
X62914025Y-74696329D02*
X61514025Y-74696329D01*
X62914025Y-73296329D02*
X62914025Y-74696329D01*
D10*
X74004025Y-60566329D02*
X68154025Y-60566329D01*
X68154025Y-60566329D02*
X67854025Y-60566329D01*
X67854025Y-60566329D02*
X67854025Y-61566329D01*
X67854025Y-61566329D02*
X67854025Y-64466329D01*
X67854025Y-64466329D02*
X67854025Y-64516329D01*
X67854025Y-64516329D02*
X74304025Y-64516329D01*
X74304025Y-64516329D02*
X74304025Y-60566329D01*
X74304025Y-60566329D02*
X74004025Y-60566329D01*
D11*
X67314025Y-94326329D02*
G75*
G03X67314025Y-94326329I-7600000J0D01*
G01*
X75229025Y-70193393D02*
X75229025Y-68989265D01*
X73409025Y-70193393D02*
X73409025Y-68989265D01*
X71419025Y-70193393D02*
X71419025Y-68989265D01*
X69599025Y-70193393D02*
X69599025Y-68989265D01*
X78339025Y-94046329D02*
X77089025Y-94046329D01*
X78339025Y-95296329D02*
X78339025Y-94046329D01*
X72839025Y-101196329D02*
X72839025Y-98146329D01*
X75789025Y-101196329D02*
X72839025Y-101196329D01*
X75789025Y-101946329D02*
X75789025Y-101196329D01*
X72839025Y-95096329D02*
X72839025Y-98146329D01*
X75789025Y-95096329D02*
X72839025Y-95096329D01*
X75789025Y-94346329D02*
X75789025Y-95096329D01*
X78039025Y-101946329D02*
X78039025Y-100146329D01*
X77289025Y-101946329D02*
X78039025Y-101946329D01*
X77289025Y-100146329D02*
X77289025Y-101946329D01*
X78039025Y-100146329D02*
X77289025Y-100146329D01*
X78039025Y-96146329D02*
X78039025Y-94346329D01*
X77289025Y-96146329D02*
X78039025Y-96146329D01*
X77289025Y-94346329D02*
X77289025Y-96146329D01*
X78039025Y-94346329D02*
X77289025Y-94346329D01*
X78039025Y-98646329D02*
X78039025Y-97646329D01*
X77289025Y-98646329D02*
X78039025Y-98646329D01*
X77289025Y-97646329D02*
X77289025Y-98646329D01*
X78039025Y-97646329D02*
X77289025Y-97646329D01*
X78049025Y-101956329D02*
X78049025Y-94336329D01*
X72079025Y-101956329D02*
X78049025Y-101956329D01*
X72079025Y-94336329D02*
X72079025Y-101956329D01*
X78049025Y-94336329D02*
X72079025Y-94336329D01*
X56924025Y-60296329D02*
X58174025Y-60296329D01*
X56924025Y-59046329D02*
X56924025Y-60296329D01*
X62424025Y-53146329D02*
X62424025Y-56196329D01*
X59474025Y-53146329D02*
X62424025Y-53146329D01*
X59474025Y-52396329D02*
X59474025Y-53146329D01*
X62424025Y-59246329D02*
X62424025Y-56196329D01*
X59474025Y-59246329D02*
X62424025Y-59246329D01*
X59474025Y-59996329D02*
X59474025Y-59246329D01*
X57224025Y-52396329D02*
X57224025Y-54196329D01*
X57974025Y-52396329D02*
X57224025Y-52396329D01*
X57974025Y-54196329D02*
X57974025Y-52396329D01*
X57224025Y-54196329D02*
X57974025Y-54196329D01*
X57224025Y-58196329D02*
X57224025Y-59996329D01*
X57974025Y-58196329D02*
X57224025Y-58196329D01*
X57974025Y-59996329D02*
X57974025Y-58196329D01*
X57224025Y-59996329D02*
X57974025Y-59996329D01*
X57224025Y-55696329D02*
X57224025Y-56696329D01*
X57974025Y-55696329D02*
X57224025Y-55696329D01*
X57974025Y-56696329D02*
X57974025Y-55696329D01*
X57224025Y-56696329D02*
X57974025Y-56696329D01*
X57214025Y-52386329D02*
X57214025Y-60006329D01*
X63184025Y-52386329D02*
X57214025Y-52386329D01*
X63184025Y-60006329D02*
X63184025Y-52386329D01*
X57214025Y-60006329D02*
X63184025Y-60006329D01*
X63814025Y-30956329D02*
X63014025Y-30956329D01*
X63814025Y-35606329D02*
X63814025Y-30956329D01*
X60614025Y-35606329D02*
X60614025Y-30956329D01*
X46712773Y-70896329D02*
X47235277Y-70896329D01*
X46712773Y-69476329D02*
X47235277Y-69476329D01*
X41184025Y-75005077D02*
X41184025Y-75527581D01*
X42604025Y-75005077D02*
X42604025Y-75527581D01*
X46384025Y-91376329D02*
X46384025Y-90116329D01*
X46384025Y-84556329D02*
X46384025Y-85816329D01*
X42624025Y-91376329D02*
X46384025Y-91376329D01*
X40374025Y-84556329D02*
X46384025Y-84556329D01*
X42601961Y-61656329D02*
X43806089Y-61656329D01*
X42601961Y-63476329D02*
X43806089Y-63476329D01*
X48951961Y-61656329D02*
X50156089Y-61656329D01*
X48951961Y-63476329D02*
X50156089Y-63476329D01*
X47314025Y-76166329D02*
X47314025Y-74366329D01*
X44094025Y-74366329D02*
X44094025Y-76816329D01*
X42065292Y-80856329D02*
X41722758Y-80856329D01*
X42065292Y-79836329D02*
X41722758Y-79836329D01*
X50024025Y-75095062D02*
X50024025Y-75437596D01*
X49004025Y-75095062D02*
X49004025Y-75437596D01*
X41722758Y-69676329D02*
X42065292Y-69676329D01*
X41722758Y-70696329D02*
X42065292Y-70696329D01*
X46802758Y-79836329D02*
X47145292Y-79836329D01*
X46802758Y-80856329D02*
X47145292Y-80856329D01*
X41762758Y-82376329D02*
X42105292Y-82376329D01*
X41762758Y-83396329D02*
X42105292Y-83396329D01*
X81774025Y-86525062D02*
X81774025Y-86867596D01*
X80754025Y-86525062D02*
X80754025Y-86867596D01*
X52854025Y-56387596D02*
X52854025Y-56045062D01*
X53874025Y-56387596D02*
X53874025Y-56045062D01*
X80754025Y-81787596D02*
X80754025Y-81445062D01*
X81774025Y-81787596D02*
X81774025Y-81445062D01*
X69074025Y-88137596D02*
X69074025Y-87795062D01*
X68054025Y-88137596D02*
X68054025Y-87795062D01*
X68054025Y-80517596D02*
X68054025Y-80175062D01*
X69074025Y-80517596D02*
X69074025Y-80175062D01*
X70866000Y-84556329D02*
X76876000Y-84556329D01*
X73116000Y-91376329D02*
X76876000Y-91376329D01*
X76876000Y-84556329D02*
X76876000Y-85816329D01*
X76876000Y-91376329D02*
X76876000Y-90116329D01*
X72986000Y-76936329D02*
X72986000Y-78196329D01*
X72986000Y-83756329D02*
X72986000Y-82496329D01*
X76746000Y-76936329D02*
X72986000Y-76936329D01*
X78996000Y-83756329D02*
X72986000Y-83756329D01*
X43044025Y-68246329D02*
X43044025Y-67046329D01*
X41194025Y-68246329D02*
X43044025Y-68246329D01*
X41194025Y-67046329D02*
X43044025Y-67046329D01*
X48124025Y-68246329D02*
X48124025Y-67046329D01*
X46274025Y-68246329D02*
X48124025Y-68246329D01*
X46274025Y-67046329D02*
X48124025Y-67046329D01*
X80374025Y-64516329D02*
X77074025Y-64516329D01*
X77074025Y-64516329D02*
X77074025Y-71416329D01*
X80374025Y-64516329D02*
X80374025Y-71416329D01*
D10*
X65246405Y-67820614D02*
X64246405Y-67820614D01*
X64246405Y-67439662D01*
X64294025Y-67344424D01*
X64341644Y-67296805D01*
X64436882Y-67249186D01*
X64579739Y-67249186D01*
X64674977Y-67296805D01*
X64722596Y-67344424D01*
X64770215Y-67439662D01*
X64770215Y-67820614D01*
X65246405Y-66249186D02*
X64770215Y-66582519D01*
X65246405Y-66820614D02*
X64246405Y-66820614D01*
X64246405Y-66439662D01*
X64294025Y-66344424D01*
X64341644Y-66296805D01*
X64436882Y-66249186D01*
X64579739Y-66249186D01*
X64674977Y-66296805D01*
X64722596Y-66344424D01*
X64770215Y-66439662D01*
X64770215Y-66820614D01*
X64246405Y-65630138D02*
X64246405Y-65439662D01*
X64294025Y-65344424D01*
X64389263Y-65249186D01*
X64579739Y-65201567D01*
X64913072Y-65201567D01*
X65103548Y-65249186D01*
X65198786Y-65344424D01*
X65246405Y-65439662D01*
X65246405Y-65630138D01*
X65198786Y-65725376D01*
X65103548Y-65820614D01*
X64913072Y-65868233D01*
X64579739Y-65868233D01*
X64389263Y-65820614D01*
X64294025Y-65725376D01*
X64246405Y-65630138D01*
X64722596Y-64439662D02*
X64770215Y-64296805D01*
X64817834Y-64249186D01*
X64913072Y-64201567D01*
X65055929Y-64201567D01*
X65151167Y-64249186D01*
X65198786Y-64296805D01*
X65246405Y-64392043D01*
X65246405Y-64772995D01*
X64246405Y-64772995D01*
X64246405Y-64439662D01*
X64294025Y-64344424D01*
X64341644Y-64296805D01*
X64436882Y-64249186D01*
X64532120Y-64249186D01*
X64627358Y-64296805D01*
X64674977Y-64344424D01*
X64722596Y-64439662D01*
X64722596Y-64772995D01*
X64722596Y-63772995D02*
X64722596Y-63439662D01*
X65246405Y-63296805D02*
X65246405Y-63772995D01*
X64246405Y-63772995D01*
X64246405Y-63296805D01*
X65246405Y-62344424D02*
X65246405Y-62915852D01*
X65246405Y-62630138D02*
X64246405Y-62630138D01*
X64389263Y-62725376D01*
X64484501Y-62820614D01*
X64532120Y-62915852D01*
X39211405Y-98749186D02*
X39211405Y-99225376D01*
X38211405Y-99225376D01*
X39163786Y-98463471D02*
X39211405Y-98320614D01*
X39211405Y-98082519D01*
X39163786Y-97987281D01*
X39116167Y-97939662D01*
X39020929Y-97892043D01*
X38925691Y-97892043D01*
X38830453Y-97939662D01*
X38782834Y-97987281D01*
X38735215Y-98082519D01*
X38687596Y-98272995D01*
X38639977Y-98368233D01*
X38592358Y-98415852D01*
X38497120Y-98463471D01*
X38401882Y-98463471D01*
X38306644Y-98415852D01*
X38259025Y-98368233D01*
X38211405Y-98272995D01*
X38211405Y-98034900D01*
X38259025Y-97892043D01*
X38306644Y-97511090D02*
X38259025Y-97463471D01*
X38211405Y-97368233D01*
X38211405Y-97130138D01*
X38259025Y-97034900D01*
X38306644Y-96987281D01*
X38401882Y-96939662D01*
X38497120Y-96939662D01*
X38639977Y-96987281D01*
X39211405Y-97558709D01*
X39211405Y-96939662D01*
X50181167Y-83338709D02*
X49847834Y-82862519D01*
X49609739Y-83338709D02*
X49609739Y-82338709D01*
X49990691Y-82338709D01*
X50085929Y-82386329D01*
X50133548Y-82433948D01*
X50181167Y-82529186D01*
X50181167Y-82672043D01*
X50133548Y-82767281D01*
X50085929Y-82814900D01*
X49990691Y-82862519D01*
X49609739Y-82862519D01*
X51133548Y-83338709D02*
X50562120Y-83338709D01*
X50847834Y-83338709D02*
X50847834Y-82338709D01*
X50752596Y-82481567D01*
X50657358Y-82576805D01*
X50562120Y-82624424D01*
X52038310Y-82338709D02*
X51562120Y-82338709D01*
X51514501Y-82814900D01*
X51562120Y-82767281D01*
X51657358Y-82719662D01*
X51895453Y-82719662D01*
X51990691Y-82767281D01*
X52038310Y-82814900D01*
X52085929Y-82910138D01*
X52085929Y-83148233D01*
X52038310Y-83243471D01*
X51990691Y-83291090D01*
X51895453Y-83338709D01*
X51657358Y-83338709D01*
X51562120Y-83291090D01*
X51514501Y-83243471D01*
X50181167Y-47778709D02*
X49847834Y-47302519D01*
X49609739Y-47778709D02*
X49609739Y-46778709D01*
X49990691Y-46778709D01*
X50085929Y-46826329D01*
X50133548Y-46873948D01*
X50181167Y-46969186D01*
X50181167Y-47112043D01*
X50133548Y-47207281D01*
X50085929Y-47254900D01*
X49990691Y-47302519D01*
X49609739Y-47302519D01*
X51133548Y-47778709D02*
X50562120Y-47778709D01*
X50847834Y-47778709D02*
X50847834Y-46778709D01*
X50752596Y-46921567D01*
X50657358Y-47016805D01*
X50562120Y-47064424D01*
X51990691Y-47112043D02*
X51990691Y-47778709D01*
X51752596Y-46731090D02*
X51514501Y-47445376D01*
X52133548Y-47445376D01*
X64294025Y-49449186D02*
X64246405Y-49544424D01*
X64246405Y-49687281D01*
X64294025Y-49830138D01*
X64389263Y-49925376D01*
X64484501Y-49972995D01*
X64674977Y-50020614D01*
X64817834Y-50020614D01*
X65008310Y-49972995D01*
X65103548Y-49925376D01*
X65198786Y-49830138D01*
X65246405Y-49687281D01*
X65246405Y-49592043D01*
X65198786Y-49449186D01*
X65151167Y-49401567D01*
X64817834Y-49401567D01*
X64817834Y-49592043D01*
X65246405Y-48401567D02*
X64770215Y-48734900D01*
X65246405Y-48972995D02*
X64246405Y-48972995D01*
X64246405Y-48592043D01*
X64294025Y-48496805D01*
X64341644Y-48449186D01*
X64436882Y-48401567D01*
X64579739Y-48401567D01*
X64674977Y-48449186D01*
X64722596Y-48496805D01*
X64770215Y-48592043D01*
X64770215Y-48972995D01*
X64722596Y-47972995D02*
X64722596Y-47639662D01*
X65246405Y-47496805D02*
X65246405Y-47972995D01*
X64246405Y-47972995D01*
X64246405Y-47496805D01*
X64722596Y-47068233D02*
X64722596Y-46734900D01*
X65246405Y-46592043D02*
X65246405Y-47068233D01*
X64246405Y-47068233D01*
X64246405Y-46592043D01*
X65246405Y-46163471D02*
X64246405Y-46163471D01*
X65246405Y-45592043D01*
X64246405Y-45592043D01*
X64341644Y-45163471D02*
X64294025Y-45115852D01*
X64246405Y-45020614D01*
X64246405Y-44782519D01*
X64294025Y-44687281D01*
X64341644Y-44639662D01*
X64436882Y-44592043D01*
X64532120Y-44592043D01*
X64674977Y-44639662D01*
X65246405Y-45211090D01*
X65246405Y-44592043D01*
X52864025Y-35499186D02*
X52816405Y-35594424D01*
X52816405Y-35737281D01*
X52864025Y-35880138D01*
X52959263Y-35975376D01*
X53054501Y-36022995D01*
X53244977Y-36070614D01*
X53387834Y-36070614D01*
X53578310Y-36022995D01*
X53673548Y-35975376D01*
X53768786Y-35880138D01*
X53816405Y-35737281D01*
X53816405Y-35642043D01*
X53768786Y-35499186D01*
X53721167Y-35451567D01*
X53387834Y-35451567D01*
X53387834Y-35642043D01*
X53816405Y-34451567D02*
X53340215Y-34784900D01*
X53816405Y-35022995D02*
X52816405Y-35022995D01*
X52816405Y-34642043D01*
X52864025Y-34546805D01*
X52911644Y-34499186D01*
X53006882Y-34451567D01*
X53149739Y-34451567D01*
X53244977Y-34499186D01*
X53292596Y-34546805D01*
X53340215Y-34642043D01*
X53340215Y-35022995D01*
X53292596Y-34022995D02*
X53292596Y-33689662D01*
X53816405Y-33546805D02*
X53816405Y-34022995D01*
X52816405Y-34022995D01*
X52816405Y-33546805D01*
X53292596Y-33118233D02*
X53292596Y-32784900D01*
X53816405Y-32642043D02*
X53816405Y-33118233D01*
X52816405Y-33118233D01*
X52816405Y-32642043D01*
X53816405Y-32213471D02*
X52816405Y-32213471D01*
X53816405Y-31642043D01*
X52816405Y-31642043D01*
X53816405Y-30642043D02*
X53816405Y-31213471D01*
X53816405Y-30927757D02*
X52816405Y-30927757D01*
X52959263Y-31022995D01*
X53054501Y-31118233D01*
X53102120Y-31213471D01*
X53332120Y-78528709D02*
X53903548Y-78528709D01*
X53617834Y-79528709D02*
X53617834Y-78528709D01*
X54236882Y-79528709D02*
X54236882Y-78528709D01*
X54617834Y-78528709D01*
X54713072Y-78576329D01*
X54760691Y-78623948D01*
X54808310Y-78719186D01*
X54808310Y-78862043D01*
X54760691Y-78957281D01*
X54713072Y-79004900D01*
X54617834Y-79052519D01*
X54236882Y-79052519D01*
X55665453Y-78528709D02*
X55474977Y-78528709D01*
X55379739Y-78576329D01*
X55332120Y-78623948D01*
X55236882Y-78766805D01*
X55189263Y-78957281D01*
X55189263Y-79338233D01*
X55236882Y-79433471D01*
X55284501Y-79481090D01*
X55379739Y-79528709D01*
X55570215Y-79528709D01*
X55665453Y-79481090D01*
X55713072Y-79433471D01*
X55760691Y-79338233D01*
X55760691Y-79100138D01*
X55713072Y-79004900D01*
X55665453Y-78957281D01*
X55570215Y-78909662D01*
X55379739Y-78909662D01*
X55284501Y-78957281D01*
X55236882Y-79004900D01*
X55189263Y-79100138D01*
X68421405Y-74544186D02*
X67421405Y-74544186D01*
X68421405Y-73972757D01*
X67421405Y-73972757D01*
X67421405Y-73639424D02*
X67421405Y-73067995D01*
X68421405Y-73353709D02*
X67421405Y-73353709D01*
X68421405Y-72210852D02*
X68421405Y-72782281D01*
X68421405Y-72496567D02*
X67421405Y-72496567D01*
X67564263Y-72591805D01*
X67659501Y-72687043D01*
X67707120Y-72782281D01*
X53332120Y-81068709D02*
X53903548Y-81068709D01*
X53617834Y-82068709D02*
X53617834Y-81068709D01*
X54236882Y-82068709D02*
X54236882Y-81068709D01*
X54617834Y-81068709D01*
X54713072Y-81116329D01*
X54760691Y-81163948D01*
X54808310Y-81259186D01*
X54808310Y-81402043D01*
X54760691Y-81497281D01*
X54713072Y-81544900D01*
X54617834Y-81592519D01*
X54236882Y-81592519D01*
X55379739Y-81497281D02*
X55284501Y-81449662D01*
X55236882Y-81402043D01*
X55189263Y-81306805D01*
X55189263Y-81259186D01*
X55236882Y-81163948D01*
X55284501Y-81116329D01*
X55379739Y-81068709D01*
X55570215Y-81068709D01*
X55665453Y-81116329D01*
X55713072Y-81163948D01*
X55760691Y-81259186D01*
X55760691Y-81306805D01*
X55713072Y-81402043D01*
X55665453Y-81449662D01*
X55570215Y-81497281D01*
X55379739Y-81497281D01*
X55284501Y-81544900D01*
X55236882Y-81592519D01*
X55189263Y-81687757D01*
X55189263Y-81878233D01*
X55236882Y-81973471D01*
X55284501Y-82021090D01*
X55379739Y-82068709D01*
X55570215Y-82068709D01*
X55665453Y-82021090D01*
X55713072Y-81973471D01*
X55760691Y-81878233D01*
X55760691Y-81687757D01*
X55713072Y-81592519D01*
X55665453Y-81544900D01*
X55570215Y-81497281D01*
X63492120Y-81068709D02*
X64063548Y-81068709D01*
X63777834Y-82068709D02*
X63777834Y-81068709D01*
X64396882Y-82068709D02*
X64396882Y-81068709D01*
X64777834Y-81068709D01*
X64873072Y-81116329D01*
X64920691Y-81163948D01*
X64968310Y-81259186D01*
X64968310Y-81402043D01*
X64920691Y-81497281D01*
X64873072Y-81544900D01*
X64777834Y-81592519D01*
X64396882Y-81592519D01*
X65301644Y-81068709D02*
X65968310Y-81068709D01*
X65539739Y-82068709D01*
X63492120Y-78528709D02*
X64063548Y-78528709D01*
X63777834Y-79528709D02*
X63777834Y-78528709D01*
X64396882Y-79528709D02*
X64396882Y-78528709D01*
X64777834Y-78528709D01*
X64873072Y-78576329D01*
X64920691Y-78623948D01*
X64968310Y-78719186D01*
X64968310Y-78862043D01*
X64920691Y-78957281D01*
X64873072Y-79004900D01*
X64777834Y-79052519D01*
X64396882Y-79052519D01*
X65873072Y-78528709D02*
X65396882Y-78528709D01*
X65349263Y-79004900D01*
X65396882Y-78957281D01*
X65492120Y-78909662D01*
X65730215Y-78909662D01*
X65825453Y-78957281D01*
X65873072Y-79004900D01*
X65920691Y-79100138D01*
X65920691Y-79338233D01*
X65873072Y-79433471D01*
X65825453Y-79481090D01*
X65730215Y-79528709D01*
X65492120Y-79528709D01*
X65396882Y-79481090D01*
X65349263Y-79433471D01*
X53332120Y-75988709D02*
X53903548Y-75988709D01*
X53617834Y-76988709D02*
X53617834Y-75988709D01*
X54236882Y-76988709D02*
X54236882Y-75988709D01*
X54617834Y-75988709D01*
X54713072Y-76036329D01*
X54760691Y-76083948D01*
X54808310Y-76179186D01*
X54808310Y-76322043D01*
X54760691Y-76417281D01*
X54713072Y-76464900D01*
X54617834Y-76512519D01*
X54236882Y-76512519D01*
X55665453Y-76322043D02*
X55665453Y-76988709D01*
X55427358Y-75941090D02*
X55189263Y-76655376D01*
X55808310Y-76655376D01*
X63492120Y-75988709D02*
X64063548Y-75988709D01*
X63777834Y-76988709D02*
X63777834Y-75988709D01*
X64396882Y-76988709D02*
X64396882Y-75988709D01*
X64777834Y-75988709D01*
X64873072Y-76036329D01*
X64920691Y-76083948D01*
X64968310Y-76179186D01*
X64968310Y-76322043D01*
X64920691Y-76417281D01*
X64873072Y-76464900D01*
X64777834Y-76512519D01*
X64396882Y-76512519D01*
X65301644Y-75988709D02*
X65920691Y-75988709D01*
X65587358Y-76369662D01*
X65730215Y-76369662D01*
X65825453Y-76417281D01*
X65873072Y-76464900D01*
X65920691Y-76560138D01*
X65920691Y-76798233D01*
X65873072Y-76893471D01*
X65825453Y-76941090D01*
X65730215Y-76988709D01*
X65444501Y-76988709D01*
X65349263Y-76941090D01*
X65301644Y-76893471D01*
X53332120Y-73448709D02*
X53903548Y-73448709D01*
X53617834Y-74448709D02*
X53617834Y-73448709D01*
X54236882Y-74448709D02*
X54236882Y-73448709D01*
X54617834Y-73448709D01*
X54713072Y-73496329D01*
X54760691Y-73543948D01*
X54808310Y-73639186D01*
X54808310Y-73782043D01*
X54760691Y-73877281D01*
X54713072Y-73924900D01*
X54617834Y-73972519D01*
X54236882Y-73972519D01*
X55189263Y-73543948D02*
X55236882Y-73496329D01*
X55332120Y-73448709D01*
X55570215Y-73448709D01*
X55665453Y-73496329D01*
X55713072Y-73543948D01*
X55760691Y-73639186D01*
X55760691Y-73734424D01*
X55713072Y-73877281D01*
X55141644Y-74448709D01*
X55760691Y-74448709D01*
X63492120Y-73448709D02*
X64063548Y-73448709D01*
X63777834Y-74448709D02*
X63777834Y-73448709D01*
X64396882Y-74448709D02*
X64396882Y-73448709D01*
X64777834Y-73448709D01*
X64873072Y-73496329D01*
X64920691Y-73543948D01*
X64968310Y-73639186D01*
X64968310Y-73782043D01*
X64920691Y-73877281D01*
X64873072Y-73924900D01*
X64777834Y-73972519D01*
X64396882Y-73972519D01*
X65920691Y-74448709D02*
X65349263Y-74448709D01*
X65634977Y-74448709D02*
X65634977Y-73448709D01*
X65539739Y-73591567D01*
X65444501Y-73686805D01*
X65349263Y-73734424D01*
X89082596Y-98054900D02*
X88749263Y-98054900D01*
X88749263Y-98578709D02*
X88749263Y-97578709D01*
X89225453Y-97578709D01*
X89606405Y-98578709D02*
X89606405Y-97578709D01*
X90082596Y-98578709D02*
X90082596Y-97578709D01*
X90320691Y-97578709D01*
X90463548Y-97626329D01*
X90558786Y-97721567D01*
X90606405Y-97816805D01*
X90654025Y-98007281D01*
X90654025Y-98150138D01*
X90606405Y-98340614D01*
X90558786Y-98435852D01*
X90463548Y-98531090D01*
X90320691Y-98578709D01*
X90082596Y-98578709D01*
X91034977Y-97673948D02*
X91082596Y-97626329D01*
X91177834Y-97578709D01*
X91415929Y-97578709D01*
X91511167Y-97626329D01*
X91558786Y-97673948D01*
X91606405Y-97769186D01*
X91606405Y-97864424D01*
X91558786Y-98007281D01*
X90987358Y-98578709D01*
X91606405Y-98578709D01*
X30648091Y-33408311D02*
X30314758Y-33408311D01*
X30314758Y-33932120D02*
X30314758Y-32932120D01*
X30790948Y-32932120D01*
X31171900Y-33932120D02*
X31171900Y-32932120D01*
X31648091Y-33932120D02*
X31648091Y-32932120D01*
X31886186Y-32932120D01*
X32029043Y-32979740D01*
X32124281Y-33074978D01*
X32171900Y-33170216D01*
X32219520Y-33360692D01*
X32219520Y-33503549D01*
X32171900Y-33694025D01*
X32124281Y-33789263D01*
X32029043Y-33884501D01*
X31886186Y-33932120D01*
X31648091Y-33932120D01*
X33171900Y-33932120D02*
X32600472Y-33932120D01*
X32886186Y-33932120D02*
X32886186Y-32932120D01*
X32790948Y-33074978D01*
X32695710Y-33170216D01*
X32600472Y-33217835D01*
X69318310Y-58208709D02*
X69889739Y-58208709D01*
X69604025Y-59208709D02*
X69604025Y-58208709D01*
X70556405Y-58684900D02*
X70699263Y-58732519D01*
X70746882Y-58780138D01*
X70794501Y-58875376D01*
X70794501Y-59018233D01*
X70746882Y-59113471D01*
X70699263Y-59161090D01*
X70604025Y-59208709D01*
X70223072Y-59208709D01*
X70223072Y-58208709D01*
X70556405Y-58208709D01*
X70651644Y-58256329D01*
X70699263Y-58303948D01*
X70746882Y-58399186D01*
X70746882Y-58494424D01*
X70699263Y-58589662D01*
X70651644Y-58637281D01*
X70556405Y-58684900D01*
X70223072Y-58684900D01*
X71223072Y-58208709D02*
X71223072Y-59018233D01*
X71270691Y-59113471D01*
X71318310Y-59161090D01*
X71413548Y-59208709D01*
X71604025Y-59208709D01*
X71699263Y-59161090D01*
X71746882Y-59113471D01*
X71794501Y-59018233D01*
X71794501Y-58208709D01*
X72794501Y-59208709D02*
X72223072Y-59208709D01*
X72508786Y-59208709D02*
X72508786Y-58208709D01*
X72413548Y-58351567D01*
X72318310Y-58446805D01*
X72223072Y-58494424D01*
X59071167Y-85878709D02*
X58594977Y-85878709D01*
X58594977Y-84878709D01*
X59356882Y-85831090D02*
X59499739Y-85878709D01*
X59737834Y-85878709D01*
X59833072Y-85831090D01*
X59880691Y-85783471D01*
X59928310Y-85688233D01*
X59928310Y-85592995D01*
X59880691Y-85497757D01*
X59833072Y-85450138D01*
X59737834Y-85402519D01*
X59547358Y-85354900D01*
X59452120Y-85307281D01*
X59404501Y-85259662D01*
X59356882Y-85164424D01*
X59356882Y-85069186D01*
X59404501Y-84973948D01*
X59452120Y-84926329D01*
X59547358Y-84878709D01*
X59785453Y-84878709D01*
X59928310Y-84926329D01*
X60880691Y-85878709D02*
X60309263Y-85878709D01*
X60594977Y-85878709D02*
X60594977Y-84878709D01*
X60499739Y-85021567D01*
X60404501Y-85116805D01*
X60309263Y-85164424D01*
X57245453Y-98517281D02*
X57245453Y-97755376D01*
X57626405Y-98136329D02*
X56864501Y-98136329D01*
X74771405Y-74615376D02*
X74295215Y-74948709D01*
X74771405Y-75186805D02*
X73771405Y-75186805D01*
X73771405Y-74805852D01*
X73819025Y-74710614D01*
X73866644Y-74662995D01*
X73961882Y-74615376D01*
X74104739Y-74615376D01*
X74199977Y-74662995D01*
X74247596Y-74710614D01*
X74295215Y-74805852D01*
X74295215Y-75186805D01*
X74771405Y-73758233D02*
X74247596Y-73758233D01*
X74152358Y-73805852D01*
X74104739Y-73901090D01*
X74104739Y-74091567D01*
X74152358Y-74186805D01*
X74723786Y-73758233D02*
X74771405Y-73853471D01*
X74771405Y-74091567D01*
X74723786Y-74186805D01*
X74628548Y-74234424D01*
X74533310Y-74234424D01*
X74438072Y-74186805D01*
X74390453Y-74091567D01*
X74390453Y-73853471D01*
X74342834Y-73758233D01*
X74771405Y-72758233D02*
X74771405Y-73329662D01*
X74771405Y-73043948D02*
X73771405Y-73043948D01*
X73914263Y-73139186D01*
X74009501Y-73234424D01*
X74057120Y-73329662D01*
X70961405Y-74615376D02*
X70485215Y-74948709D01*
X70961405Y-75186805D02*
X69961405Y-75186805D01*
X69961405Y-74805852D01*
X70009025Y-74710614D01*
X70056644Y-74662995D01*
X70151882Y-74615376D01*
X70294739Y-74615376D01*
X70389977Y-74662995D01*
X70437596Y-74710614D01*
X70485215Y-74805852D01*
X70485215Y-75186805D01*
X70961405Y-74186805D02*
X69961405Y-74186805D01*
X70342358Y-74186805D02*
X70294739Y-74091567D01*
X70294739Y-73901090D01*
X70342358Y-73805852D01*
X70389977Y-73758233D01*
X70485215Y-73710614D01*
X70770929Y-73710614D01*
X70866167Y-73758233D01*
X70913786Y-73805852D01*
X70961405Y-73901090D01*
X70961405Y-74091567D01*
X70913786Y-74186805D01*
X70961405Y-72758233D02*
X70961405Y-73329662D01*
X70961405Y-73043948D02*
X69961405Y-73043948D01*
X70104263Y-73139186D01*
X70199501Y-73234424D01*
X70247120Y-73329662D01*
X70437596Y-99340614D02*
X70485215Y-99197757D01*
X70532834Y-99150138D01*
X70628072Y-99102519D01*
X70770929Y-99102519D01*
X70866167Y-99150138D01*
X70913786Y-99197757D01*
X70961405Y-99292995D01*
X70961405Y-99673948D01*
X69961405Y-99673948D01*
X69961405Y-99340614D01*
X70009025Y-99245376D01*
X70056644Y-99197757D01*
X70151882Y-99150138D01*
X70247120Y-99150138D01*
X70342358Y-99197757D01*
X70389977Y-99245376D01*
X70437596Y-99340614D01*
X70437596Y-99673948D01*
X70675691Y-98721567D02*
X70675691Y-98245376D01*
X70961405Y-98816805D02*
X69961405Y-98483471D01*
X70961405Y-98150138D01*
X69961405Y-97959662D02*
X69961405Y-97388233D01*
X70961405Y-97673948D02*
X69961405Y-97673948D01*
X70961405Y-96531090D02*
X70961405Y-97102519D01*
X70961405Y-96816805D02*
X69961405Y-96816805D01*
X70104263Y-96912043D01*
X70199501Y-97007281D01*
X70247120Y-97102519D01*
X65246405Y-57335376D02*
X64770215Y-57668709D01*
X65246405Y-57906805D02*
X64246405Y-57906805D01*
X64246405Y-57525852D01*
X64294025Y-57430614D01*
X64341644Y-57382995D01*
X64436882Y-57335376D01*
X64579739Y-57335376D01*
X64674977Y-57382995D01*
X64722596Y-57430614D01*
X64770215Y-57525852D01*
X64770215Y-57906805D01*
X64722596Y-56906805D02*
X64722596Y-56573471D01*
X65246405Y-56430614D02*
X65246405Y-56906805D01*
X64246405Y-56906805D01*
X64246405Y-56430614D01*
X65246405Y-56002043D02*
X64246405Y-56002043D01*
X64246405Y-55763948D01*
X64294025Y-55621090D01*
X64389263Y-55525852D01*
X64484501Y-55478233D01*
X64674977Y-55430614D01*
X64817834Y-55430614D01*
X65008310Y-55478233D01*
X65103548Y-55525852D01*
X65198786Y-55621090D01*
X65246405Y-55763948D01*
X65246405Y-56002043D01*
X64341644Y-55049662D02*
X64294025Y-55002043D01*
X64246405Y-54906805D01*
X64246405Y-54668709D01*
X64294025Y-54573471D01*
X64341644Y-54525852D01*
X64436882Y-54478233D01*
X64532120Y-54478233D01*
X64674977Y-54525852D01*
X65246405Y-55097281D01*
X65246405Y-54478233D01*
X87865164Y-89829894D02*
X87865164Y-88829894D01*
X87865164Y-89306085D02*
X88436592Y-89306085D01*
X88436592Y-89829894D02*
X88436592Y-88829894D01*
X89341354Y-89163228D02*
X89341354Y-89829894D01*
X89103259Y-88782275D02*
X88865164Y-89496561D01*
X89484211Y-89496561D01*
X87293331Y-49829891D02*
X87293331Y-48829891D01*
X87293331Y-49306082D02*
X87864759Y-49306082D01*
X87864759Y-49829891D02*
X87864759Y-48829891D01*
X88245712Y-48829891D02*
X88864759Y-48829891D01*
X88531426Y-49210844D01*
X88674283Y-49210844D01*
X88769521Y-49258463D01*
X88817140Y-49306082D01*
X88864759Y-49401320D01*
X88864759Y-49639415D01*
X88817140Y-49734653D01*
X88769521Y-49782272D01*
X88674283Y-49829891D01*
X88388569Y-49829891D01*
X88293331Y-49782272D01*
X88245712Y-49734653D01*
X30039165Y-89829653D02*
X30039165Y-88829653D01*
X30039165Y-89305844D02*
X30610593Y-89305844D01*
X30610593Y-89829653D02*
X30610593Y-88829653D01*
X31039165Y-88924892D02*
X31086784Y-88877273D01*
X31182022Y-88829653D01*
X31420117Y-88829653D01*
X31515355Y-88877273D01*
X31562974Y-88924892D01*
X31610593Y-89020130D01*
X31610593Y-89115368D01*
X31562974Y-89258225D01*
X30991546Y-89829653D01*
X31610593Y-89829653D01*
X30611332Y-49829655D02*
X30611332Y-48829655D01*
X30611332Y-49305846D02*
X31182760Y-49305846D01*
X31182760Y-49829655D02*
X31182760Y-48829655D01*
X32182760Y-49829655D02*
X31611332Y-49829655D01*
X31897046Y-49829655D02*
X31897046Y-48829655D01*
X31801808Y-48972513D01*
X31706570Y-49067751D01*
X31611332Y-49115370D01*
X66516405Y-34475376D02*
X66040215Y-34808709D01*
X66516405Y-35046805D02*
X65516405Y-35046805D01*
X65516405Y-34665852D01*
X65564025Y-34570614D01*
X65611644Y-34522995D01*
X65706882Y-34475376D01*
X65849739Y-34475376D01*
X65944977Y-34522995D01*
X65992596Y-34570614D01*
X66040215Y-34665852D01*
X66040215Y-35046805D01*
X65992596Y-34046805D02*
X65992596Y-33713471D01*
X66516405Y-33570614D02*
X66516405Y-34046805D01*
X65516405Y-34046805D01*
X65516405Y-33570614D01*
X66516405Y-33142043D02*
X65516405Y-33142043D01*
X65516405Y-32903948D01*
X65564025Y-32761090D01*
X65659263Y-32665852D01*
X65754501Y-32618233D01*
X65944977Y-32570614D01*
X66087834Y-32570614D01*
X66278310Y-32618233D01*
X66373548Y-32665852D01*
X66468786Y-32761090D01*
X66516405Y-32903948D01*
X66516405Y-33142043D01*
X66516405Y-31618233D02*
X66516405Y-32189662D01*
X66516405Y-31903948D02*
X65516405Y-31903948D01*
X65659263Y-31999186D01*
X65754501Y-32094424D01*
X65802120Y-32189662D01*
X51927358Y-70543471D02*
X51879739Y-70591090D01*
X51736882Y-70638709D01*
X51641644Y-70638709D01*
X51498786Y-70591090D01*
X51403548Y-70495852D01*
X51355929Y-70400614D01*
X51308310Y-70210138D01*
X51308310Y-70067281D01*
X51355929Y-69876805D01*
X51403548Y-69781567D01*
X51498786Y-69686329D01*
X51641644Y-69638709D01*
X51736882Y-69638709D01*
X51879739Y-69686329D01*
X51927358Y-69733948D01*
X52308310Y-69733948D02*
X52355929Y-69686329D01*
X52451167Y-69638709D01*
X52689263Y-69638709D01*
X52784501Y-69686329D01*
X52832120Y-69733948D01*
X52879739Y-69829186D01*
X52879739Y-69924424D01*
X52832120Y-70067281D01*
X52260691Y-70638709D01*
X52879739Y-70638709D01*
X39187358Y-75623471D02*
X39139739Y-75671090D01*
X38996882Y-75718709D01*
X38901644Y-75718709D01*
X38758786Y-75671090D01*
X38663548Y-75575852D01*
X38615929Y-75480614D01*
X38568310Y-75290138D01*
X38568310Y-75147281D01*
X38615929Y-74956805D01*
X38663548Y-74861567D01*
X38758786Y-74766329D01*
X38901644Y-74718709D01*
X38996882Y-74718709D01*
X39139739Y-74766329D01*
X39187358Y-74813948D01*
X40139739Y-75718709D02*
X39568310Y-75718709D01*
X39854025Y-75718709D02*
X39854025Y-74718709D01*
X39758786Y-74861567D01*
X39663548Y-74956805D01*
X39568310Y-75004424D01*
X50093786Y-88513948D02*
X49998548Y-88466329D01*
X49903310Y-88371090D01*
X49760453Y-88228233D01*
X49665215Y-88180614D01*
X49569977Y-88180614D01*
X49617596Y-88418709D02*
X49522358Y-88371090D01*
X49427120Y-88275852D01*
X49379501Y-88085376D01*
X49379501Y-87752043D01*
X49427120Y-87561567D01*
X49522358Y-87466329D01*
X49617596Y-87418709D01*
X49808072Y-87418709D01*
X49903310Y-87466329D01*
X49998548Y-87561567D01*
X50046167Y-87752043D01*
X50046167Y-88085376D01*
X49998548Y-88275852D01*
X49903310Y-88371090D01*
X49808072Y-88418709D01*
X49617596Y-88418709D01*
X50379501Y-87418709D02*
X50998548Y-87418709D01*
X50665215Y-87799662D01*
X50808072Y-87799662D01*
X50903310Y-87847281D01*
X50950929Y-87894900D01*
X50998548Y-87990138D01*
X50998548Y-88228233D01*
X50950929Y-88323471D01*
X50903310Y-88371090D01*
X50808072Y-88418709D01*
X50522358Y-88418709D01*
X50427120Y-88371090D01*
X50379501Y-88323471D01*
X38116167Y-63018709D02*
X37782834Y-62542519D01*
X37544739Y-63018709D02*
X37544739Y-62018709D01*
X37925691Y-62018709D01*
X38020929Y-62066329D01*
X38068548Y-62113948D01*
X38116167Y-62209186D01*
X38116167Y-62352043D01*
X38068548Y-62447281D01*
X38020929Y-62494900D01*
X37925691Y-62542519D01*
X37544739Y-62542519D01*
X39068548Y-63018709D02*
X38497120Y-63018709D01*
X38782834Y-63018709D02*
X38782834Y-62018709D01*
X38687596Y-62161567D01*
X38592358Y-62256805D01*
X38497120Y-62304424D01*
X39401882Y-62018709D02*
X40020929Y-62018709D01*
X39687596Y-62399662D01*
X39830453Y-62399662D01*
X39925691Y-62447281D01*
X39973310Y-62494900D01*
X40020929Y-62590138D01*
X40020929Y-62828233D01*
X39973310Y-62923471D01*
X39925691Y-62971090D01*
X39830453Y-63018709D01*
X39544739Y-63018709D01*
X39449501Y-62971090D01*
X39401882Y-62923471D01*
X53197358Y-63018709D02*
X52864025Y-62542519D01*
X52625929Y-63018709D02*
X52625929Y-62018709D01*
X53006882Y-62018709D01*
X53102120Y-62066329D01*
X53149739Y-62113948D01*
X53197358Y-62209186D01*
X53197358Y-62352043D01*
X53149739Y-62447281D01*
X53102120Y-62494900D01*
X53006882Y-62542519D01*
X52625929Y-62542519D01*
X53673548Y-63018709D02*
X53864025Y-63018709D01*
X53959263Y-62971090D01*
X54006882Y-62923471D01*
X54102120Y-62780614D01*
X54149739Y-62590138D01*
X54149739Y-62209186D01*
X54102120Y-62113948D01*
X54054501Y-62066329D01*
X53959263Y-62018709D01*
X53768786Y-62018709D01*
X53673548Y-62066329D01*
X53625929Y-62113948D01*
X53578310Y-62209186D01*
X53578310Y-62447281D01*
X53625929Y-62542519D01*
X53673548Y-62590138D01*
X53768786Y-62637757D01*
X53959263Y-62637757D01*
X54054501Y-62590138D01*
X54102120Y-62542519D01*
X54149739Y-62447281D01*
X44992120Y-71818709D02*
X44992120Y-72628233D01*
X45039739Y-72723471D01*
X45087358Y-72771090D01*
X45182596Y-72818709D01*
X45373072Y-72818709D01*
X45468310Y-72771090D01*
X45515929Y-72723471D01*
X45563548Y-72628233D01*
X45563548Y-71818709D01*
X46563548Y-72818709D02*
X45992120Y-72818709D01*
X46277834Y-72818709D02*
X46277834Y-71818709D01*
X46182596Y-71961567D01*
X46087358Y-72056805D01*
X45992120Y-72104424D01*
X37441167Y-80798709D02*
X37107834Y-80322519D01*
X36869739Y-80798709D02*
X36869739Y-79798709D01*
X37250691Y-79798709D01*
X37345929Y-79846329D01*
X37393548Y-79893948D01*
X37441167Y-79989186D01*
X37441167Y-80132043D01*
X37393548Y-80227281D01*
X37345929Y-80274900D01*
X37250691Y-80322519D01*
X36869739Y-80322519D01*
X38393548Y-80798709D02*
X37822120Y-80798709D01*
X38107834Y-80798709D02*
X38107834Y-79798709D01*
X38012596Y-79941567D01*
X37917358Y-80036805D01*
X37822120Y-80084424D01*
X38774501Y-79893948D02*
X38822120Y-79846329D01*
X38917358Y-79798709D01*
X39155453Y-79798709D01*
X39250691Y-79846329D01*
X39298310Y-79893948D01*
X39345929Y-79989186D01*
X39345929Y-80084424D01*
X39298310Y-80227281D01*
X38726882Y-80798709D01*
X39345929Y-80798709D01*
X51411167Y-75718709D02*
X51077834Y-75242519D01*
X50839739Y-75718709D02*
X50839739Y-74718709D01*
X51220691Y-74718709D01*
X51315929Y-74766329D01*
X51363548Y-74813948D01*
X51411167Y-74909186D01*
X51411167Y-75052043D01*
X51363548Y-75147281D01*
X51315929Y-75194900D01*
X51220691Y-75242519D01*
X50839739Y-75242519D01*
X52363548Y-75718709D02*
X51792120Y-75718709D01*
X52077834Y-75718709D02*
X52077834Y-74718709D01*
X51982596Y-74861567D01*
X51887358Y-74956805D01*
X51792120Y-75004424D01*
X53315929Y-75718709D02*
X52744501Y-75718709D01*
X53030215Y-75718709D02*
X53030215Y-74718709D01*
X52934977Y-74861567D01*
X52839739Y-74956805D01*
X52744501Y-75004424D01*
X36171167Y-70638709D02*
X35837834Y-70162519D01*
X35599739Y-70638709D02*
X35599739Y-69638709D01*
X35980691Y-69638709D01*
X36075929Y-69686329D01*
X36123548Y-69733948D01*
X36171167Y-69829186D01*
X36171167Y-69972043D01*
X36123548Y-70067281D01*
X36075929Y-70114900D01*
X35980691Y-70162519D01*
X35599739Y-70162519D01*
X37123548Y-70638709D02*
X36552120Y-70638709D01*
X36837834Y-70638709D02*
X36837834Y-69638709D01*
X36742596Y-69781567D01*
X36647358Y-69876805D01*
X36552120Y-69924424D01*
X37742596Y-69638709D02*
X37837834Y-69638709D01*
X37933072Y-69686329D01*
X37980691Y-69733948D01*
X38028310Y-69829186D01*
X38075929Y-70019662D01*
X38075929Y-70257757D01*
X38028310Y-70448233D01*
X37980691Y-70543471D01*
X37933072Y-70591090D01*
X37837834Y-70638709D01*
X37742596Y-70638709D01*
X37647358Y-70591090D01*
X37599739Y-70543471D01*
X37552120Y-70448233D01*
X37504501Y-70257757D01*
X37504501Y-70019662D01*
X37552120Y-69829186D01*
X37599739Y-69733948D01*
X37647358Y-69686329D01*
X37742596Y-69638709D01*
X51887358Y-80798709D02*
X51554025Y-80322519D01*
X51315929Y-80798709D02*
X51315929Y-79798709D01*
X51696882Y-79798709D01*
X51792120Y-79846329D01*
X51839739Y-79893948D01*
X51887358Y-79989186D01*
X51887358Y-80132043D01*
X51839739Y-80227281D01*
X51792120Y-80274900D01*
X51696882Y-80322519D01*
X51315929Y-80322519D01*
X52458786Y-80227281D02*
X52363548Y-80179662D01*
X52315929Y-80132043D01*
X52268310Y-80036805D01*
X52268310Y-79989186D01*
X52315929Y-79893948D01*
X52363548Y-79846329D01*
X52458786Y-79798709D01*
X52649263Y-79798709D01*
X52744501Y-79846329D01*
X52792120Y-79893948D01*
X52839739Y-79989186D01*
X52839739Y-80036805D01*
X52792120Y-80132043D01*
X52744501Y-80179662D01*
X52649263Y-80227281D01*
X52458786Y-80227281D01*
X52363548Y-80274900D01*
X52315929Y-80322519D01*
X52268310Y-80417757D01*
X52268310Y-80608233D01*
X52315929Y-80703471D01*
X52363548Y-80751090D01*
X52458786Y-80798709D01*
X52649263Y-80798709D01*
X52744501Y-80751090D01*
X52792120Y-80703471D01*
X52839739Y-80608233D01*
X52839739Y-80417757D01*
X52792120Y-80322519D01*
X52744501Y-80274900D01*
X52649263Y-80227281D01*
X38637358Y-83338709D02*
X38304025Y-82862519D01*
X38065929Y-83338709D02*
X38065929Y-82338709D01*
X38446882Y-82338709D01*
X38542120Y-82386329D01*
X38589739Y-82433948D01*
X38637358Y-82529186D01*
X38637358Y-82672043D01*
X38589739Y-82767281D01*
X38542120Y-82814900D01*
X38446882Y-82862519D01*
X38065929Y-82862519D01*
X38970691Y-82338709D02*
X39637358Y-82338709D01*
X39208786Y-83338709D01*
X81137358Y-90958709D02*
X80804025Y-90482519D01*
X80565929Y-90958709D02*
X80565929Y-89958709D01*
X80946882Y-89958709D01*
X81042120Y-90006329D01*
X81089739Y-90053948D01*
X81137358Y-90149186D01*
X81137358Y-90292043D01*
X81089739Y-90387281D01*
X81042120Y-90434900D01*
X80946882Y-90482519D01*
X80565929Y-90482519D01*
X81994501Y-89958709D02*
X81804025Y-89958709D01*
X81708786Y-90006329D01*
X81661167Y-90053948D01*
X81565929Y-90196805D01*
X81518310Y-90387281D01*
X81518310Y-90768233D01*
X81565929Y-90863471D01*
X81613548Y-90911090D01*
X81708786Y-90958709D01*
X81899263Y-90958709D01*
X81994501Y-90911090D01*
X82042120Y-90863471D01*
X82089739Y-90768233D01*
X82089739Y-90530138D01*
X82042120Y-90434900D01*
X81994501Y-90387281D01*
X81899263Y-90339662D01*
X81708786Y-90339662D01*
X81613548Y-90387281D01*
X81565929Y-90434900D01*
X81518310Y-90530138D01*
X50657358Y-56668709D02*
X50324025Y-56192519D01*
X50085929Y-56668709D02*
X50085929Y-55668709D01*
X50466882Y-55668709D01*
X50562120Y-55716329D01*
X50609739Y-55763948D01*
X50657358Y-55859186D01*
X50657358Y-56002043D01*
X50609739Y-56097281D01*
X50562120Y-56144900D01*
X50466882Y-56192519D01*
X50085929Y-56192519D01*
X51562120Y-55668709D02*
X51085929Y-55668709D01*
X51038310Y-56144900D01*
X51085929Y-56097281D01*
X51181167Y-56049662D01*
X51419263Y-56049662D01*
X51514501Y-56097281D01*
X51562120Y-56144900D01*
X51609739Y-56240138D01*
X51609739Y-56478233D01*
X51562120Y-56573471D01*
X51514501Y-56621090D01*
X51419263Y-56668709D01*
X51181167Y-56668709D01*
X51085929Y-56621090D01*
X51038310Y-56573471D01*
X80995383Y-79528709D02*
X80662050Y-79052519D01*
X80423954Y-79528709D02*
X80423954Y-78528709D01*
X80804907Y-78528709D01*
X80900145Y-78576329D01*
X80947764Y-78623948D01*
X80995383Y-78719186D01*
X80995383Y-78862043D01*
X80947764Y-78957281D01*
X80900145Y-79004900D01*
X80804907Y-79052519D01*
X80423954Y-79052519D01*
X81852526Y-78862043D02*
X81852526Y-79528709D01*
X81614430Y-78481090D02*
X81376335Y-79195376D01*
X81995383Y-79195376D01*
X68397358Y-85878709D02*
X68064025Y-85402519D01*
X67825929Y-85878709D02*
X67825929Y-84878709D01*
X68206882Y-84878709D01*
X68302120Y-84926329D01*
X68349739Y-84973948D01*
X68397358Y-85069186D01*
X68397358Y-85212043D01*
X68349739Y-85307281D01*
X68302120Y-85354900D01*
X68206882Y-85402519D01*
X67825929Y-85402519D01*
X68730691Y-84878709D02*
X69349739Y-84878709D01*
X69016405Y-85259662D01*
X69159263Y-85259662D01*
X69254501Y-85307281D01*
X69302120Y-85354900D01*
X69349739Y-85450138D01*
X69349739Y-85688233D01*
X69302120Y-85783471D01*
X69254501Y-85831090D01*
X69159263Y-85878709D01*
X68873548Y-85878709D01*
X68778310Y-85831090D01*
X68730691Y-85783471D01*
X68397358Y-83338709D02*
X68064025Y-82862519D01*
X67825929Y-83338709D02*
X67825929Y-82338709D01*
X68206882Y-82338709D01*
X68302120Y-82386329D01*
X68349739Y-82433948D01*
X68397358Y-82529186D01*
X68397358Y-82672043D01*
X68349739Y-82767281D01*
X68302120Y-82814900D01*
X68206882Y-82862519D01*
X67825929Y-82862519D01*
X68778310Y-82433948D02*
X68825929Y-82386329D01*
X68921167Y-82338709D01*
X69159263Y-82338709D01*
X69254501Y-82386329D01*
X69302120Y-82433948D01*
X69349739Y-82529186D01*
X69349739Y-82624424D01*
X69302120Y-82767281D01*
X68730691Y-83338709D01*
X69349739Y-83338709D01*
X68508786Y-91053948D02*
X68413548Y-91006329D01*
X68318310Y-90911090D01*
X68175453Y-90768233D01*
X68080215Y-90720614D01*
X67984977Y-90720614D01*
X68032596Y-90958709D02*
X67937358Y-90911090D01*
X67842120Y-90815852D01*
X67794501Y-90625376D01*
X67794501Y-90292043D01*
X67842120Y-90101567D01*
X67937358Y-90006329D01*
X68032596Y-89958709D01*
X68223072Y-89958709D01*
X68318310Y-90006329D01*
X68413548Y-90101567D01*
X68461167Y-90292043D01*
X68461167Y-90625376D01*
X68413548Y-90815852D01*
X68318310Y-90911090D01*
X68223072Y-90958709D01*
X68032596Y-90958709D01*
X68842120Y-90053948D02*
X68889739Y-90006329D01*
X68984977Y-89958709D01*
X69223072Y-89958709D01*
X69318310Y-90006329D01*
X69365929Y-90053948D01*
X69413548Y-90149186D01*
X69413548Y-90244424D01*
X69365929Y-90387281D01*
X68794501Y-90958709D01*
X69413548Y-90958709D01*
X68468786Y-78353948D02*
X68373548Y-78306329D01*
X68278310Y-78211090D01*
X68135453Y-78068233D01*
X68040215Y-78020614D01*
X67944977Y-78020614D01*
X67992596Y-78258709D02*
X67897358Y-78211090D01*
X67802120Y-78115852D01*
X67754501Y-77925376D01*
X67754501Y-77592043D01*
X67802120Y-77401567D01*
X67897358Y-77306329D01*
X67992596Y-77258709D01*
X68183072Y-77258709D01*
X68278310Y-77306329D01*
X68373548Y-77401567D01*
X68421167Y-77592043D01*
X68421167Y-77925376D01*
X68373548Y-78115852D01*
X68278310Y-78211090D01*
X68183072Y-78258709D01*
X67992596Y-78258709D01*
X69373548Y-78258709D02*
X68802120Y-78258709D01*
X69087834Y-78258709D02*
X69087834Y-77258709D01*
X68992596Y-77401567D01*
X68897358Y-77496805D01*
X68802120Y-77544424D01*
X36075929Y-68098709D02*
X36075929Y-67098709D01*
X36314025Y-67098709D01*
X36456882Y-67146329D01*
X36552120Y-67241567D01*
X36599739Y-67336805D01*
X36647358Y-67527281D01*
X36647358Y-67670138D01*
X36599739Y-67860614D01*
X36552120Y-67955852D01*
X36456882Y-68051090D01*
X36314025Y-68098709D01*
X36075929Y-68098709D01*
X37504501Y-67432043D02*
X37504501Y-68098709D01*
X37266405Y-67051090D02*
X37028310Y-67765376D01*
X37647358Y-67765376D01*
X51355929Y-68098709D02*
X51355929Y-67098709D01*
X51594025Y-67098709D01*
X51736882Y-67146329D01*
X51832120Y-67241567D01*
X51879739Y-67336805D01*
X51927358Y-67527281D01*
X51927358Y-67670138D01*
X51879739Y-67860614D01*
X51832120Y-67955852D01*
X51736882Y-68051090D01*
X51594025Y-68098709D01*
X51355929Y-68098709D01*
X52260691Y-67098709D02*
X52879739Y-67098709D01*
X52546405Y-67479662D01*
X52689263Y-67479662D01*
X52784501Y-67527281D01*
X52832120Y-67574900D01*
X52879739Y-67670138D01*
X52879739Y-67908233D01*
X52832120Y-68003471D01*
X52784501Y-68051090D01*
X52689263Y-68098709D01*
X52403548Y-68098709D01*
X52308310Y-68051090D01*
X52260691Y-68003471D01*
X81795929Y-69368709D02*
X81795929Y-68368709D01*
X82034025Y-68368709D01*
X82176882Y-68416329D01*
X82272120Y-68511567D01*
X82319739Y-68606805D01*
X82367358Y-68797281D01*
X82367358Y-68940138D01*
X82319739Y-69130614D01*
X82272120Y-69225852D01*
X82176882Y-69321090D01*
X82034025Y-69368709D01*
X81795929Y-69368709D01*
X82748310Y-68463948D02*
X82795929Y-68416329D01*
X82891167Y-68368709D01*
X83129263Y-68368709D01*
X83224501Y-68416329D01*
X83272120Y-68463948D01*
X83319739Y-68559186D01*
X83319739Y-68654424D01*
X83272120Y-68797281D01*
X82700691Y-69368709D01*
X83319739Y-69368709D01*
M02*
