%TF.GenerationSoftware,KiCad,Pcbnew,(5.1.5)-3*%
%TF.CreationDate,2020-08-07T17:04:35+02:00*%
%TF.ProjectId,continuity,636f6e74-696e-4756-9974-792e6b696361,rev?*%
%TF.SameCoordinates,Original*%
%TF.FileFunction,Copper,L2,Bot*%
%TF.FilePolarity,Positive*%
%FSLAX46Y46*%
G04 Gerber Fmt 4.6, Leading zero omitted, Abs format (unit mm)*
G04 Created by KiCad (PCBNEW (5.1.5)-3) date 2020-08-07 17:04:35*
%MOMM*%
%LPD*%
G04 APERTURE LIST*
%ADD10O,2.000000X1.700000*%
%ADD11C,0.100000*%
%ADD12R,1.000000X1.000000*%
%ADD13C,2.000000*%
%ADD14R,2.000000X2.000000*%
%ADD15C,1.200000*%
%ADD16C,1.000000*%
%ADD17C,0.254000*%
G04 APERTURE END LIST*
D10*
X59674025Y-63876329D03*
%TA.AperFunction,ComponentPad*%
D11*
G36*
X60448529Y-65527533D02*
G01*
X60472798Y-65531133D01*
X60496596Y-65537094D01*
X60519696Y-65545359D01*
X60541874Y-65555849D01*
X60562918Y-65568462D01*
X60582623Y-65583076D01*
X60600802Y-65599552D01*
X60617278Y-65617731D01*
X60631892Y-65637436D01*
X60644505Y-65658480D01*
X60654995Y-65680658D01*
X60663260Y-65703758D01*
X60669221Y-65727556D01*
X60672821Y-65751825D01*
X60674025Y-65776329D01*
X60674025Y-66976329D01*
X60672821Y-67000833D01*
X60669221Y-67025102D01*
X60663260Y-67048900D01*
X60654995Y-67072000D01*
X60644505Y-67094178D01*
X60631892Y-67115222D01*
X60617278Y-67134927D01*
X60600802Y-67153106D01*
X60582623Y-67169582D01*
X60562918Y-67184196D01*
X60541874Y-67196809D01*
X60519696Y-67207299D01*
X60496596Y-67215564D01*
X60472798Y-67221525D01*
X60448529Y-67225125D01*
X60424025Y-67226329D01*
X58924025Y-67226329D01*
X58899521Y-67225125D01*
X58875252Y-67221525D01*
X58851454Y-67215564D01*
X58828354Y-67207299D01*
X58806176Y-67196809D01*
X58785132Y-67184196D01*
X58765427Y-67169582D01*
X58747248Y-67153106D01*
X58730772Y-67134927D01*
X58716158Y-67115222D01*
X58703545Y-67094178D01*
X58693055Y-67072000D01*
X58684790Y-67048900D01*
X58678829Y-67025102D01*
X58675229Y-67000833D01*
X58674025Y-66976329D01*
X58674025Y-65776329D01*
X58675229Y-65751825D01*
X58678829Y-65727556D01*
X58684790Y-65703758D01*
X58693055Y-65680658D01*
X58703545Y-65658480D01*
X58716158Y-65637436D01*
X58730772Y-65617731D01*
X58747248Y-65599552D01*
X58765427Y-65583076D01*
X58785132Y-65568462D01*
X58806176Y-65555849D01*
X58828354Y-65545359D01*
X58851454Y-65537094D01*
X58875252Y-65531133D01*
X58899521Y-65527533D01*
X58924025Y-65526329D01*
X60424025Y-65526329D01*
X60448529Y-65527533D01*
G37*
%TD.AperFunction*%
D10*
X43839025Y-99356329D03*
%TA.AperFunction,ComponentPad*%
D11*
G36*
X44613529Y-96007533D02*
G01*
X44637798Y-96011133D01*
X44661596Y-96017094D01*
X44684696Y-96025359D01*
X44706874Y-96035849D01*
X44727918Y-96048462D01*
X44747623Y-96063076D01*
X44765802Y-96079552D01*
X44782278Y-96097731D01*
X44796892Y-96117436D01*
X44809505Y-96138480D01*
X44819995Y-96160658D01*
X44828260Y-96183758D01*
X44834221Y-96207556D01*
X44837821Y-96231825D01*
X44839025Y-96256329D01*
X44839025Y-97456329D01*
X44837821Y-97480833D01*
X44834221Y-97505102D01*
X44828260Y-97528900D01*
X44819995Y-97552000D01*
X44809505Y-97574178D01*
X44796892Y-97595222D01*
X44782278Y-97614927D01*
X44765802Y-97633106D01*
X44747623Y-97649582D01*
X44727918Y-97664196D01*
X44706874Y-97676809D01*
X44684696Y-97687299D01*
X44661596Y-97695564D01*
X44637798Y-97701525D01*
X44613529Y-97705125D01*
X44589025Y-97706329D01*
X43089025Y-97706329D01*
X43064521Y-97705125D01*
X43040252Y-97701525D01*
X43016454Y-97695564D01*
X42993354Y-97687299D01*
X42971176Y-97676809D01*
X42950132Y-97664196D01*
X42930427Y-97649582D01*
X42912248Y-97633106D01*
X42895772Y-97614927D01*
X42881158Y-97595222D01*
X42868545Y-97574178D01*
X42858055Y-97552000D01*
X42849790Y-97528900D01*
X42843829Y-97505102D01*
X42840229Y-97480833D01*
X42839025Y-97456329D01*
X42839025Y-96256329D01*
X42840229Y-96231825D01*
X42843829Y-96207556D01*
X42849790Y-96183758D01*
X42858055Y-96160658D01*
X42868545Y-96138480D01*
X42881158Y-96117436D01*
X42895772Y-96097731D01*
X42912248Y-96079552D01*
X42930427Y-96063076D01*
X42950132Y-96048462D01*
X42971176Y-96035849D01*
X42993354Y-96025359D01*
X43016454Y-96017094D01*
X43040252Y-96011133D01*
X43064521Y-96007533D01*
X43089025Y-96006329D01*
X44589025Y-96006329D01*
X44613529Y-96007533D01*
G37*
%TD.AperFunction*%
D10*
X59674025Y-46056329D03*
%TA.AperFunction,ComponentPad*%
D11*
G36*
X60448529Y-47707533D02*
G01*
X60472798Y-47711133D01*
X60496596Y-47717094D01*
X60519696Y-47725359D01*
X60541874Y-47735849D01*
X60562918Y-47748462D01*
X60582623Y-47763076D01*
X60600802Y-47779552D01*
X60617278Y-47797731D01*
X60631892Y-47817436D01*
X60644505Y-47838480D01*
X60654995Y-47860658D01*
X60663260Y-47883758D01*
X60669221Y-47907556D01*
X60672821Y-47931825D01*
X60674025Y-47956329D01*
X60674025Y-49156329D01*
X60672821Y-49180833D01*
X60669221Y-49205102D01*
X60663260Y-49228900D01*
X60654995Y-49252000D01*
X60644505Y-49274178D01*
X60631892Y-49295222D01*
X60617278Y-49314927D01*
X60600802Y-49333106D01*
X60582623Y-49349582D01*
X60562918Y-49364196D01*
X60541874Y-49376809D01*
X60519696Y-49387299D01*
X60496596Y-49395564D01*
X60472798Y-49401525D01*
X60448529Y-49405125D01*
X60424025Y-49406329D01*
X58924025Y-49406329D01*
X58899521Y-49405125D01*
X58875252Y-49401525D01*
X58851454Y-49395564D01*
X58828354Y-49387299D01*
X58806176Y-49376809D01*
X58785132Y-49364196D01*
X58765427Y-49349582D01*
X58747248Y-49333106D01*
X58730772Y-49314927D01*
X58716158Y-49295222D01*
X58703545Y-49274178D01*
X58693055Y-49252000D01*
X58684790Y-49228900D01*
X58678829Y-49205102D01*
X58675229Y-49180833D01*
X58674025Y-49156329D01*
X58674025Y-47956329D01*
X58675229Y-47931825D01*
X58678829Y-47907556D01*
X58684790Y-47883758D01*
X58693055Y-47860658D01*
X58703545Y-47838480D01*
X58716158Y-47817436D01*
X58730772Y-47797731D01*
X58747248Y-47779552D01*
X58765427Y-47763076D01*
X58785132Y-47748462D01*
X58806176Y-47735849D01*
X58828354Y-47725359D01*
X58851454Y-47717094D01*
X58875252Y-47711133D01*
X58899521Y-47707533D01*
X58924025Y-47706329D01*
X60424025Y-47706329D01*
X60448529Y-47707533D01*
G37*
%TD.AperFunction*%
D12*
X57134025Y-79076329D03*
X57134025Y-81616329D03*
X62214025Y-81616329D03*
X62214025Y-79076329D03*
X57134025Y-76536329D03*
X62214025Y-76536329D03*
X57134025Y-73996329D03*
X62214025Y-73996329D03*
D13*
X59714025Y-90526329D03*
D14*
X59714025Y-98126329D03*
D10*
X75589025Y-99396329D03*
%TA.AperFunction,ComponentPad*%
D11*
G36*
X76363529Y-96047533D02*
G01*
X76387798Y-96051133D01*
X76411596Y-96057094D01*
X76434696Y-96065359D01*
X76456874Y-96075849D01*
X76477918Y-96088462D01*
X76497623Y-96103076D01*
X76515802Y-96119552D01*
X76532278Y-96137731D01*
X76546892Y-96157436D01*
X76559505Y-96178480D01*
X76569995Y-96200658D01*
X76578260Y-96223758D01*
X76584221Y-96247556D01*
X76587821Y-96271825D01*
X76589025Y-96296329D01*
X76589025Y-97496329D01*
X76587821Y-97520833D01*
X76584221Y-97545102D01*
X76578260Y-97568900D01*
X76569995Y-97592000D01*
X76559505Y-97614178D01*
X76546892Y-97635222D01*
X76532278Y-97654927D01*
X76515802Y-97673106D01*
X76497623Y-97689582D01*
X76477918Y-97704196D01*
X76456874Y-97716809D01*
X76434696Y-97727299D01*
X76411596Y-97735564D01*
X76387798Y-97741525D01*
X76363529Y-97745125D01*
X76339025Y-97746329D01*
X74839025Y-97746329D01*
X74814521Y-97745125D01*
X74790252Y-97741525D01*
X74766454Y-97735564D01*
X74743354Y-97727299D01*
X74721176Y-97716809D01*
X74700132Y-97704196D01*
X74680427Y-97689582D01*
X74662248Y-97673106D01*
X74645772Y-97654927D01*
X74631158Y-97635222D01*
X74618545Y-97614178D01*
X74608055Y-97592000D01*
X74599790Y-97568900D01*
X74593829Y-97545102D01*
X74590229Y-97520833D01*
X74589025Y-97496329D01*
X74589025Y-96296329D01*
X74590229Y-96271825D01*
X74593829Y-96247556D01*
X74599790Y-96223758D01*
X74608055Y-96200658D01*
X74618545Y-96178480D01*
X74631158Y-96157436D01*
X74645772Y-96137731D01*
X74662248Y-96119552D01*
X74680427Y-96103076D01*
X74700132Y-96088462D01*
X74721176Y-96075849D01*
X74743354Y-96065359D01*
X74766454Y-96057094D01*
X74790252Y-96051133D01*
X74814521Y-96047533D01*
X74839025Y-96046329D01*
X76339025Y-96046329D01*
X76363529Y-96047533D01*
G37*
%TD.AperFunction*%
D10*
X59674025Y-54946329D03*
%TA.AperFunction,ComponentPad*%
D11*
G36*
X60448529Y-56597533D02*
G01*
X60472798Y-56601133D01*
X60496596Y-56607094D01*
X60519696Y-56615359D01*
X60541874Y-56625849D01*
X60562918Y-56638462D01*
X60582623Y-56653076D01*
X60600802Y-56669552D01*
X60617278Y-56687731D01*
X60631892Y-56707436D01*
X60644505Y-56728480D01*
X60654995Y-56750658D01*
X60663260Y-56773758D01*
X60669221Y-56797556D01*
X60672821Y-56821825D01*
X60674025Y-56846329D01*
X60674025Y-58046329D01*
X60672821Y-58070833D01*
X60669221Y-58095102D01*
X60663260Y-58118900D01*
X60654995Y-58142000D01*
X60644505Y-58164178D01*
X60631892Y-58185222D01*
X60617278Y-58204927D01*
X60600802Y-58223106D01*
X60582623Y-58239582D01*
X60562918Y-58254196D01*
X60541874Y-58266809D01*
X60519696Y-58277299D01*
X60496596Y-58285564D01*
X60472798Y-58291525D01*
X60448529Y-58295125D01*
X60424025Y-58296329D01*
X58924025Y-58296329D01*
X58899521Y-58295125D01*
X58875252Y-58291525D01*
X58851454Y-58285564D01*
X58828354Y-58277299D01*
X58806176Y-58266809D01*
X58785132Y-58254196D01*
X58765427Y-58239582D01*
X58747248Y-58223106D01*
X58730772Y-58204927D01*
X58716158Y-58185222D01*
X58703545Y-58164178D01*
X58693055Y-58142000D01*
X58684790Y-58118900D01*
X58678829Y-58095102D01*
X58675229Y-58070833D01*
X58674025Y-58046329D01*
X58674025Y-56846329D01*
X58675229Y-56821825D01*
X58678829Y-56797556D01*
X58684790Y-56773758D01*
X58693055Y-56750658D01*
X58703545Y-56728480D01*
X58716158Y-56707436D01*
X58730772Y-56687731D01*
X58747248Y-56669552D01*
X58765427Y-56653076D01*
X58785132Y-56638462D01*
X58806176Y-56625849D01*
X58828354Y-56615359D01*
X58851454Y-56607094D01*
X58875252Y-56601133D01*
X58899521Y-56597533D01*
X58924025Y-56596329D01*
X60424025Y-56596329D01*
X60448529Y-56597533D01*
G37*
%TD.AperFunction*%
D15*
X59714025Y-85426329D03*
X57174025Y-70821329D03*
X39394025Y-90506329D03*
X45744025Y-77806329D03*
X41934025Y-77806329D03*
X39394025Y-67646329D03*
X49554025Y-70186329D03*
X53364025Y-58756329D03*
X81304025Y-89236329D03*
X69874025Y-90506329D03*
X59714025Y-77806329D03*
X49523524Y-72739297D03*
X49554025Y-67646329D03*
X77365287Y-75266329D03*
X74954025Y-80346329D03*
X41934025Y-72726329D03*
X49554025Y-80346329D03*
D16*
X75589025Y-96896329D02*
X75589025Y-96046329D01*
X58484025Y-99356329D02*
X59714025Y-98126329D01*
X43839025Y-99356329D02*
X58484025Y-99356329D01*
X62984025Y-96856329D02*
X73589025Y-96856329D01*
X61714025Y-98126329D02*
X62984025Y-96856329D01*
X59714025Y-98126329D02*
X61714025Y-98126329D01*
X75395505Y-99396329D02*
X73589025Y-97589849D01*
X73589025Y-97589849D02*
X73589025Y-96856329D01*
X75589025Y-99396329D02*
X75395505Y-99396329D01*
X57364025Y-67646329D02*
X49554025Y-67646329D01*
X62214025Y-73996329D02*
X62214025Y-72496329D01*
X62214025Y-72496329D02*
X57364025Y-67646329D01*
X63484025Y-75266329D02*
X77365287Y-75266329D01*
X62214025Y-73996329D02*
X63484025Y-75266329D01*
X62214025Y-79076329D02*
X63714025Y-79076329D01*
X63714025Y-79076329D02*
X73684025Y-79076329D01*
X73684025Y-79076329D02*
X74954025Y-80346329D01*
X61014024Y-80276330D02*
X62214025Y-79076329D01*
X59674025Y-43714284D02*
X59674025Y-46056329D01*
X59871980Y-43516329D02*
X59674025Y-43714284D01*
X59674025Y-53096329D02*
X59674025Y-54946329D01*
X57974015Y-51396319D02*
X59674025Y-53096329D01*
X59480505Y-46056329D02*
X57974015Y-47562819D01*
X57974015Y-47562819D02*
X57974015Y-51396319D01*
X59674025Y-46056329D02*
X59480505Y-46056329D01*
X47579026Y-80276330D02*
X42430500Y-80276330D01*
X41334026Y-73326328D02*
X41934025Y-72726329D01*
X40064026Y-77909856D02*
X40064026Y-74596328D01*
X40064026Y-74596328D02*
X41334026Y-73326328D01*
X42534024Y-72126330D02*
X41934025Y-72726329D01*
X59674025Y-54946329D02*
X59292553Y-54946329D01*
X42430500Y-80276330D02*
X40064026Y-77909856D01*
X59292553Y-54946329D02*
X42534024Y-71704858D01*
X42534024Y-71704858D02*
X42534024Y-72126330D01*
X49554025Y-80346329D02*
X61014024Y-80276330D01*
X46309026Y-80276330D02*
X49554025Y-80346329D01*
D17*
G36*
X89463686Y-27030456D02*
G01*
X90410962Y-33801566D01*
X91290620Y-41218266D01*
X92014762Y-48651767D01*
X92583067Y-56098779D01*
X92995293Y-63556128D01*
X93251304Y-71021945D01*
X93315805Y-74679810D01*
X88052164Y-74679787D01*
X88049607Y-74680039D01*
X88038980Y-74680113D01*
X88005770Y-74683603D01*
X87972385Y-74683603D01*
X87962179Y-74684675D01*
X87348771Y-74753477D01*
X87283568Y-74767336D01*
X87218262Y-74780267D01*
X87208459Y-74783301D01*
X86620095Y-74969938D01*
X86558825Y-74996198D01*
X86497275Y-75021567D01*
X86488247Y-75026447D01*
X85947341Y-75323810D01*
X85892332Y-75361476D01*
X85836888Y-75398312D01*
X85828981Y-75404853D01*
X85356134Y-75801616D01*
X85309496Y-75849240D01*
X85262255Y-75896152D01*
X85255769Y-75904104D01*
X84868993Y-76385153D01*
X84832498Y-76440923D01*
X84795265Y-76496122D01*
X84790447Y-76505183D01*
X84504472Y-77052196D01*
X84479501Y-77114001D01*
X84453701Y-77175375D01*
X84450737Y-77185191D01*
X84450735Y-77185197D01*
X84450735Y-77185199D01*
X84276456Y-77777339D01*
X84263966Y-77842811D01*
X84250578Y-77908031D01*
X84249576Y-77918245D01*
X84193630Y-78532960D01*
X84194095Y-78599608D01*
X84193630Y-78666190D01*
X84194631Y-78676403D01*
X84259149Y-79290277D01*
X84272553Y-79355579D01*
X84285027Y-79420970D01*
X84287992Y-79430794D01*
X84470517Y-80020446D01*
X84496345Y-80081888D01*
X84521288Y-80143625D01*
X84526105Y-80152686D01*
X84819685Y-80695655D01*
X84856969Y-80750931D01*
X84893413Y-80806624D01*
X84899895Y-80814572D01*
X84899899Y-80814578D01*
X84899903Y-80814582D01*
X85293350Y-81290182D01*
X85340637Y-81337141D01*
X85387228Y-81384718D01*
X85395135Y-81391260D01*
X85873472Y-81781386D01*
X85928985Y-81818269D01*
X85983925Y-81855888D01*
X85992947Y-81860766D01*
X85992951Y-81860769D01*
X85992955Y-81860771D01*
X86537956Y-82150555D01*
X86599576Y-82175953D01*
X86660775Y-82202184D01*
X86670579Y-82205219D01*
X87261489Y-82383628D01*
X87326852Y-82396571D01*
X87391998Y-82410418D01*
X87402204Y-82411491D01*
X88016512Y-82471727D01*
X88016513Y-82471727D01*
X88052131Y-82475235D01*
X93332978Y-82475258D01*
X93220501Y-89203290D01*
X92939294Y-96666721D01*
X92524202Y-103741606D01*
X26906581Y-103741332D01*
X26645601Y-99356329D01*
X42196840Y-99356329D01*
X42225512Y-99647440D01*
X42310426Y-99927363D01*
X42448319Y-100185343D01*
X42633891Y-100411463D01*
X42860011Y-100597035D01*
X43117991Y-100734928D01*
X43397914Y-100819842D01*
X43616075Y-100841329D01*
X44061975Y-100841329D01*
X44280136Y-100819842D01*
X44560059Y-100734928D01*
X44818039Y-100597035D01*
X44946842Y-100491329D01*
X58428274Y-100491329D01*
X58484025Y-100496820D01*
X58539776Y-100491329D01*
X58539777Y-100491329D01*
X58706524Y-100474906D01*
X58920472Y-100410005D01*
X59117648Y-100304613D01*
X59290474Y-100162778D01*
X59326020Y-100119465D01*
X59681085Y-99764401D01*
X60714025Y-99764401D01*
X60838507Y-99752141D01*
X60958205Y-99715831D01*
X61068519Y-99656866D01*
X61165210Y-99577514D01*
X61244562Y-99480823D01*
X61303527Y-99370509D01*
X61336646Y-99261329D01*
X61658274Y-99261329D01*
X61714025Y-99266820D01*
X61769776Y-99261329D01*
X61769777Y-99261329D01*
X61936524Y-99244906D01*
X62150472Y-99180005D01*
X62347648Y-99074613D01*
X62520474Y-98932778D01*
X62556021Y-98889464D01*
X63454157Y-97991329D01*
X72524742Y-97991329D01*
X72535349Y-98026295D01*
X72640741Y-98223472D01*
X72782576Y-98396298D01*
X72825889Y-98431844D01*
X73963934Y-99569891D01*
X73975512Y-99687440D01*
X74060426Y-99967363D01*
X74198319Y-100225343D01*
X74383891Y-100451463D01*
X74610011Y-100637035D01*
X74867991Y-100774928D01*
X75147914Y-100859842D01*
X75366075Y-100881329D01*
X75811975Y-100881329D01*
X76030136Y-100859842D01*
X76310059Y-100774928D01*
X76568039Y-100637035D01*
X76794159Y-100451463D01*
X76979731Y-100225343D01*
X77117624Y-99967363D01*
X77202538Y-99687440D01*
X77231210Y-99396329D01*
X77202538Y-99105218D01*
X77117624Y-98825295D01*
X76979731Y-98567315D01*
X76798417Y-98346384D01*
X76833205Y-98335831D01*
X76943519Y-98276866D01*
X77040210Y-98197514D01*
X77119562Y-98100823D01*
X77178527Y-97990509D01*
X77214837Y-97870811D01*
X77227097Y-97746329D01*
X77224025Y-97182079D01*
X77065275Y-97023329D01*
X75716025Y-97023329D01*
X75716025Y-97043329D01*
X75462025Y-97043329D01*
X75462025Y-97023329D01*
X75442025Y-97023329D01*
X75442025Y-96769329D01*
X75462025Y-96769329D01*
X75462025Y-95570079D01*
X75716025Y-95570079D01*
X75716025Y-96769329D01*
X77065275Y-96769329D01*
X77224025Y-96610579D01*
X77227097Y-96046329D01*
X77214837Y-95921847D01*
X77178527Y-95802149D01*
X77119562Y-95691835D01*
X77040210Y-95595144D01*
X76943519Y-95515792D01*
X76833205Y-95456827D01*
X76713507Y-95420517D01*
X76589025Y-95408257D01*
X75874775Y-95411329D01*
X75716025Y-95570079D01*
X75462025Y-95570079D01*
X75303275Y-95411329D01*
X74589025Y-95408257D01*
X74464543Y-95420517D01*
X74344845Y-95456827D01*
X74234531Y-95515792D01*
X74137840Y-95595144D01*
X74058488Y-95691835D01*
X74002912Y-95795809D01*
X73811524Y-95737752D01*
X73644777Y-95721329D01*
X73589025Y-95715838D01*
X73533274Y-95721329D01*
X63039768Y-95721329D01*
X62984024Y-95715839D01*
X62928280Y-95721329D01*
X62928273Y-95721329D01*
X62782518Y-95735685D01*
X62761525Y-95737752D01*
X62711730Y-95752858D01*
X62547578Y-95802653D01*
X62350402Y-95908045D01*
X62177576Y-96049880D01*
X62142033Y-96093189D01*
X61315059Y-96920164D01*
X61303527Y-96882149D01*
X61244562Y-96771835D01*
X61165210Y-96675144D01*
X61068519Y-96595792D01*
X60958205Y-96536827D01*
X60838507Y-96500517D01*
X60714025Y-96488257D01*
X58714025Y-96488257D01*
X58589543Y-96500517D01*
X58469845Y-96536827D01*
X58359531Y-96595792D01*
X58262840Y-96675144D01*
X58183488Y-96771835D01*
X58124523Y-96882149D01*
X58088213Y-97001847D01*
X58075953Y-97126329D01*
X58075953Y-98159269D01*
X58013893Y-98221329D01*
X45032655Y-98221329D01*
X45082411Y-98194734D01*
X45216987Y-98084291D01*
X45327430Y-97949715D01*
X45409497Y-97796179D01*
X45460033Y-97629583D01*
X45477097Y-97456329D01*
X45477097Y-96256329D01*
X45460033Y-96083075D01*
X45409497Y-95916479D01*
X45327430Y-95762943D01*
X45216987Y-95628367D01*
X45082411Y-95517924D01*
X44928875Y-95435857D01*
X44762279Y-95385321D01*
X44589025Y-95368257D01*
X43089025Y-95368257D01*
X42915771Y-95385321D01*
X42749175Y-95435857D01*
X42595639Y-95517924D01*
X42461063Y-95628367D01*
X42350620Y-95762943D01*
X42268553Y-95916479D01*
X42218017Y-96083075D01*
X42200953Y-96256329D01*
X42200953Y-97456329D01*
X42218017Y-97629583D01*
X42268553Y-97796179D01*
X42350620Y-97949715D01*
X42461063Y-98084291D01*
X42595639Y-98194734D01*
X42697362Y-98249106D01*
X42633891Y-98301195D01*
X42448319Y-98527315D01*
X42310426Y-98785295D01*
X42225512Y-99065218D01*
X42196840Y-99356329D01*
X26645601Y-99356329D01*
X26503542Y-96969456D01*
X26364390Y-93357145D01*
X28566070Y-93357145D01*
X28566070Y-93797401D01*
X28651960Y-94229198D01*
X28820439Y-94635942D01*
X29065032Y-95002002D01*
X29376341Y-95313311D01*
X29742401Y-95557904D01*
X30149145Y-95726383D01*
X30580942Y-95812273D01*
X31021198Y-95812273D01*
X31452995Y-95726383D01*
X31859739Y-95557904D01*
X32225799Y-95313311D01*
X32537108Y-95002002D01*
X32781701Y-94635942D01*
X32950180Y-94229198D01*
X33036070Y-93797401D01*
X33036070Y-93357386D01*
X86392069Y-93357386D01*
X86392069Y-93797642D01*
X86477959Y-94229439D01*
X86646438Y-94636183D01*
X86891031Y-95002243D01*
X87202340Y-95313552D01*
X87568400Y-95558145D01*
X87975144Y-95726624D01*
X88406941Y-95812514D01*
X88847197Y-95812514D01*
X89278994Y-95726624D01*
X89685738Y-95558145D01*
X90051798Y-95313552D01*
X90363107Y-95002243D01*
X90607700Y-94636183D01*
X90776179Y-94229439D01*
X90862069Y-93797642D01*
X90862069Y-93357386D01*
X90776179Y-92925589D01*
X90607700Y-92518845D01*
X90363107Y-92152785D01*
X90051798Y-91841476D01*
X89685738Y-91596883D01*
X89278994Y-91428404D01*
X88847197Y-91342514D01*
X88406941Y-91342514D01*
X87975144Y-91428404D01*
X87568400Y-91596883D01*
X87202340Y-91841476D01*
X86891031Y-92152785D01*
X86646438Y-92518845D01*
X86477959Y-92925589D01*
X86392069Y-93357386D01*
X33036070Y-93357386D01*
X33036070Y-93357145D01*
X32950180Y-92925348D01*
X32781701Y-92518604D01*
X32537108Y-92152544D01*
X32225799Y-91841235D01*
X31859739Y-91596642D01*
X31452995Y-91428163D01*
X31021198Y-91342273D01*
X30580942Y-91342273D01*
X30149145Y-91428163D01*
X29742401Y-91596642D01*
X29376341Y-91841235D01*
X29065032Y-92152544D01*
X28820439Y-92518604D01*
X28651960Y-92925348D01*
X28566070Y-93357145D01*
X26364390Y-93357145D01*
X26249139Y-90365296D01*
X58079025Y-90365296D01*
X58079025Y-90687362D01*
X58141857Y-91003241D01*
X58265107Y-91300792D01*
X58444038Y-91568581D01*
X58671773Y-91796316D01*
X58939562Y-91975247D01*
X59237113Y-92098497D01*
X59552992Y-92161329D01*
X59875058Y-92161329D01*
X60190937Y-92098497D01*
X60488488Y-91975247D01*
X60756277Y-91796316D01*
X60984012Y-91568581D01*
X61162943Y-91300792D01*
X61286193Y-91003241D01*
X61349025Y-90687362D01*
X61349025Y-90365296D01*
X61286193Y-90049417D01*
X61162943Y-89751866D01*
X60984012Y-89484077D01*
X60756277Y-89256342D01*
X60488488Y-89077411D01*
X60190937Y-88954161D01*
X59875058Y-88891329D01*
X59552992Y-88891329D01*
X59237113Y-88954161D01*
X58939562Y-89077411D01*
X58671773Y-89256342D01*
X58444038Y-89484077D01*
X58265107Y-89751866D01*
X58141857Y-90049417D01*
X58079025Y-90365296D01*
X26249139Y-90365296D01*
X26216051Y-89506364D01*
X26092577Y-82474977D01*
X31376101Y-82475000D01*
X31378658Y-82474748D01*
X31389285Y-82474674D01*
X31422495Y-82471184D01*
X31455879Y-82471184D01*
X31466085Y-82470112D01*
X32079494Y-82401310D01*
X32144676Y-82387455D01*
X32210005Y-82374520D01*
X32219808Y-82371486D01*
X32808171Y-82184848D01*
X32869417Y-82158598D01*
X32930990Y-82133220D01*
X32940017Y-82128339D01*
X32961863Y-82116329D01*
X55995953Y-82116329D01*
X56008213Y-82240811D01*
X56044523Y-82360509D01*
X56103488Y-82470823D01*
X56182840Y-82567514D01*
X56279531Y-82646866D01*
X56389845Y-82705831D01*
X56509543Y-82742141D01*
X56634025Y-82754401D01*
X56848275Y-82751329D01*
X57007025Y-82592579D01*
X57007025Y-81743329D01*
X57261025Y-81743329D01*
X57261025Y-82592579D01*
X57419775Y-82751329D01*
X57634025Y-82754401D01*
X57758507Y-82742141D01*
X57878205Y-82705831D01*
X57988519Y-82646866D01*
X58085210Y-82567514D01*
X58164562Y-82470823D01*
X58223527Y-82360509D01*
X58259837Y-82240811D01*
X58272097Y-82116329D01*
X58269025Y-81902079D01*
X58110275Y-81743329D01*
X57261025Y-81743329D01*
X57007025Y-81743329D01*
X56157775Y-81743329D01*
X55999025Y-81902079D01*
X55995953Y-82116329D01*
X32961863Y-82116329D01*
X33480924Y-81830976D01*
X33535907Y-81793329D01*
X33591377Y-81756475D01*
X33599284Y-81749934D01*
X34072132Y-81353172D01*
X34118772Y-81305544D01*
X34166011Y-81258635D01*
X34172497Y-81250683D01*
X34559273Y-80769634D01*
X34595768Y-80713864D01*
X34633001Y-80658665D01*
X34637819Y-80649604D01*
X34923794Y-80102591D01*
X34948765Y-80040786D01*
X34974565Y-79979412D01*
X34977529Y-79969596D01*
X34977531Y-79969590D01*
X34977532Y-79969584D01*
X35151810Y-79377447D01*
X35164303Y-79311960D01*
X35177688Y-79246754D01*
X35178690Y-79236541D01*
X35234636Y-78621826D01*
X35234171Y-78555178D01*
X35234636Y-78488596D01*
X35233635Y-78478383D01*
X35169117Y-77864509D01*
X35155713Y-77799207D01*
X35143239Y-77733816D01*
X35140274Y-77723992D01*
X34957749Y-77134340D01*
X34931925Y-77072906D01*
X34906979Y-77011162D01*
X34902161Y-77002101D01*
X34608581Y-76459131D01*
X34571341Y-76403920D01*
X34534853Y-76348160D01*
X34528367Y-76340207D01*
X34134915Y-75864602D01*
X34087625Y-75817641D01*
X34041037Y-75770067D01*
X34033131Y-75763525D01*
X33554793Y-75373399D01*
X33499280Y-75336516D01*
X33444340Y-75298897D01*
X33435318Y-75294019D01*
X33435314Y-75294016D01*
X33435307Y-75294013D01*
X32890310Y-75004230D01*
X32828702Y-74978837D01*
X32767491Y-74952601D01*
X32757688Y-74949566D01*
X32166777Y-74771157D01*
X32101401Y-74758212D01*
X32036268Y-74744367D01*
X32026064Y-74743294D01*
X32026062Y-74743294D01*
X31411752Y-74683058D01*
X31411742Y-74683058D01*
X31376134Y-74679551D01*
X26115714Y-74679528D01*
X26117539Y-74596328D01*
X38923535Y-74596328D01*
X38929027Y-74652089D01*
X38929026Y-77854104D01*
X38923535Y-77909856D01*
X38929026Y-77965607D01*
X38945449Y-78132354D01*
X39010350Y-78346302D01*
X39115742Y-78543479D01*
X39257577Y-78716305D01*
X39300890Y-78751852D01*
X41588513Y-81039476D01*
X41624051Y-81082779D01*
X41667354Y-81118317D01*
X41667356Y-81118319D01*
X41789153Y-81218275D01*
X41796877Y-81224614D01*
X41994053Y-81330006D01*
X42208001Y-81394907D01*
X42368078Y-81410673D01*
X42430500Y-81416821D01*
X42486252Y-81411330D01*
X46296817Y-81411330D01*
X49040858Y-81470523D01*
X49193789Y-81533869D01*
X49432388Y-81581329D01*
X49675662Y-81581329D01*
X49914261Y-81533869D01*
X50048343Y-81478330D01*
X56109753Y-81441307D01*
X56157775Y-81489329D01*
X57007025Y-81489329D01*
X57007025Y-81469329D01*
X57261025Y-81469329D01*
X57261025Y-81489329D01*
X58110275Y-81489329D01*
X58170887Y-81428717D01*
X60961728Y-81411670D01*
X61014024Y-81416821D01*
X61073236Y-81410989D01*
X61075953Y-81410973D01*
X61075953Y-82116329D01*
X61088213Y-82240811D01*
X61124523Y-82360509D01*
X61183488Y-82470823D01*
X61262840Y-82567514D01*
X61359531Y-82646866D01*
X61469845Y-82705831D01*
X61589543Y-82742141D01*
X61714025Y-82754401D01*
X62714025Y-82754401D01*
X62838507Y-82742141D01*
X62958205Y-82705831D01*
X63068519Y-82646866D01*
X63165210Y-82567514D01*
X63244562Y-82470823D01*
X63303527Y-82360509D01*
X63339837Y-82240811D01*
X63352097Y-82116329D01*
X63352097Y-81116329D01*
X63339837Y-80991847D01*
X63303527Y-80872149D01*
X63244562Y-80761835D01*
X63165210Y-80665144D01*
X63068519Y-80585792D01*
X62958205Y-80526827D01*
X62838507Y-80490517D01*
X62714025Y-80478257D01*
X62417229Y-80478257D01*
X62681085Y-80214401D01*
X62714025Y-80214401D01*
X62745217Y-80211329D01*
X73213894Y-80211329D01*
X73807042Y-80804477D01*
X73859582Y-80931321D01*
X73994738Y-81133596D01*
X74166758Y-81305616D01*
X74369033Y-81440772D01*
X74593789Y-81533869D01*
X74832388Y-81581329D01*
X75075662Y-81581329D01*
X75314261Y-81533869D01*
X75539017Y-81440772D01*
X75741292Y-81305616D01*
X75913312Y-81133596D01*
X76048468Y-80931321D01*
X76141565Y-80706565D01*
X76189025Y-80467966D01*
X76189025Y-80224692D01*
X76141565Y-79986093D01*
X76048468Y-79761337D01*
X75913312Y-79559062D01*
X75741292Y-79387042D01*
X75539017Y-79251886D01*
X75412173Y-79199346D01*
X74526021Y-78313194D01*
X74490474Y-78269880D01*
X74317648Y-78128045D01*
X74120472Y-78022653D01*
X73906524Y-77957752D01*
X73739777Y-77941329D01*
X73739776Y-77941329D01*
X73684025Y-77935838D01*
X73628274Y-77941329D01*
X62745217Y-77941329D01*
X62714025Y-77938257D01*
X62238586Y-77938257D01*
X62214025Y-77935838D01*
X62189464Y-77938257D01*
X61714025Y-77938257D01*
X61589543Y-77950517D01*
X61469845Y-77986827D01*
X61359531Y-78045792D01*
X61262840Y-78125144D01*
X61183488Y-78221835D01*
X61124523Y-78332149D01*
X61088213Y-78451847D01*
X61075953Y-78576329D01*
X61075953Y-78609269D01*
X60541024Y-79144198D01*
X58272097Y-79158057D01*
X58272097Y-78576329D01*
X58259837Y-78451847D01*
X58223527Y-78332149D01*
X58164562Y-78221835D01*
X58085210Y-78125144D01*
X57988519Y-78045792D01*
X57878205Y-77986827D01*
X57758507Y-77950517D01*
X57634025Y-77938257D01*
X56634025Y-77938257D01*
X56509543Y-77950517D01*
X56389845Y-77986827D01*
X56279531Y-78045792D01*
X56182840Y-78125144D01*
X56103488Y-78221835D01*
X56044523Y-78332149D01*
X56008213Y-78451847D01*
X55995953Y-78576329D01*
X55995953Y-79171960D01*
X50033976Y-79208377D01*
X49914261Y-79158789D01*
X49675662Y-79111329D01*
X49432388Y-79111329D01*
X49193789Y-79158789D01*
X49091661Y-79201092D01*
X47856564Y-79174449D01*
X47801525Y-79157753D01*
X47634778Y-79141330D01*
X46321248Y-79141330D01*
X46277765Y-79140392D01*
X46265544Y-79141330D01*
X42900633Y-79141330D01*
X41199026Y-77439725D01*
X41199026Y-75066459D01*
X42176014Y-74089472D01*
X42176018Y-74089467D01*
X42392173Y-73873313D01*
X42519017Y-73820772D01*
X42721292Y-73685616D01*
X42893312Y-73513596D01*
X42904849Y-73496329D01*
X55702540Y-73496329D01*
X55702540Y-74496329D01*
X55720438Y-74678053D01*
X55773445Y-74852793D01*
X55859524Y-75013834D01*
X55975366Y-75154988D01*
X56116520Y-75270830D01*
X56277561Y-75356909D01*
X56452301Y-75409916D01*
X56497009Y-75414319D01*
X56389845Y-75446827D01*
X56279531Y-75505792D01*
X56182840Y-75585144D01*
X56103488Y-75681835D01*
X56044523Y-75792149D01*
X56008213Y-75911847D01*
X55995953Y-76036329D01*
X55995953Y-77036329D01*
X56008213Y-77160811D01*
X56044523Y-77280509D01*
X56103488Y-77390823D01*
X56182840Y-77487514D01*
X56279531Y-77566866D01*
X56389845Y-77625831D01*
X56509543Y-77662141D01*
X56634025Y-77674401D01*
X57634025Y-77674401D01*
X57758507Y-77662141D01*
X57878205Y-77625831D01*
X57988519Y-77566866D01*
X58085210Y-77487514D01*
X58164562Y-77390823D01*
X58223527Y-77280509D01*
X58259837Y-77160811D01*
X58272097Y-77036329D01*
X58272097Y-76036329D01*
X58259837Y-75911847D01*
X58223527Y-75792149D01*
X58164562Y-75681835D01*
X58085210Y-75585144D01*
X57988519Y-75505792D01*
X57878205Y-75446827D01*
X57771041Y-75414319D01*
X57815749Y-75409916D01*
X57990489Y-75356909D01*
X58151530Y-75270830D01*
X58292684Y-75154988D01*
X58408526Y-75013834D01*
X58494605Y-74852793D01*
X58547612Y-74678053D01*
X58565510Y-74496329D01*
X58565510Y-73496329D01*
X58547612Y-73314605D01*
X58494605Y-73139865D01*
X58408526Y-72978824D01*
X58292684Y-72837670D01*
X58151530Y-72721828D01*
X57990489Y-72635749D01*
X57815749Y-72582742D01*
X57634025Y-72564844D01*
X56634025Y-72564844D01*
X56452301Y-72582742D01*
X56277561Y-72635749D01*
X56116520Y-72721828D01*
X55975366Y-72837670D01*
X55859524Y-72978824D01*
X55773445Y-73139865D01*
X55720438Y-73314605D01*
X55702540Y-73496329D01*
X42904849Y-73496329D01*
X43028468Y-73311321D01*
X43081008Y-73184477D01*
X43297164Y-72968322D01*
X43340473Y-72932779D01*
X43482308Y-72759953D01*
X43587700Y-72562777D01*
X43652601Y-72348829D01*
X43669799Y-72174214D01*
X48319025Y-67524988D01*
X48319025Y-67767966D01*
X48366485Y-68006565D01*
X48459582Y-68231321D01*
X48594738Y-68433596D01*
X48766758Y-68605616D01*
X48969033Y-68740772D01*
X49193789Y-68833869D01*
X49432388Y-68881329D01*
X49675662Y-68881329D01*
X49914261Y-68833869D01*
X50041104Y-68781329D01*
X56893894Y-68781329D01*
X61079025Y-72966461D01*
X61079025Y-73465137D01*
X61075953Y-73496329D01*
X61075953Y-73971768D01*
X61073534Y-73996329D01*
X61075953Y-74020890D01*
X61075953Y-74496329D01*
X61088213Y-74620811D01*
X61124523Y-74740509D01*
X61183488Y-74850823D01*
X61262840Y-74947514D01*
X61359531Y-75026866D01*
X61469845Y-75085831D01*
X61589543Y-75122141D01*
X61714025Y-75134401D01*
X61746966Y-75134401D01*
X62010822Y-75398257D01*
X61714025Y-75398257D01*
X61589543Y-75410517D01*
X61469845Y-75446827D01*
X61359531Y-75505792D01*
X61262840Y-75585144D01*
X61183488Y-75681835D01*
X61124523Y-75792149D01*
X61088213Y-75911847D01*
X61075953Y-76036329D01*
X61075953Y-77036329D01*
X61088213Y-77160811D01*
X61124523Y-77280509D01*
X61183488Y-77390823D01*
X61262840Y-77487514D01*
X61359531Y-77566866D01*
X61469845Y-77625831D01*
X61589543Y-77662141D01*
X61714025Y-77674401D01*
X62714025Y-77674401D01*
X62838507Y-77662141D01*
X62958205Y-77625831D01*
X63068519Y-77566866D01*
X63165210Y-77487514D01*
X63244562Y-77390823D01*
X63303527Y-77280509D01*
X63339837Y-77160811D01*
X63352097Y-77036329D01*
X63352097Y-76393826D01*
X63428273Y-76401329D01*
X63428280Y-76401329D01*
X63484024Y-76406819D01*
X63539768Y-76401329D01*
X76878208Y-76401329D01*
X77005051Y-76453869D01*
X77243650Y-76501329D01*
X77486924Y-76501329D01*
X77725523Y-76453869D01*
X77950279Y-76360772D01*
X78152554Y-76225616D01*
X78324574Y-76053596D01*
X78459730Y-75851321D01*
X78552827Y-75626565D01*
X78600287Y-75387966D01*
X78600287Y-75144692D01*
X78552827Y-74906093D01*
X78459730Y-74681337D01*
X78324574Y-74479062D01*
X78152554Y-74307042D01*
X77950279Y-74171886D01*
X77725523Y-74078789D01*
X77486924Y-74031329D01*
X77243650Y-74031329D01*
X77005051Y-74078789D01*
X76878208Y-74131329D01*
X63954157Y-74131329D01*
X63352097Y-73529270D01*
X63352097Y-73496329D01*
X63349025Y-73465137D01*
X63349025Y-72552081D01*
X63354516Y-72496329D01*
X63332602Y-72273830D01*
X63267701Y-72059882D01*
X63162309Y-71862706D01*
X63083799Y-71767042D01*
X63020474Y-71689880D01*
X62977166Y-71654338D01*
X59185030Y-67862203D01*
X59388275Y-67861329D01*
X59547025Y-67702579D01*
X59547025Y-66503329D01*
X59801025Y-66503329D01*
X59801025Y-67702579D01*
X59959775Y-67861329D01*
X60674025Y-67864401D01*
X60798507Y-67852141D01*
X60918205Y-67815831D01*
X61028519Y-67756866D01*
X61125210Y-67677514D01*
X61204562Y-67580823D01*
X61263527Y-67470509D01*
X61299837Y-67350811D01*
X61312097Y-67226329D01*
X61309025Y-66662079D01*
X61150275Y-66503329D01*
X59801025Y-66503329D01*
X59547025Y-66503329D01*
X58197775Y-66503329D01*
X58039025Y-66662079D01*
X58038646Y-66731691D01*
X57997648Y-66698045D01*
X57800472Y-66592653D01*
X57586524Y-66527752D01*
X57419777Y-66511329D01*
X57419776Y-66511329D01*
X57364025Y-66505838D01*
X57308274Y-66511329D01*
X50041104Y-66511329D01*
X49914261Y-66458789D01*
X49675662Y-66411329D01*
X49432684Y-66411329D01*
X51967684Y-63876329D01*
X57738427Y-63876329D01*
X57772737Y-64224682D01*
X57874348Y-64559648D01*
X58039355Y-64868354D01*
X58215952Y-65083537D01*
X58143488Y-65171835D01*
X58084523Y-65282149D01*
X58048213Y-65401847D01*
X58035953Y-65526329D01*
X58039025Y-66090579D01*
X58197775Y-66249329D01*
X59547025Y-66249329D01*
X59547025Y-66229329D01*
X59801025Y-66229329D01*
X59801025Y-66249329D01*
X61150275Y-66249329D01*
X61309025Y-66090579D01*
X61312097Y-65526329D01*
X61299837Y-65401847D01*
X61263527Y-65282149D01*
X61204562Y-65171835D01*
X61132098Y-65083537D01*
X61308695Y-64868354D01*
X61473702Y-64559648D01*
X61575313Y-64224682D01*
X61609623Y-63876329D01*
X61575313Y-63527976D01*
X61473702Y-63193010D01*
X61308695Y-62884304D01*
X61086633Y-62613721D01*
X60816050Y-62391659D01*
X60507344Y-62226652D01*
X60172378Y-62125041D01*
X59911321Y-62099329D01*
X59436729Y-62099329D01*
X59175672Y-62125041D01*
X58840706Y-62226652D01*
X58532000Y-62391659D01*
X58261417Y-62613721D01*
X58039355Y-62884304D01*
X57874348Y-63193010D01*
X57772737Y-63527976D01*
X57738427Y-63876329D01*
X51967684Y-63876329D01*
X58035953Y-57808061D01*
X58035953Y-58046329D01*
X58053017Y-58219583D01*
X58103553Y-58386179D01*
X58185620Y-58539715D01*
X58296063Y-58674291D01*
X58430639Y-58784734D01*
X58584175Y-58866801D01*
X58750771Y-58917337D01*
X58924025Y-58934401D01*
X60424025Y-58934401D01*
X60597279Y-58917337D01*
X60763875Y-58866801D01*
X60917411Y-58784734D01*
X61051987Y-58674291D01*
X61162430Y-58539715D01*
X61244497Y-58386179D01*
X61295033Y-58219583D01*
X61312097Y-58046329D01*
X61312097Y-56846329D01*
X61295033Y-56673075D01*
X61244497Y-56506479D01*
X61162430Y-56352943D01*
X61051987Y-56218367D01*
X60917411Y-56107924D01*
X60815688Y-56053552D01*
X60879159Y-56001463D01*
X61064731Y-55775343D01*
X61202624Y-55517363D01*
X61287538Y-55237440D01*
X61316210Y-54946329D01*
X61287538Y-54655218D01*
X61202624Y-54375295D01*
X61064731Y-54117315D01*
X60879159Y-53891195D01*
X60809025Y-53833637D01*
X60809025Y-53357383D01*
X85820236Y-53357383D01*
X85820236Y-53797639D01*
X85906126Y-54229436D01*
X86074605Y-54636180D01*
X86319198Y-55002240D01*
X86630507Y-55313549D01*
X86996567Y-55558142D01*
X87403311Y-55726621D01*
X87835108Y-55812511D01*
X88275364Y-55812511D01*
X88707161Y-55726621D01*
X89113905Y-55558142D01*
X89479965Y-55313549D01*
X89791274Y-55002240D01*
X90035867Y-54636180D01*
X90204346Y-54229436D01*
X90290236Y-53797639D01*
X90290236Y-53357383D01*
X90204346Y-52925586D01*
X90035867Y-52518842D01*
X89791274Y-52152782D01*
X89479965Y-51841473D01*
X89113905Y-51596880D01*
X88707161Y-51428401D01*
X88275364Y-51342511D01*
X87835108Y-51342511D01*
X87403311Y-51428401D01*
X86996567Y-51596880D01*
X86630507Y-51841473D01*
X86319198Y-52152782D01*
X86074605Y-52518842D01*
X85906126Y-52925586D01*
X85820236Y-53357383D01*
X60809025Y-53357383D01*
X60809025Y-53152072D01*
X60814515Y-53096328D01*
X60809025Y-53040584D01*
X60809025Y-53040577D01*
X60792602Y-52873830D01*
X60727701Y-52659882D01*
X60622309Y-52462706D01*
X60480474Y-52289880D01*
X60437165Y-52254338D01*
X59109015Y-50926188D01*
X59109015Y-50044401D01*
X60424025Y-50044401D01*
X60597279Y-50027337D01*
X60763875Y-49976801D01*
X60917411Y-49894734D01*
X61051987Y-49784291D01*
X61162430Y-49649715D01*
X61244497Y-49496179D01*
X61295033Y-49329583D01*
X61312097Y-49156329D01*
X61312097Y-47956329D01*
X61295033Y-47783075D01*
X61244497Y-47616479D01*
X61162430Y-47462943D01*
X61051987Y-47328367D01*
X60917411Y-47217924D01*
X60815688Y-47163552D01*
X60879159Y-47111463D01*
X61064731Y-46885343D01*
X61202624Y-46627363D01*
X61287538Y-46347440D01*
X61316210Y-46056329D01*
X61287538Y-45765218D01*
X61202624Y-45485295D01*
X61064731Y-45227315D01*
X60879159Y-45001195D01*
X60809025Y-44943637D01*
X60809025Y-44163646D01*
X60820264Y-44149951D01*
X60925656Y-43952775D01*
X60990557Y-43738827D01*
X61012471Y-43516329D01*
X60990557Y-43293830D01*
X60925656Y-43079882D01*
X60820264Y-42882706D01*
X60678429Y-42709880D01*
X60505603Y-42568045D01*
X60308427Y-42462653D01*
X60094479Y-42397752D01*
X59871980Y-42375838D01*
X59649482Y-42397752D01*
X59435534Y-42462653D01*
X59238358Y-42568045D01*
X59108837Y-42674340D01*
X58910888Y-42872289D01*
X58867576Y-42907835D01*
X58725741Y-43080661D01*
X58620350Y-43277837D01*
X58620349Y-43277838D01*
X58555448Y-43491786D01*
X58533534Y-43714284D01*
X58539025Y-43770036D01*
X58539026Y-44943637D01*
X58468891Y-45001195D01*
X58283319Y-45227315D01*
X58145426Y-45485295D01*
X58060512Y-45765218D01*
X58048934Y-45882767D01*
X57210879Y-46720824D01*
X57167566Y-46756370D01*
X57025731Y-46929196D01*
X56920340Y-47126372D01*
X56920339Y-47126373D01*
X56855438Y-47340321D01*
X56833524Y-47562819D01*
X56839015Y-47618571D01*
X56839016Y-51340558D01*
X56833524Y-51396319D01*
X56855438Y-51618817D01*
X56920339Y-51832765D01*
X56924994Y-51841473D01*
X57025732Y-52029942D01*
X57167567Y-52202768D01*
X57210875Y-52238310D01*
X58539025Y-53566461D01*
X58539025Y-53833637D01*
X58468891Y-53891195D01*
X58283319Y-54117315D01*
X58145426Y-54375295D01*
X58096209Y-54537541D01*
X41770889Y-70862862D01*
X41727575Y-70898409D01*
X41585740Y-71071235D01*
X41482527Y-71264335D01*
X41480348Y-71268412D01*
X41415447Y-71482360D01*
X41402918Y-71609566D01*
X41349033Y-71631886D01*
X41146758Y-71767042D01*
X40974738Y-71939062D01*
X40839582Y-72141337D01*
X40787041Y-72268181D01*
X40570887Y-72484336D01*
X40570882Y-72484340D01*
X39300886Y-73754337D01*
X39257578Y-73789879D01*
X39115743Y-73962705D01*
X39097771Y-73996329D01*
X39010350Y-74159882D01*
X38945449Y-74373830D01*
X38923535Y-74596328D01*
X26117539Y-74596328D01*
X26263235Y-67956055D01*
X26583406Y-60494243D01*
X27039555Y-53357147D01*
X29138237Y-53357147D01*
X29138237Y-53797403D01*
X29224127Y-54229200D01*
X29392606Y-54635944D01*
X29637199Y-55002004D01*
X29948508Y-55313313D01*
X30314568Y-55557906D01*
X30721312Y-55726385D01*
X31153109Y-55812275D01*
X31593365Y-55812275D01*
X32025162Y-55726385D01*
X32431906Y-55557906D01*
X32797966Y-55313313D01*
X33109275Y-55002004D01*
X33353868Y-54635944D01*
X33522347Y-54229200D01*
X33608237Y-53797403D01*
X33608237Y-53357147D01*
X33522347Y-52925350D01*
X33353868Y-52518606D01*
X33109275Y-52152546D01*
X32797966Y-51841237D01*
X32431906Y-51596644D01*
X32025162Y-51428165D01*
X31593365Y-51342275D01*
X31153109Y-51342275D01*
X30721312Y-51428165D01*
X30314568Y-51596644D01*
X29948508Y-51841237D01*
X29637199Y-52152546D01*
X29392606Y-52518606D01*
X29224127Y-52925350D01*
X29138237Y-53357147D01*
X27039555Y-53357147D01*
X27059774Y-53040799D01*
X27692136Y-45598898D01*
X28480208Y-38171893D01*
X29423839Y-30761509D01*
X29962239Y-27030208D01*
X89463686Y-27030456D01*
G37*
X89463686Y-27030456D02*
X90410962Y-33801566D01*
X91290620Y-41218266D01*
X92014762Y-48651767D01*
X92583067Y-56098779D01*
X92995293Y-63556128D01*
X93251304Y-71021945D01*
X93315805Y-74679810D01*
X88052164Y-74679787D01*
X88049607Y-74680039D01*
X88038980Y-74680113D01*
X88005770Y-74683603D01*
X87972385Y-74683603D01*
X87962179Y-74684675D01*
X87348771Y-74753477D01*
X87283568Y-74767336D01*
X87218262Y-74780267D01*
X87208459Y-74783301D01*
X86620095Y-74969938D01*
X86558825Y-74996198D01*
X86497275Y-75021567D01*
X86488247Y-75026447D01*
X85947341Y-75323810D01*
X85892332Y-75361476D01*
X85836888Y-75398312D01*
X85828981Y-75404853D01*
X85356134Y-75801616D01*
X85309496Y-75849240D01*
X85262255Y-75896152D01*
X85255769Y-75904104D01*
X84868993Y-76385153D01*
X84832498Y-76440923D01*
X84795265Y-76496122D01*
X84790447Y-76505183D01*
X84504472Y-77052196D01*
X84479501Y-77114001D01*
X84453701Y-77175375D01*
X84450737Y-77185191D01*
X84450735Y-77185197D01*
X84450735Y-77185199D01*
X84276456Y-77777339D01*
X84263966Y-77842811D01*
X84250578Y-77908031D01*
X84249576Y-77918245D01*
X84193630Y-78532960D01*
X84194095Y-78599608D01*
X84193630Y-78666190D01*
X84194631Y-78676403D01*
X84259149Y-79290277D01*
X84272553Y-79355579D01*
X84285027Y-79420970D01*
X84287992Y-79430794D01*
X84470517Y-80020446D01*
X84496345Y-80081888D01*
X84521288Y-80143625D01*
X84526105Y-80152686D01*
X84819685Y-80695655D01*
X84856969Y-80750931D01*
X84893413Y-80806624D01*
X84899895Y-80814572D01*
X84899899Y-80814578D01*
X84899903Y-80814582D01*
X85293350Y-81290182D01*
X85340637Y-81337141D01*
X85387228Y-81384718D01*
X85395135Y-81391260D01*
X85873472Y-81781386D01*
X85928985Y-81818269D01*
X85983925Y-81855888D01*
X85992947Y-81860766D01*
X85992951Y-81860769D01*
X85992955Y-81860771D01*
X86537956Y-82150555D01*
X86599576Y-82175953D01*
X86660775Y-82202184D01*
X86670579Y-82205219D01*
X87261489Y-82383628D01*
X87326852Y-82396571D01*
X87391998Y-82410418D01*
X87402204Y-82411491D01*
X88016512Y-82471727D01*
X88016513Y-82471727D01*
X88052131Y-82475235D01*
X93332978Y-82475258D01*
X93220501Y-89203290D01*
X92939294Y-96666721D01*
X92524202Y-103741606D01*
X26906581Y-103741332D01*
X26645601Y-99356329D01*
X42196840Y-99356329D01*
X42225512Y-99647440D01*
X42310426Y-99927363D01*
X42448319Y-100185343D01*
X42633891Y-100411463D01*
X42860011Y-100597035D01*
X43117991Y-100734928D01*
X43397914Y-100819842D01*
X43616075Y-100841329D01*
X44061975Y-100841329D01*
X44280136Y-100819842D01*
X44560059Y-100734928D01*
X44818039Y-100597035D01*
X44946842Y-100491329D01*
X58428274Y-100491329D01*
X58484025Y-100496820D01*
X58539776Y-100491329D01*
X58539777Y-100491329D01*
X58706524Y-100474906D01*
X58920472Y-100410005D01*
X59117648Y-100304613D01*
X59290474Y-100162778D01*
X59326020Y-100119465D01*
X59681085Y-99764401D01*
X60714025Y-99764401D01*
X60838507Y-99752141D01*
X60958205Y-99715831D01*
X61068519Y-99656866D01*
X61165210Y-99577514D01*
X61244562Y-99480823D01*
X61303527Y-99370509D01*
X61336646Y-99261329D01*
X61658274Y-99261329D01*
X61714025Y-99266820D01*
X61769776Y-99261329D01*
X61769777Y-99261329D01*
X61936524Y-99244906D01*
X62150472Y-99180005D01*
X62347648Y-99074613D01*
X62520474Y-98932778D01*
X62556021Y-98889464D01*
X63454157Y-97991329D01*
X72524742Y-97991329D01*
X72535349Y-98026295D01*
X72640741Y-98223472D01*
X72782576Y-98396298D01*
X72825889Y-98431844D01*
X73963934Y-99569891D01*
X73975512Y-99687440D01*
X74060426Y-99967363D01*
X74198319Y-100225343D01*
X74383891Y-100451463D01*
X74610011Y-100637035D01*
X74867991Y-100774928D01*
X75147914Y-100859842D01*
X75366075Y-100881329D01*
X75811975Y-100881329D01*
X76030136Y-100859842D01*
X76310059Y-100774928D01*
X76568039Y-100637035D01*
X76794159Y-100451463D01*
X76979731Y-100225343D01*
X77117624Y-99967363D01*
X77202538Y-99687440D01*
X77231210Y-99396329D01*
X77202538Y-99105218D01*
X77117624Y-98825295D01*
X76979731Y-98567315D01*
X76798417Y-98346384D01*
X76833205Y-98335831D01*
X76943519Y-98276866D01*
X77040210Y-98197514D01*
X77119562Y-98100823D01*
X77178527Y-97990509D01*
X77214837Y-97870811D01*
X77227097Y-97746329D01*
X77224025Y-97182079D01*
X77065275Y-97023329D01*
X75716025Y-97023329D01*
X75716025Y-97043329D01*
X75462025Y-97043329D01*
X75462025Y-97023329D01*
X75442025Y-97023329D01*
X75442025Y-96769329D01*
X75462025Y-96769329D01*
X75462025Y-95570079D01*
X75716025Y-95570079D01*
X75716025Y-96769329D01*
X77065275Y-96769329D01*
X77224025Y-96610579D01*
X77227097Y-96046329D01*
X77214837Y-95921847D01*
X77178527Y-95802149D01*
X77119562Y-95691835D01*
X77040210Y-95595144D01*
X76943519Y-95515792D01*
X76833205Y-95456827D01*
X76713507Y-95420517D01*
X76589025Y-95408257D01*
X75874775Y-95411329D01*
X75716025Y-95570079D01*
X75462025Y-95570079D01*
X75303275Y-95411329D01*
X74589025Y-95408257D01*
X74464543Y-95420517D01*
X74344845Y-95456827D01*
X74234531Y-95515792D01*
X74137840Y-95595144D01*
X74058488Y-95691835D01*
X74002912Y-95795809D01*
X73811524Y-95737752D01*
X73644777Y-95721329D01*
X73589025Y-95715838D01*
X73533274Y-95721329D01*
X63039768Y-95721329D01*
X62984024Y-95715839D01*
X62928280Y-95721329D01*
X62928273Y-95721329D01*
X62782518Y-95735685D01*
X62761525Y-95737752D01*
X62711730Y-95752858D01*
X62547578Y-95802653D01*
X62350402Y-95908045D01*
X62177576Y-96049880D01*
X62142033Y-96093189D01*
X61315059Y-96920164D01*
X61303527Y-96882149D01*
X61244562Y-96771835D01*
X61165210Y-96675144D01*
X61068519Y-96595792D01*
X60958205Y-96536827D01*
X60838507Y-96500517D01*
X60714025Y-96488257D01*
X58714025Y-96488257D01*
X58589543Y-96500517D01*
X58469845Y-96536827D01*
X58359531Y-96595792D01*
X58262840Y-96675144D01*
X58183488Y-96771835D01*
X58124523Y-96882149D01*
X58088213Y-97001847D01*
X58075953Y-97126329D01*
X58075953Y-98159269D01*
X58013893Y-98221329D01*
X45032655Y-98221329D01*
X45082411Y-98194734D01*
X45216987Y-98084291D01*
X45327430Y-97949715D01*
X45409497Y-97796179D01*
X45460033Y-97629583D01*
X45477097Y-97456329D01*
X45477097Y-96256329D01*
X45460033Y-96083075D01*
X45409497Y-95916479D01*
X45327430Y-95762943D01*
X45216987Y-95628367D01*
X45082411Y-95517924D01*
X44928875Y-95435857D01*
X44762279Y-95385321D01*
X44589025Y-95368257D01*
X43089025Y-95368257D01*
X42915771Y-95385321D01*
X42749175Y-95435857D01*
X42595639Y-95517924D01*
X42461063Y-95628367D01*
X42350620Y-95762943D01*
X42268553Y-95916479D01*
X42218017Y-96083075D01*
X42200953Y-96256329D01*
X42200953Y-97456329D01*
X42218017Y-97629583D01*
X42268553Y-97796179D01*
X42350620Y-97949715D01*
X42461063Y-98084291D01*
X42595639Y-98194734D01*
X42697362Y-98249106D01*
X42633891Y-98301195D01*
X42448319Y-98527315D01*
X42310426Y-98785295D01*
X42225512Y-99065218D01*
X42196840Y-99356329D01*
X26645601Y-99356329D01*
X26503542Y-96969456D01*
X26364390Y-93357145D01*
X28566070Y-93357145D01*
X28566070Y-93797401D01*
X28651960Y-94229198D01*
X28820439Y-94635942D01*
X29065032Y-95002002D01*
X29376341Y-95313311D01*
X29742401Y-95557904D01*
X30149145Y-95726383D01*
X30580942Y-95812273D01*
X31021198Y-95812273D01*
X31452995Y-95726383D01*
X31859739Y-95557904D01*
X32225799Y-95313311D01*
X32537108Y-95002002D01*
X32781701Y-94635942D01*
X32950180Y-94229198D01*
X33036070Y-93797401D01*
X33036070Y-93357386D01*
X86392069Y-93357386D01*
X86392069Y-93797642D01*
X86477959Y-94229439D01*
X86646438Y-94636183D01*
X86891031Y-95002243D01*
X87202340Y-95313552D01*
X87568400Y-95558145D01*
X87975144Y-95726624D01*
X88406941Y-95812514D01*
X88847197Y-95812514D01*
X89278994Y-95726624D01*
X89685738Y-95558145D01*
X90051798Y-95313552D01*
X90363107Y-95002243D01*
X90607700Y-94636183D01*
X90776179Y-94229439D01*
X90862069Y-93797642D01*
X90862069Y-93357386D01*
X90776179Y-92925589D01*
X90607700Y-92518845D01*
X90363107Y-92152785D01*
X90051798Y-91841476D01*
X89685738Y-91596883D01*
X89278994Y-91428404D01*
X88847197Y-91342514D01*
X88406941Y-91342514D01*
X87975144Y-91428404D01*
X87568400Y-91596883D01*
X87202340Y-91841476D01*
X86891031Y-92152785D01*
X86646438Y-92518845D01*
X86477959Y-92925589D01*
X86392069Y-93357386D01*
X33036070Y-93357386D01*
X33036070Y-93357145D01*
X32950180Y-92925348D01*
X32781701Y-92518604D01*
X32537108Y-92152544D01*
X32225799Y-91841235D01*
X31859739Y-91596642D01*
X31452995Y-91428163D01*
X31021198Y-91342273D01*
X30580942Y-91342273D01*
X30149145Y-91428163D01*
X29742401Y-91596642D01*
X29376341Y-91841235D01*
X29065032Y-92152544D01*
X28820439Y-92518604D01*
X28651960Y-92925348D01*
X28566070Y-93357145D01*
X26364390Y-93357145D01*
X26249139Y-90365296D01*
X58079025Y-90365296D01*
X58079025Y-90687362D01*
X58141857Y-91003241D01*
X58265107Y-91300792D01*
X58444038Y-91568581D01*
X58671773Y-91796316D01*
X58939562Y-91975247D01*
X59237113Y-92098497D01*
X59552992Y-92161329D01*
X59875058Y-92161329D01*
X60190937Y-92098497D01*
X60488488Y-91975247D01*
X60756277Y-91796316D01*
X60984012Y-91568581D01*
X61162943Y-91300792D01*
X61286193Y-91003241D01*
X61349025Y-90687362D01*
X61349025Y-90365296D01*
X61286193Y-90049417D01*
X61162943Y-89751866D01*
X60984012Y-89484077D01*
X60756277Y-89256342D01*
X60488488Y-89077411D01*
X60190937Y-88954161D01*
X59875058Y-88891329D01*
X59552992Y-88891329D01*
X59237113Y-88954161D01*
X58939562Y-89077411D01*
X58671773Y-89256342D01*
X58444038Y-89484077D01*
X58265107Y-89751866D01*
X58141857Y-90049417D01*
X58079025Y-90365296D01*
X26249139Y-90365296D01*
X26216051Y-89506364D01*
X26092577Y-82474977D01*
X31376101Y-82475000D01*
X31378658Y-82474748D01*
X31389285Y-82474674D01*
X31422495Y-82471184D01*
X31455879Y-82471184D01*
X31466085Y-82470112D01*
X32079494Y-82401310D01*
X32144676Y-82387455D01*
X32210005Y-82374520D01*
X32219808Y-82371486D01*
X32808171Y-82184848D01*
X32869417Y-82158598D01*
X32930990Y-82133220D01*
X32940017Y-82128339D01*
X32961863Y-82116329D01*
X55995953Y-82116329D01*
X56008213Y-82240811D01*
X56044523Y-82360509D01*
X56103488Y-82470823D01*
X56182840Y-82567514D01*
X56279531Y-82646866D01*
X56389845Y-82705831D01*
X56509543Y-82742141D01*
X56634025Y-82754401D01*
X56848275Y-82751329D01*
X57007025Y-82592579D01*
X57007025Y-81743329D01*
X57261025Y-81743329D01*
X57261025Y-82592579D01*
X57419775Y-82751329D01*
X57634025Y-82754401D01*
X57758507Y-82742141D01*
X57878205Y-82705831D01*
X57988519Y-82646866D01*
X58085210Y-82567514D01*
X58164562Y-82470823D01*
X58223527Y-82360509D01*
X58259837Y-82240811D01*
X58272097Y-82116329D01*
X58269025Y-81902079D01*
X58110275Y-81743329D01*
X57261025Y-81743329D01*
X57007025Y-81743329D01*
X56157775Y-81743329D01*
X55999025Y-81902079D01*
X55995953Y-82116329D01*
X32961863Y-82116329D01*
X33480924Y-81830976D01*
X33535907Y-81793329D01*
X33591377Y-81756475D01*
X33599284Y-81749934D01*
X34072132Y-81353172D01*
X34118772Y-81305544D01*
X34166011Y-81258635D01*
X34172497Y-81250683D01*
X34559273Y-80769634D01*
X34595768Y-80713864D01*
X34633001Y-80658665D01*
X34637819Y-80649604D01*
X34923794Y-80102591D01*
X34948765Y-80040786D01*
X34974565Y-79979412D01*
X34977529Y-79969596D01*
X34977531Y-79969590D01*
X34977532Y-79969584D01*
X35151810Y-79377447D01*
X35164303Y-79311960D01*
X35177688Y-79246754D01*
X35178690Y-79236541D01*
X35234636Y-78621826D01*
X35234171Y-78555178D01*
X35234636Y-78488596D01*
X35233635Y-78478383D01*
X35169117Y-77864509D01*
X35155713Y-77799207D01*
X35143239Y-77733816D01*
X35140274Y-77723992D01*
X34957749Y-77134340D01*
X34931925Y-77072906D01*
X34906979Y-77011162D01*
X34902161Y-77002101D01*
X34608581Y-76459131D01*
X34571341Y-76403920D01*
X34534853Y-76348160D01*
X34528367Y-76340207D01*
X34134915Y-75864602D01*
X34087625Y-75817641D01*
X34041037Y-75770067D01*
X34033131Y-75763525D01*
X33554793Y-75373399D01*
X33499280Y-75336516D01*
X33444340Y-75298897D01*
X33435318Y-75294019D01*
X33435314Y-75294016D01*
X33435307Y-75294013D01*
X32890310Y-75004230D01*
X32828702Y-74978837D01*
X32767491Y-74952601D01*
X32757688Y-74949566D01*
X32166777Y-74771157D01*
X32101401Y-74758212D01*
X32036268Y-74744367D01*
X32026064Y-74743294D01*
X32026062Y-74743294D01*
X31411752Y-74683058D01*
X31411742Y-74683058D01*
X31376134Y-74679551D01*
X26115714Y-74679528D01*
X26117539Y-74596328D01*
X38923535Y-74596328D01*
X38929027Y-74652089D01*
X38929026Y-77854104D01*
X38923535Y-77909856D01*
X38929026Y-77965607D01*
X38945449Y-78132354D01*
X39010350Y-78346302D01*
X39115742Y-78543479D01*
X39257577Y-78716305D01*
X39300890Y-78751852D01*
X41588513Y-81039476D01*
X41624051Y-81082779D01*
X41667354Y-81118317D01*
X41667356Y-81118319D01*
X41789153Y-81218275D01*
X41796877Y-81224614D01*
X41994053Y-81330006D01*
X42208001Y-81394907D01*
X42368078Y-81410673D01*
X42430500Y-81416821D01*
X42486252Y-81411330D01*
X46296817Y-81411330D01*
X49040858Y-81470523D01*
X49193789Y-81533869D01*
X49432388Y-81581329D01*
X49675662Y-81581329D01*
X49914261Y-81533869D01*
X50048343Y-81478330D01*
X56109753Y-81441307D01*
X56157775Y-81489329D01*
X57007025Y-81489329D01*
X57007025Y-81469329D01*
X57261025Y-81469329D01*
X57261025Y-81489329D01*
X58110275Y-81489329D01*
X58170887Y-81428717D01*
X60961728Y-81411670D01*
X61014024Y-81416821D01*
X61073236Y-81410989D01*
X61075953Y-81410973D01*
X61075953Y-82116329D01*
X61088213Y-82240811D01*
X61124523Y-82360509D01*
X61183488Y-82470823D01*
X61262840Y-82567514D01*
X61359531Y-82646866D01*
X61469845Y-82705831D01*
X61589543Y-82742141D01*
X61714025Y-82754401D01*
X62714025Y-82754401D01*
X62838507Y-82742141D01*
X62958205Y-82705831D01*
X63068519Y-82646866D01*
X63165210Y-82567514D01*
X63244562Y-82470823D01*
X63303527Y-82360509D01*
X63339837Y-82240811D01*
X63352097Y-82116329D01*
X63352097Y-81116329D01*
X63339837Y-80991847D01*
X63303527Y-80872149D01*
X63244562Y-80761835D01*
X63165210Y-80665144D01*
X63068519Y-80585792D01*
X62958205Y-80526827D01*
X62838507Y-80490517D01*
X62714025Y-80478257D01*
X62417229Y-80478257D01*
X62681085Y-80214401D01*
X62714025Y-80214401D01*
X62745217Y-80211329D01*
X73213894Y-80211329D01*
X73807042Y-80804477D01*
X73859582Y-80931321D01*
X73994738Y-81133596D01*
X74166758Y-81305616D01*
X74369033Y-81440772D01*
X74593789Y-81533869D01*
X74832388Y-81581329D01*
X75075662Y-81581329D01*
X75314261Y-81533869D01*
X75539017Y-81440772D01*
X75741292Y-81305616D01*
X75913312Y-81133596D01*
X76048468Y-80931321D01*
X76141565Y-80706565D01*
X76189025Y-80467966D01*
X76189025Y-80224692D01*
X76141565Y-79986093D01*
X76048468Y-79761337D01*
X75913312Y-79559062D01*
X75741292Y-79387042D01*
X75539017Y-79251886D01*
X75412173Y-79199346D01*
X74526021Y-78313194D01*
X74490474Y-78269880D01*
X74317648Y-78128045D01*
X74120472Y-78022653D01*
X73906524Y-77957752D01*
X73739777Y-77941329D01*
X73739776Y-77941329D01*
X73684025Y-77935838D01*
X73628274Y-77941329D01*
X62745217Y-77941329D01*
X62714025Y-77938257D01*
X62238586Y-77938257D01*
X62214025Y-77935838D01*
X62189464Y-77938257D01*
X61714025Y-77938257D01*
X61589543Y-77950517D01*
X61469845Y-77986827D01*
X61359531Y-78045792D01*
X61262840Y-78125144D01*
X61183488Y-78221835D01*
X61124523Y-78332149D01*
X61088213Y-78451847D01*
X61075953Y-78576329D01*
X61075953Y-78609269D01*
X60541024Y-79144198D01*
X58272097Y-79158057D01*
X58272097Y-78576329D01*
X58259837Y-78451847D01*
X58223527Y-78332149D01*
X58164562Y-78221835D01*
X58085210Y-78125144D01*
X57988519Y-78045792D01*
X57878205Y-77986827D01*
X57758507Y-77950517D01*
X57634025Y-77938257D01*
X56634025Y-77938257D01*
X56509543Y-77950517D01*
X56389845Y-77986827D01*
X56279531Y-78045792D01*
X56182840Y-78125144D01*
X56103488Y-78221835D01*
X56044523Y-78332149D01*
X56008213Y-78451847D01*
X55995953Y-78576329D01*
X55995953Y-79171960D01*
X50033976Y-79208377D01*
X49914261Y-79158789D01*
X49675662Y-79111329D01*
X49432388Y-79111329D01*
X49193789Y-79158789D01*
X49091661Y-79201092D01*
X47856564Y-79174449D01*
X47801525Y-79157753D01*
X47634778Y-79141330D01*
X46321248Y-79141330D01*
X46277765Y-79140392D01*
X46265544Y-79141330D01*
X42900633Y-79141330D01*
X41199026Y-77439725D01*
X41199026Y-75066459D01*
X42176014Y-74089472D01*
X42176018Y-74089467D01*
X42392173Y-73873313D01*
X42519017Y-73820772D01*
X42721292Y-73685616D01*
X42893312Y-73513596D01*
X42904849Y-73496329D01*
X55702540Y-73496329D01*
X55702540Y-74496329D01*
X55720438Y-74678053D01*
X55773445Y-74852793D01*
X55859524Y-75013834D01*
X55975366Y-75154988D01*
X56116520Y-75270830D01*
X56277561Y-75356909D01*
X56452301Y-75409916D01*
X56497009Y-75414319D01*
X56389845Y-75446827D01*
X56279531Y-75505792D01*
X56182840Y-75585144D01*
X56103488Y-75681835D01*
X56044523Y-75792149D01*
X56008213Y-75911847D01*
X55995953Y-76036329D01*
X55995953Y-77036329D01*
X56008213Y-77160811D01*
X56044523Y-77280509D01*
X56103488Y-77390823D01*
X56182840Y-77487514D01*
X56279531Y-77566866D01*
X56389845Y-77625831D01*
X56509543Y-77662141D01*
X56634025Y-77674401D01*
X57634025Y-77674401D01*
X57758507Y-77662141D01*
X57878205Y-77625831D01*
X57988519Y-77566866D01*
X58085210Y-77487514D01*
X58164562Y-77390823D01*
X58223527Y-77280509D01*
X58259837Y-77160811D01*
X58272097Y-77036329D01*
X58272097Y-76036329D01*
X58259837Y-75911847D01*
X58223527Y-75792149D01*
X58164562Y-75681835D01*
X58085210Y-75585144D01*
X57988519Y-75505792D01*
X57878205Y-75446827D01*
X57771041Y-75414319D01*
X57815749Y-75409916D01*
X57990489Y-75356909D01*
X58151530Y-75270830D01*
X58292684Y-75154988D01*
X58408526Y-75013834D01*
X58494605Y-74852793D01*
X58547612Y-74678053D01*
X58565510Y-74496329D01*
X58565510Y-73496329D01*
X58547612Y-73314605D01*
X58494605Y-73139865D01*
X58408526Y-72978824D01*
X58292684Y-72837670D01*
X58151530Y-72721828D01*
X57990489Y-72635749D01*
X57815749Y-72582742D01*
X57634025Y-72564844D01*
X56634025Y-72564844D01*
X56452301Y-72582742D01*
X56277561Y-72635749D01*
X56116520Y-72721828D01*
X55975366Y-72837670D01*
X55859524Y-72978824D01*
X55773445Y-73139865D01*
X55720438Y-73314605D01*
X55702540Y-73496329D01*
X42904849Y-73496329D01*
X43028468Y-73311321D01*
X43081008Y-73184477D01*
X43297164Y-72968322D01*
X43340473Y-72932779D01*
X43482308Y-72759953D01*
X43587700Y-72562777D01*
X43652601Y-72348829D01*
X43669799Y-72174214D01*
X48319025Y-67524988D01*
X48319025Y-67767966D01*
X48366485Y-68006565D01*
X48459582Y-68231321D01*
X48594738Y-68433596D01*
X48766758Y-68605616D01*
X48969033Y-68740772D01*
X49193789Y-68833869D01*
X49432388Y-68881329D01*
X49675662Y-68881329D01*
X49914261Y-68833869D01*
X50041104Y-68781329D01*
X56893894Y-68781329D01*
X61079025Y-72966461D01*
X61079025Y-73465137D01*
X61075953Y-73496329D01*
X61075953Y-73971768D01*
X61073534Y-73996329D01*
X61075953Y-74020890D01*
X61075953Y-74496329D01*
X61088213Y-74620811D01*
X61124523Y-74740509D01*
X61183488Y-74850823D01*
X61262840Y-74947514D01*
X61359531Y-75026866D01*
X61469845Y-75085831D01*
X61589543Y-75122141D01*
X61714025Y-75134401D01*
X61746966Y-75134401D01*
X62010822Y-75398257D01*
X61714025Y-75398257D01*
X61589543Y-75410517D01*
X61469845Y-75446827D01*
X61359531Y-75505792D01*
X61262840Y-75585144D01*
X61183488Y-75681835D01*
X61124523Y-75792149D01*
X61088213Y-75911847D01*
X61075953Y-76036329D01*
X61075953Y-77036329D01*
X61088213Y-77160811D01*
X61124523Y-77280509D01*
X61183488Y-77390823D01*
X61262840Y-77487514D01*
X61359531Y-77566866D01*
X61469845Y-77625831D01*
X61589543Y-77662141D01*
X61714025Y-77674401D01*
X62714025Y-77674401D01*
X62838507Y-77662141D01*
X62958205Y-77625831D01*
X63068519Y-77566866D01*
X63165210Y-77487514D01*
X63244562Y-77390823D01*
X63303527Y-77280509D01*
X63339837Y-77160811D01*
X63352097Y-77036329D01*
X63352097Y-76393826D01*
X63428273Y-76401329D01*
X63428280Y-76401329D01*
X63484024Y-76406819D01*
X63539768Y-76401329D01*
X76878208Y-76401329D01*
X77005051Y-76453869D01*
X77243650Y-76501329D01*
X77486924Y-76501329D01*
X77725523Y-76453869D01*
X77950279Y-76360772D01*
X78152554Y-76225616D01*
X78324574Y-76053596D01*
X78459730Y-75851321D01*
X78552827Y-75626565D01*
X78600287Y-75387966D01*
X78600287Y-75144692D01*
X78552827Y-74906093D01*
X78459730Y-74681337D01*
X78324574Y-74479062D01*
X78152554Y-74307042D01*
X77950279Y-74171886D01*
X77725523Y-74078789D01*
X77486924Y-74031329D01*
X77243650Y-74031329D01*
X77005051Y-74078789D01*
X76878208Y-74131329D01*
X63954157Y-74131329D01*
X63352097Y-73529270D01*
X63352097Y-73496329D01*
X63349025Y-73465137D01*
X63349025Y-72552081D01*
X63354516Y-72496329D01*
X63332602Y-72273830D01*
X63267701Y-72059882D01*
X63162309Y-71862706D01*
X63083799Y-71767042D01*
X63020474Y-71689880D01*
X62977166Y-71654338D01*
X59185030Y-67862203D01*
X59388275Y-67861329D01*
X59547025Y-67702579D01*
X59547025Y-66503329D01*
X59801025Y-66503329D01*
X59801025Y-67702579D01*
X59959775Y-67861329D01*
X60674025Y-67864401D01*
X60798507Y-67852141D01*
X60918205Y-67815831D01*
X61028519Y-67756866D01*
X61125210Y-67677514D01*
X61204562Y-67580823D01*
X61263527Y-67470509D01*
X61299837Y-67350811D01*
X61312097Y-67226329D01*
X61309025Y-66662079D01*
X61150275Y-66503329D01*
X59801025Y-66503329D01*
X59547025Y-66503329D01*
X58197775Y-66503329D01*
X58039025Y-66662079D01*
X58038646Y-66731691D01*
X57997648Y-66698045D01*
X57800472Y-66592653D01*
X57586524Y-66527752D01*
X57419777Y-66511329D01*
X57419776Y-66511329D01*
X57364025Y-66505838D01*
X57308274Y-66511329D01*
X50041104Y-66511329D01*
X49914261Y-66458789D01*
X49675662Y-66411329D01*
X49432684Y-66411329D01*
X51967684Y-63876329D01*
X57738427Y-63876329D01*
X57772737Y-64224682D01*
X57874348Y-64559648D01*
X58039355Y-64868354D01*
X58215952Y-65083537D01*
X58143488Y-65171835D01*
X58084523Y-65282149D01*
X58048213Y-65401847D01*
X58035953Y-65526329D01*
X58039025Y-66090579D01*
X58197775Y-66249329D01*
X59547025Y-66249329D01*
X59547025Y-66229329D01*
X59801025Y-66229329D01*
X59801025Y-66249329D01*
X61150275Y-66249329D01*
X61309025Y-66090579D01*
X61312097Y-65526329D01*
X61299837Y-65401847D01*
X61263527Y-65282149D01*
X61204562Y-65171835D01*
X61132098Y-65083537D01*
X61308695Y-64868354D01*
X61473702Y-64559648D01*
X61575313Y-64224682D01*
X61609623Y-63876329D01*
X61575313Y-63527976D01*
X61473702Y-63193010D01*
X61308695Y-62884304D01*
X61086633Y-62613721D01*
X60816050Y-62391659D01*
X60507344Y-62226652D01*
X60172378Y-62125041D01*
X59911321Y-62099329D01*
X59436729Y-62099329D01*
X59175672Y-62125041D01*
X58840706Y-62226652D01*
X58532000Y-62391659D01*
X58261417Y-62613721D01*
X58039355Y-62884304D01*
X57874348Y-63193010D01*
X57772737Y-63527976D01*
X57738427Y-63876329D01*
X51967684Y-63876329D01*
X58035953Y-57808061D01*
X58035953Y-58046329D01*
X58053017Y-58219583D01*
X58103553Y-58386179D01*
X58185620Y-58539715D01*
X58296063Y-58674291D01*
X58430639Y-58784734D01*
X58584175Y-58866801D01*
X58750771Y-58917337D01*
X58924025Y-58934401D01*
X60424025Y-58934401D01*
X60597279Y-58917337D01*
X60763875Y-58866801D01*
X60917411Y-58784734D01*
X61051987Y-58674291D01*
X61162430Y-58539715D01*
X61244497Y-58386179D01*
X61295033Y-58219583D01*
X61312097Y-58046329D01*
X61312097Y-56846329D01*
X61295033Y-56673075D01*
X61244497Y-56506479D01*
X61162430Y-56352943D01*
X61051987Y-56218367D01*
X60917411Y-56107924D01*
X60815688Y-56053552D01*
X60879159Y-56001463D01*
X61064731Y-55775343D01*
X61202624Y-55517363D01*
X61287538Y-55237440D01*
X61316210Y-54946329D01*
X61287538Y-54655218D01*
X61202624Y-54375295D01*
X61064731Y-54117315D01*
X60879159Y-53891195D01*
X60809025Y-53833637D01*
X60809025Y-53357383D01*
X85820236Y-53357383D01*
X85820236Y-53797639D01*
X85906126Y-54229436D01*
X86074605Y-54636180D01*
X86319198Y-55002240D01*
X86630507Y-55313549D01*
X86996567Y-55558142D01*
X87403311Y-55726621D01*
X87835108Y-55812511D01*
X88275364Y-55812511D01*
X88707161Y-55726621D01*
X89113905Y-55558142D01*
X89479965Y-55313549D01*
X89791274Y-55002240D01*
X90035867Y-54636180D01*
X90204346Y-54229436D01*
X90290236Y-53797639D01*
X90290236Y-53357383D01*
X90204346Y-52925586D01*
X90035867Y-52518842D01*
X89791274Y-52152782D01*
X89479965Y-51841473D01*
X89113905Y-51596880D01*
X88707161Y-51428401D01*
X88275364Y-51342511D01*
X87835108Y-51342511D01*
X87403311Y-51428401D01*
X86996567Y-51596880D01*
X86630507Y-51841473D01*
X86319198Y-52152782D01*
X86074605Y-52518842D01*
X85906126Y-52925586D01*
X85820236Y-53357383D01*
X60809025Y-53357383D01*
X60809025Y-53152072D01*
X60814515Y-53096328D01*
X60809025Y-53040584D01*
X60809025Y-53040577D01*
X60792602Y-52873830D01*
X60727701Y-52659882D01*
X60622309Y-52462706D01*
X60480474Y-52289880D01*
X60437165Y-52254338D01*
X59109015Y-50926188D01*
X59109015Y-50044401D01*
X60424025Y-50044401D01*
X60597279Y-50027337D01*
X60763875Y-49976801D01*
X60917411Y-49894734D01*
X61051987Y-49784291D01*
X61162430Y-49649715D01*
X61244497Y-49496179D01*
X61295033Y-49329583D01*
X61312097Y-49156329D01*
X61312097Y-47956329D01*
X61295033Y-47783075D01*
X61244497Y-47616479D01*
X61162430Y-47462943D01*
X61051987Y-47328367D01*
X60917411Y-47217924D01*
X60815688Y-47163552D01*
X60879159Y-47111463D01*
X61064731Y-46885343D01*
X61202624Y-46627363D01*
X61287538Y-46347440D01*
X61316210Y-46056329D01*
X61287538Y-45765218D01*
X61202624Y-45485295D01*
X61064731Y-45227315D01*
X60879159Y-45001195D01*
X60809025Y-44943637D01*
X60809025Y-44163646D01*
X60820264Y-44149951D01*
X60925656Y-43952775D01*
X60990557Y-43738827D01*
X61012471Y-43516329D01*
X60990557Y-43293830D01*
X60925656Y-43079882D01*
X60820264Y-42882706D01*
X60678429Y-42709880D01*
X60505603Y-42568045D01*
X60308427Y-42462653D01*
X60094479Y-42397752D01*
X59871980Y-42375838D01*
X59649482Y-42397752D01*
X59435534Y-42462653D01*
X59238358Y-42568045D01*
X59108837Y-42674340D01*
X58910888Y-42872289D01*
X58867576Y-42907835D01*
X58725741Y-43080661D01*
X58620350Y-43277837D01*
X58620349Y-43277838D01*
X58555448Y-43491786D01*
X58533534Y-43714284D01*
X58539025Y-43770036D01*
X58539026Y-44943637D01*
X58468891Y-45001195D01*
X58283319Y-45227315D01*
X58145426Y-45485295D01*
X58060512Y-45765218D01*
X58048934Y-45882767D01*
X57210879Y-46720824D01*
X57167566Y-46756370D01*
X57025731Y-46929196D01*
X56920340Y-47126372D01*
X56920339Y-47126373D01*
X56855438Y-47340321D01*
X56833524Y-47562819D01*
X56839015Y-47618571D01*
X56839016Y-51340558D01*
X56833524Y-51396319D01*
X56855438Y-51618817D01*
X56920339Y-51832765D01*
X56924994Y-51841473D01*
X57025732Y-52029942D01*
X57167567Y-52202768D01*
X57210875Y-52238310D01*
X58539025Y-53566461D01*
X58539025Y-53833637D01*
X58468891Y-53891195D01*
X58283319Y-54117315D01*
X58145426Y-54375295D01*
X58096209Y-54537541D01*
X41770889Y-70862862D01*
X41727575Y-70898409D01*
X41585740Y-71071235D01*
X41482527Y-71264335D01*
X41480348Y-71268412D01*
X41415447Y-71482360D01*
X41402918Y-71609566D01*
X41349033Y-71631886D01*
X41146758Y-71767042D01*
X40974738Y-71939062D01*
X40839582Y-72141337D01*
X40787041Y-72268181D01*
X40570887Y-72484336D01*
X40570882Y-72484340D01*
X39300886Y-73754337D01*
X39257578Y-73789879D01*
X39115743Y-73962705D01*
X39097771Y-73996329D01*
X39010350Y-74159882D01*
X38945449Y-74373830D01*
X38923535Y-74596328D01*
X26117539Y-74596328D01*
X26263235Y-67956055D01*
X26583406Y-60494243D01*
X27039555Y-53357147D01*
X29138237Y-53357147D01*
X29138237Y-53797403D01*
X29224127Y-54229200D01*
X29392606Y-54635944D01*
X29637199Y-55002004D01*
X29948508Y-55313313D01*
X30314568Y-55557906D01*
X30721312Y-55726385D01*
X31153109Y-55812275D01*
X31593365Y-55812275D01*
X32025162Y-55726385D01*
X32431906Y-55557906D01*
X32797966Y-55313313D01*
X33109275Y-55002004D01*
X33353868Y-54635944D01*
X33522347Y-54229200D01*
X33608237Y-53797403D01*
X33608237Y-53357147D01*
X33522347Y-52925350D01*
X33353868Y-52518606D01*
X33109275Y-52152546D01*
X32797966Y-51841237D01*
X32431906Y-51596644D01*
X32025162Y-51428165D01*
X31593365Y-51342275D01*
X31153109Y-51342275D01*
X30721312Y-51428165D01*
X30314568Y-51596644D01*
X29948508Y-51841237D01*
X29637199Y-52152546D01*
X29392606Y-52518606D01*
X29224127Y-52925350D01*
X29138237Y-53357147D01*
X27039555Y-53357147D01*
X27059774Y-53040799D01*
X27692136Y-45598898D01*
X28480208Y-38171893D01*
X29423839Y-30761509D01*
X29962239Y-27030208D01*
X89463686Y-27030456D01*
M02*
