%TF.GenerationSoftware,KiCad,Pcbnew,(5.1.5)-3*%
%TF.CreationDate,2020-08-07T17:04:35+02:00*%
%TF.ProjectId,continuity,636f6e74-696e-4756-9974-792e6b696361,rev?*%
%TF.SameCoordinates,Original*%
%TF.FileFunction,Copper,L1,Top*%
%TF.FilePolarity,Positive*%
%FSLAX46Y46*%
G04 Gerber Fmt 4.6, Leading zero omitted, Abs format (unit mm)*
G04 Created by KiCad (PCBNEW (5.1.5)-3) date 2020-08-07 17:04:35*
%MOMM*%
%LPD*%
G04 APERTURE LIST*
%ADD10C,0.100000*%
%ADD11C,0.381000*%
%ADD12O,2.000000X1.700000*%
%ADD13R,2.600000X1.500000*%
%ADD14R,1.000000X1.000000*%
%ADD15C,0.500000*%
%ADD16R,0.800000X3.400000*%
%ADD17R,1.850000X3.400000*%
%ADD18C,2.000000*%
%ADD19R,2.000000X2.000000*%
%ADD20R,2.000000X1.500000*%
%ADD21R,2.000000X3.800000*%
%ADD22R,0.650000X1.060000*%
%ADD23R,0.600000X0.700000*%
%ADD24R,1.800000X3.500000*%
%ADD25C,1.200000*%
%ADD26C,1.000000*%
%ADD27C,0.500000*%
%ADD28C,0.250000*%
G04 APERTURE END LIST*
D10*
G36*
X68219025Y-69091329D02*
G01*
X68219025Y-70091329D01*
X67719025Y-70091329D01*
X67719025Y-69091329D01*
X68219025Y-69091329D01*
G37*
D11*
X91960700Y-101600000D02*
G75*
G03X91960700Y-101600000I-1790700J0D01*
G01*
X91699080Y-101600000D02*
G75*
G03X91699080Y-101600000I-1529080J0D01*
G01*
X33540700Y-29210000D02*
G75*
G03X33540700Y-29210000I-1790700J0D01*
G01*
X33279080Y-29210000D02*
G75*
G03X33279080Y-29210000I-1529080J0D01*
G01*
D12*
X59674025Y-63876329D03*
%TA.AperFunction,ComponentPad*%
D10*
G36*
X60448529Y-65527533D02*
G01*
X60472798Y-65531133D01*
X60496596Y-65537094D01*
X60519696Y-65545359D01*
X60541874Y-65555849D01*
X60562918Y-65568462D01*
X60582623Y-65583076D01*
X60600802Y-65599552D01*
X60617278Y-65617731D01*
X60631892Y-65637436D01*
X60644505Y-65658480D01*
X60654995Y-65680658D01*
X60663260Y-65703758D01*
X60669221Y-65727556D01*
X60672821Y-65751825D01*
X60674025Y-65776329D01*
X60674025Y-66976329D01*
X60672821Y-67000833D01*
X60669221Y-67025102D01*
X60663260Y-67048900D01*
X60654995Y-67072000D01*
X60644505Y-67094178D01*
X60631892Y-67115222D01*
X60617278Y-67134927D01*
X60600802Y-67153106D01*
X60582623Y-67169582D01*
X60562918Y-67184196D01*
X60541874Y-67196809D01*
X60519696Y-67207299D01*
X60496596Y-67215564D01*
X60472798Y-67221525D01*
X60448529Y-67225125D01*
X60424025Y-67226329D01*
X58924025Y-67226329D01*
X58899521Y-67225125D01*
X58875252Y-67221525D01*
X58851454Y-67215564D01*
X58828354Y-67207299D01*
X58806176Y-67196809D01*
X58785132Y-67184196D01*
X58765427Y-67169582D01*
X58747248Y-67153106D01*
X58730772Y-67134927D01*
X58716158Y-67115222D01*
X58703545Y-67094178D01*
X58693055Y-67072000D01*
X58684790Y-67048900D01*
X58678829Y-67025102D01*
X58675229Y-67000833D01*
X58674025Y-66976329D01*
X58674025Y-65776329D01*
X58675229Y-65751825D01*
X58678829Y-65727556D01*
X58684790Y-65703758D01*
X58693055Y-65680658D01*
X58703545Y-65658480D01*
X58716158Y-65637436D01*
X58730772Y-65617731D01*
X58747248Y-65599552D01*
X58765427Y-65583076D01*
X58785132Y-65568462D01*
X58806176Y-65555849D01*
X58828354Y-65545359D01*
X58851454Y-65537094D01*
X58875252Y-65531133D01*
X58899521Y-65527533D01*
X58924025Y-65526329D01*
X60424025Y-65526329D01*
X60448529Y-65527533D01*
G37*
%TD.AperFunction*%
D12*
X43839025Y-99356329D03*
%TA.AperFunction,ComponentPad*%
D10*
G36*
X44613529Y-96007533D02*
G01*
X44637798Y-96011133D01*
X44661596Y-96017094D01*
X44684696Y-96025359D01*
X44706874Y-96035849D01*
X44727918Y-96048462D01*
X44747623Y-96063076D01*
X44765802Y-96079552D01*
X44782278Y-96097731D01*
X44796892Y-96117436D01*
X44809505Y-96138480D01*
X44819995Y-96160658D01*
X44828260Y-96183758D01*
X44834221Y-96207556D01*
X44837821Y-96231825D01*
X44839025Y-96256329D01*
X44839025Y-97456329D01*
X44837821Y-97480833D01*
X44834221Y-97505102D01*
X44828260Y-97528900D01*
X44819995Y-97552000D01*
X44809505Y-97574178D01*
X44796892Y-97595222D01*
X44782278Y-97614927D01*
X44765802Y-97633106D01*
X44747623Y-97649582D01*
X44727918Y-97664196D01*
X44706874Y-97676809D01*
X44684696Y-97687299D01*
X44661596Y-97695564D01*
X44637798Y-97701525D01*
X44613529Y-97705125D01*
X44589025Y-97706329D01*
X43089025Y-97706329D01*
X43064521Y-97705125D01*
X43040252Y-97701525D01*
X43016454Y-97695564D01*
X42993354Y-97687299D01*
X42971176Y-97676809D01*
X42950132Y-97664196D01*
X42930427Y-97649582D01*
X42912248Y-97633106D01*
X42895772Y-97614927D01*
X42881158Y-97595222D01*
X42868545Y-97574178D01*
X42858055Y-97552000D01*
X42849790Y-97528900D01*
X42843829Y-97505102D01*
X42840229Y-97480833D01*
X42839025Y-97456329D01*
X42839025Y-96256329D01*
X42840229Y-96231825D01*
X42843829Y-96207556D01*
X42849790Y-96183758D01*
X42858055Y-96160658D01*
X42868545Y-96138480D01*
X42881158Y-96117436D01*
X42895772Y-96097731D01*
X42912248Y-96079552D01*
X42930427Y-96063076D01*
X42950132Y-96048462D01*
X42971176Y-96035849D01*
X42993354Y-96025359D01*
X43016454Y-96017094D01*
X43040252Y-96011133D01*
X43064521Y-96007533D01*
X43089025Y-96006329D01*
X44589025Y-96006329D01*
X44613529Y-96007533D01*
G37*
%TD.AperFunction*%
%TA.AperFunction,SMDPad,CuDef*%
G36*
X48199804Y-82412473D02*
G01*
X48222859Y-82415892D01*
X48245468Y-82421556D01*
X48267412Y-82429408D01*
X48288482Y-82439373D01*
X48308473Y-82451355D01*
X48327193Y-82465239D01*
X48344463Y-82480891D01*
X48360115Y-82498161D01*
X48373999Y-82516881D01*
X48385981Y-82536872D01*
X48395946Y-82557942D01*
X48403798Y-82579886D01*
X48409462Y-82602495D01*
X48412881Y-82625550D01*
X48414025Y-82648829D01*
X48414025Y-83123829D01*
X48412881Y-83147108D01*
X48409462Y-83170163D01*
X48403798Y-83192772D01*
X48395946Y-83214716D01*
X48385981Y-83235786D01*
X48373999Y-83255777D01*
X48360115Y-83274497D01*
X48344463Y-83291767D01*
X48327193Y-83307419D01*
X48308473Y-83321303D01*
X48288482Y-83333285D01*
X48267412Y-83343250D01*
X48245468Y-83351102D01*
X48222859Y-83356766D01*
X48199804Y-83360185D01*
X48176525Y-83361329D01*
X47601525Y-83361329D01*
X47578246Y-83360185D01*
X47555191Y-83356766D01*
X47532582Y-83351102D01*
X47510638Y-83343250D01*
X47489568Y-83333285D01*
X47469577Y-83321303D01*
X47450857Y-83307419D01*
X47433587Y-83291767D01*
X47417935Y-83274497D01*
X47404051Y-83255777D01*
X47392069Y-83235786D01*
X47382104Y-83214716D01*
X47374252Y-83192772D01*
X47368588Y-83170163D01*
X47365169Y-83147108D01*
X47364025Y-83123829D01*
X47364025Y-82648829D01*
X47365169Y-82625550D01*
X47368588Y-82602495D01*
X47374252Y-82579886D01*
X47382104Y-82557942D01*
X47392069Y-82536872D01*
X47404051Y-82516881D01*
X47417935Y-82498161D01*
X47433587Y-82480891D01*
X47450857Y-82465239D01*
X47469577Y-82451355D01*
X47489568Y-82439373D01*
X47510638Y-82429408D01*
X47532582Y-82421556D01*
X47555191Y-82415892D01*
X47578246Y-82412473D01*
X47601525Y-82411329D01*
X48176525Y-82411329D01*
X48199804Y-82412473D01*
G37*
%TD.AperFunction*%
%TA.AperFunction,SMDPad,CuDef*%
G36*
X46449804Y-82412473D02*
G01*
X46472859Y-82415892D01*
X46495468Y-82421556D01*
X46517412Y-82429408D01*
X46538482Y-82439373D01*
X46558473Y-82451355D01*
X46577193Y-82465239D01*
X46594463Y-82480891D01*
X46610115Y-82498161D01*
X46623999Y-82516881D01*
X46635981Y-82536872D01*
X46645946Y-82557942D01*
X46653798Y-82579886D01*
X46659462Y-82602495D01*
X46662881Y-82625550D01*
X46664025Y-82648829D01*
X46664025Y-83123829D01*
X46662881Y-83147108D01*
X46659462Y-83170163D01*
X46653798Y-83192772D01*
X46645946Y-83214716D01*
X46635981Y-83235786D01*
X46623999Y-83255777D01*
X46610115Y-83274497D01*
X46594463Y-83291767D01*
X46577193Y-83307419D01*
X46558473Y-83321303D01*
X46538482Y-83333285D01*
X46517412Y-83343250D01*
X46495468Y-83351102D01*
X46472859Y-83356766D01*
X46449804Y-83360185D01*
X46426525Y-83361329D01*
X45851525Y-83361329D01*
X45828246Y-83360185D01*
X45805191Y-83356766D01*
X45782582Y-83351102D01*
X45760638Y-83343250D01*
X45739568Y-83333285D01*
X45719577Y-83321303D01*
X45700857Y-83307419D01*
X45683587Y-83291767D01*
X45667935Y-83274497D01*
X45654051Y-83255777D01*
X45642069Y-83235786D01*
X45632104Y-83214716D01*
X45624252Y-83192772D01*
X45618588Y-83170163D01*
X45615169Y-83147108D01*
X45614025Y-83123829D01*
X45614025Y-82648829D01*
X45615169Y-82625550D01*
X45618588Y-82602495D01*
X45624252Y-82579886D01*
X45632104Y-82557942D01*
X45642069Y-82536872D01*
X45654051Y-82516881D01*
X45667935Y-82498161D01*
X45683587Y-82480891D01*
X45700857Y-82465239D01*
X45719577Y-82451355D01*
X45739568Y-82439373D01*
X45760638Y-82429408D01*
X45782582Y-82421556D01*
X45805191Y-82415892D01*
X45828246Y-82412473D01*
X45851525Y-82411329D01*
X46426525Y-82411329D01*
X46449804Y-82412473D01*
G37*
%TD.AperFunction*%
%TA.AperFunction,SMDPad,CuDef*%
G36*
X53624804Y-45927473D02*
G01*
X53647859Y-45930892D01*
X53670468Y-45936556D01*
X53692412Y-45944408D01*
X53713482Y-45954373D01*
X53733473Y-45966355D01*
X53752193Y-45980239D01*
X53769463Y-45995891D01*
X53785115Y-46013161D01*
X53798999Y-46031881D01*
X53810981Y-46051872D01*
X53820946Y-46072942D01*
X53828798Y-46094886D01*
X53834462Y-46117495D01*
X53837881Y-46140550D01*
X53839025Y-46163829D01*
X53839025Y-46738829D01*
X53837881Y-46762108D01*
X53834462Y-46785163D01*
X53828798Y-46807772D01*
X53820946Y-46829716D01*
X53810981Y-46850786D01*
X53798999Y-46870777D01*
X53785115Y-46889497D01*
X53769463Y-46906767D01*
X53752193Y-46922419D01*
X53733473Y-46936303D01*
X53713482Y-46948285D01*
X53692412Y-46958250D01*
X53670468Y-46966102D01*
X53647859Y-46971766D01*
X53624804Y-46975185D01*
X53601525Y-46976329D01*
X53126525Y-46976329D01*
X53103246Y-46975185D01*
X53080191Y-46971766D01*
X53057582Y-46966102D01*
X53035638Y-46958250D01*
X53014568Y-46948285D01*
X52994577Y-46936303D01*
X52975857Y-46922419D01*
X52958587Y-46906767D01*
X52942935Y-46889497D01*
X52929051Y-46870777D01*
X52917069Y-46850786D01*
X52907104Y-46829716D01*
X52899252Y-46807772D01*
X52893588Y-46785163D01*
X52890169Y-46762108D01*
X52889025Y-46738829D01*
X52889025Y-46163829D01*
X52890169Y-46140550D01*
X52893588Y-46117495D01*
X52899252Y-46094886D01*
X52907104Y-46072942D01*
X52917069Y-46051872D01*
X52929051Y-46031881D01*
X52942935Y-46013161D01*
X52958587Y-45995891D01*
X52975857Y-45980239D01*
X52994577Y-45966355D01*
X53014568Y-45954373D01*
X53035638Y-45944408D01*
X53057582Y-45936556D01*
X53080191Y-45930892D01*
X53103246Y-45927473D01*
X53126525Y-45926329D01*
X53601525Y-45926329D01*
X53624804Y-45927473D01*
G37*
%TD.AperFunction*%
%TA.AperFunction,SMDPad,CuDef*%
G36*
X53624804Y-47677473D02*
G01*
X53647859Y-47680892D01*
X53670468Y-47686556D01*
X53692412Y-47694408D01*
X53713482Y-47704373D01*
X53733473Y-47716355D01*
X53752193Y-47730239D01*
X53769463Y-47745891D01*
X53785115Y-47763161D01*
X53798999Y-47781881D01*
X53810981Y-47801872D01*
X53820946Y-47822942D01*
X53828798Y-47844886D01*
X53834462Y-47867495D01*
X53837881Y-47890550D01*
X53839025Y-47913829D01*
X53839025Y-48488829D01*
X53837881Y-48512108D01*
X53834462Y-48535163D01*
X53828798Y-48557772D01*
X53820946Y-48579716D01*
X53810981Y-48600786D01*
X53798999Y-48620777D01*
X53785115Y-48639497D01*
X53769463Y-48656767D01*
X53752193Y-48672419D01*
X53733473Y-48686303D01*
X53713482Y-48698285D01*
X53692412Y-48708250D01*
X53670468Y-48716102D01*
X53647859Y-48721766D01*
X53624804Y-48725185D01*
X53601525Y-48726329D01*
X53126525Y-48726329D01*
X53103246Y-48725185D01*
X53080191Y-48721766D01*
X53057582Y-48716102D01*
X53035638Y-48708250D01*
X53014568Y-48698285D01*
X52994577Y-48686303D01*
X52975857Y-48672419D01*
X52958587Y-48656767D01*
X52942935Y-48639497D01*
X52929051Y-48620777D01*
X52917069Y-48600786D01*
X52907104Y-48579716D01*
X52899252Y-48557772D01*
X52893588Y-48535163D01*
X52890169Y-48512108D01*
X52889025Y-48488829D01*
X52889025Y-47913829D01*
X52890169Y-47890550D01*
X52893588Y-47867495D01*
X52899252Y-47844886D01*
X52907104Y-47822942D01*
X52917069Y-47801872D01*
X52929051Y-47781881D01*
X52942935Y-47763161D01*
X52958587Y-47745891D01*
X52975857Y-47730239D01*
X52994577Y-47716355D01*
X53014568Y-47704373D01*
X53035638Y-47694408D01*
X53057582Y-47686556D01*
X53080191Y-47680892D01*
X53103246Y-47677473D01*
X53126525Y-47676329D01*
X53601525Y-47676329D01*
X53624804Y-47677473D01*
G37*
%TD.AperFunction*%
D12*
X59674025Y-46056329D03*
%TA.AperFunction,ComponentPad*%
D10*
G36*
X60448529Y-47707533D02*
G01*
X60472798Y-47711133D01*
X60496596Y-47717094D01*
X60519696Y-47725359D01*
X60541874Y-47735849D01*
X60562918Y-47748462D01*
X60582623Y-47763076D01*
X60600802Y-47779552D01*
X60617278Y-47797731D01*
X60631892Y-47817436D01*
X60644505Y-47838480D01*
X60654995Y-47860658D01*
X60663260Y-47883758D01*
X60669221Y-47907556D01*
X60672821Y-47931825D01*
X60674025Y-47956329D01*
X60674025Y-49156329D01*
X60672821Y-49180833D01*
X60669221Y-49205102D01*
X60663260Y-49228900D01*
X60654995Y-49252000D01*
X60644505Y-49274178D01*
X60631892Y-49295222D01*
X60617278Y-49314927D01*
X60600802Y-49333106D01*
X60582623Y-49349582D01*
X60562918Y-49364196D01*
X60541874Y-49376809D01*
X60519696Y-49387299D01*
X60496596Y-49395564D01*
X60472798Y-49401525D01*
X60448529Y-49405125D01*
X60424025Y-49406329D01*
X58924025Y-49406329D01*
X58899521Y-49405125D01*
X58875252Y-49401525D01*
X58851454Y-49395564D01*
X58828354Y-49387299D01*
X58806176Y-49376809D01*
X58785132Y-49364196D01*
X58765427Y-49349582D01*
X58747248Y-49333106D01*
X58730772Y-49314927D01*
X58716158Y-49295222D01*
X58703545Y-49274178D01*
X58693055Y-49252000D01*
X58684790Y-49228900D01*
X58678829Y-49205102D01*
X58675229Y-49180833D01*
X58674025Y-49156329D01*
X58674025Y-47956329D01*
X58675229Y-47931825D01*
X58678829Y-47907556D01*
X58684790Y-47883758D01*
X58693055Y-47860658D01*
X58703545Y-47838480D01*
X58716158Y-47817436D01*
X58730772Y-47797731D01*
X58747248Y-47779552D01*
X58765427Y-47763076D01*
X58785132Y-47748462D01*
X58806176Y-47735849D01*
X58828354Y-47725359D01*
X58851454Y-47717094D01*
X58875252Y-47711133D01*
X58899521Y-47707533D01*
X58924025Y-47706329D01*
X60424025Y-47706329D01*
X60448529Y-47707533D01*
G37*
%TD.AperFunction*%
D13*
X57134025Y-34856329D03*
X57134025Y-31856329D03*
D14*
X57134025Y-79076329D03*
D15*
X67969025Y-70091329D03*
X67969025Y-69091329D03*
D14*
X57134025Y-81616329D03*
X62214025Y-81616329D03*
X62214025Y-79076329D03*
X57134025Y-76536329D03*
X62214025Y-76536329D03*
X57134025Y-73996329D03*
X62214025Y-73996329D03*
D16*
X71104025Y-62566329D03*
%TA.AperFunction,SMDPad,CuDef*%
D10*
G36*
X74054025Y-64096329D02*
G01*
X73884025Y-64266329D01*
X72204025Y-64266329D01*
X72204025Y-60866329D01*
X74054025Y-60866329D01*
X74054025Y-64096329D01*
G37*
%TD.AperFunction*%
D17*
X69079025Y-62566329D03*
D18*
X59714025Y-90526329D03*
D19*
X59714025Y-98126329D03*
%TA.AperFunction,SMDPad,CuDef*%
D10*
G36*
X74968529Y-67392533D02*
G01*
X74992798Y-67396133D01*
X75016596Y-67402094D01*
X75039696Y-67410359D01*
X75061874Y-67420849D01*
X75082918Y-67433462D01*
X75102623Y-67448076D01*
X75120802Y-67464552D01*
X75137278Y-67482731D01*
X75151892Y-67502436D01*
X75164505Y-67523480D01*
X75174995Y-67545658D01*
X75183260Y-67568758D01*
X75189221Y-67592556D01*
X75192821Y-67616825D01*
X75194025Y-67641329D01*
X75194025Y-68566329D01*
X75192821Y-68590833D01*
X75189221Y-68615102D01*
X75183260Y-68638900D01*
X75174995Y-68662000D01*
X75164505Y-68684178D01*
X75151892Y-68705222D01*
X75137278Y-68724927D01*
X75120802Y-68743106D01*
X75102623Y-68759582D01*
X75082918Y-68774196D01*
X75061874Y-68786809D01*
X75039696Y-68797299D01*
X75016596Y-68805564D01*
X74992798Y-68811525D01*
X74968529Y-68815125D01*
X74944025Y-68816329D01*
X73694025Y-68816329D01*
X73669521Y-68815125D01*
X73645252Y-68811525D01*
X73621454Y-68805564D01*
X73598354Y-68797299D01*
X73576176Y-68786809D01*
X73555132Y-68774196D01*
X73535427Y-68759582D01*
X73517248Y-68743106D01*
X73500772Y-68724927D01*
X73486158Y-68705222D01*
X73473545Y-68684178D01*
X73463055Y-68662000D01*
X73454790Y-68638900D01*
X73448829Y-68615102D01*
X73445229Y-68590833D01*
X73444025Y-68566329D01*
X73444025Y-67641329D01*
X73445229Y-67616825D01*
X73448829Y-67592556D01*
X73454790Y-67568758D01*
X73463055Y-67545658D01*
X73473545Y-67523480D01*
X73486158Y-67502436D01*
X73500772Y-67482731D01*
X73517248Y-67464552D01*
X73535427Y-67448076D01*
X73555132Y-67433462D01*
X73576176Y-67420849D01*
X73598354Y-67410359D01*
X73621454Y-67402094D01*
X73645252Y-67396133D01*
X73669521Y-67392533D01*
X73694025Y-67391329D01*
X74944025Y-67391329D01*
X74968529Y-67392533D01*
G37*
%TD.AperFunction*%
%TA.AperFunction,SMDPad,CuDef*%
G36*
X74968529Y-70367533D02*
G01*
X74992798Y-70371133D01*
X75016596Y-70377094D01*
X75039696Y-70385359D01*
X75061874Y-70395849D01*
X75082918Y-70408462D01*
X75102623Y-70423076D01*
X75120802Y-70439552D01*
X75137278Y-70457731D01*
X75151892Y-70477436D01*
X75164505Y-70498480D01*
X75174995Y-70520658D01*
X75183260Y-70543758D01*
X75189221Y-70567556D01*
X75192821Y-70591825D01*
X75194025Y-70616329D01*
X75194025Y-71541329D01*
X75192821Y-71565833D01*
X75189221Y-71590102D01*
X75183260Y-71613900D01*
X75174995Y-71637000D01*
X75164505Y-71659178D01*
X75151892Y-71680222D01*
X75137278Y-71699927D01*
X75120802Y-71718106D01*
X75102623Y-71734582D01*
X75082918Y-71749196D01*
X75061874Y-71761809D01*
X75039696Y-71772299D01*
X75016596Y-71780564D01*
X74992798Y-71786525D01*
X74968529Y-71790125D01*
X74944025Y-71791329D01*
X73694025Y-71791329D01*
X73669521Y-71790125D01*
X73645252Y-71786525D01*
X73621454Y-71780564D01*
X73598354Y-71772299D01*
X73576176Y-71761809D01*
X73555132Y-71749196D01*
X73535427Y-71734582D01*
X73517248Y-71718106D01*
X73500772Y-71699927D01*
X73486158Y-71680222D01*
X73473545Y-71659178D01*
X73463055Y-71637000D01*
X73454790Y-71613900D01*
X73448829Y-71590102D01*
X73445229Y-71565833D01*
X73444025Y-71541329D01*
X73444025Y-70616329D01*
X73445229Y-70591825D01*
X73448829Y-70567556D01*
X73454790Y-70543758D01*
X73463055Y-70520658D01*
X73473545Y-70498480D01*
X73486158Y-70477436D01*
X73500772Y-70457731D01*
X73517248Y-70439552D01*
X73535427Y-70423076D01*
X73555132Y-70408462D01*
X73576176Y-70395849D01*
X73598354Y-70385359D01*
X73621454Y-70377094D01*
X73645252Y-70371133D01*
X73669521Y-70367533D01*
X73694025Y-70366329D01*
X74944025Y-70366329D01*
X74968529Y-70367533D01*
G37*
%TD.AperFunction*%
%TA.AperFunction,SMDPad,CuDef*%
G36*
X71158529Y-67392533D02*
G01*
X71182798Y-67396133D01*
X71206596Y-67402094D01*
X71229696Y-67410359D01*
X71251874Y-67420849D01*
X71272918Y-67433462D01*
X71292623Y-67448076D01*
X71310802Y-67464552D01*
X71327278Y-67482731D01*
X71341892Y-67502436D01*
X71354505Y-67523480D01*
X71364995Y-67545658D01*
X71373260Y-67568758D01*
X71379221Y-67592556D01*
X71382821Y-67616825D01*
X71384025Y-67641329D01*
X71384025Y-68566329D01*
X71382821Y-68590833D01*
X71379221Y-68615102D01*
X71373260Y-68638900D01*
X71364995Y-68662000D01*
X71354505Y-68684178D01*
X71341892Y-68705222D01*
X71327278Y-68724927D01*
X71310802Y-68743106D01*
X71292623Y-68759582D01*
X71272918Y-68774196D01*
X71251874Y-68786809D01*
X71229696Y-68797299D01*
X71206596Y-68805564D01*
X71182798Y-68811525D01*
X71158529Y-68815125D01*
X71134025Y-68816329D01*
X69884025Y-68816329D01*
X69859521Y-68815125D01*
X69835252Y-68811525D01*
X69811454Y-68805564D01*
X69788354Y-68797299D01*
X69766176Y-68786809D01*
X69745132Y-68774196D01*
X69725427Y-68759582D01*
X69707248Y-68743106D01*
X69690772Y-68724927D01*
X69676158Y-68705222D01*
X69663545Y-68684178D01*
X69653055Y-68662000D01*
X69644790Y-68638900D01*
X69638829Y-68615102D01*
X69635229Y-68590833D01*
X69634025Y-68566329D01*
X69634025Y-67641329D01*
X69635229Y-67616825D01*
X69638829Y-67592556D01*
X69644790Y-67568758D01*
X69653055Y-67545658D01*
X69663545Y-67523480D01*
X69676158Y-67502436D01*
X69690772Y-67482731D01*
X69707248Y-67464552D01*
X69725427Y-67448076D01*
X69745132Y-67433462D01*
X69766176Y-67420849D01*
X69788354Y-67410359D01*
X69811454Y-67402094D01*
X69835252Y-67396133D01*
X69859521Y-67392533D01*
X69884025Y-67391329D01*
X71134025Y-67391329D01*
X71158529Y-67392533D01*
G37*
%TD.AperFunction*%
%TA.AperFunction,SMDPad,CuDef*%
G36*
X71158529Y-70367533D02*
G01*
X71182798Y-70371133D01*
X71206596Y-70377094D01*
X71229696Y-70385359D01*
X71251874Y-70395849D01*
X71272918Y-70408462D01*
X71292623Y-70423076D01*
X71310802Y-70439552D01*
X71327278Y-70457731D01*
X71341892Y-70477436D01*
X71354505Y-70498480D01*
X71364995Y-70520658D01*
X71373260Y-70543758D01*
X71379221Y-70567556D01*
X71382821Y-70591825D01*
X71384025Y-70616329D01*
X71384025Y-71541329D01*
X71382821Y-71565833D01*
X71379221Y-71590102D01*
X71373260Y-71613900D01*
X71364995Y-71637000D01*
X71354505Y-71659178D01*
X71341892Y-71680222D01*
X71327278Y-71699927D01*
X71310802Y-71718106D01*
X71292623Y-71734582D01*
X71272918Y-71749196D01*
X71251874Y-71761809D01*
X71229696Y-71772299D01*
X71206596Y-71780564D01*
X71182798Y-71786525D01*
X71158529Y-71790125D01*
X71134025Y-71791329D01*
X69884025Y-71791329D01*
X69859521Y-71790125D01*
X69835252Y-71786525D01*
X69811454Y-71780564D01*
X69788354Y-71772299D01*
X69766176Y-71761809D01*
X69745132Y-71749196D01*
X69725427Y-71734582D01*
X69707248Y-71718106D01*
X69690772Y-71699927D01*
X69676158Y-71680222D01*
X69663545Y-71659178D01*
X69653055Y-71637000D01*
X69644790Y-71613900D01*
X69638829Y-71590102D01*
X69635229Y-71565833D01*
X69634025Y-71541329D01*
X69634025Y-70616329D01*
X69635229Y-70591825D01*
X69638829Y-70567556D01*
X69644790Y-70543758D01*
X69653055Y-70520658D01*
X69663545Y-70498480D01*
X69676158Y-70477436D01*
X69690772Y-70457731D01*
X69707248Y-70439552D01*
X69725427Y-70423076D01*
X69745132Y-70408462D01*
X69766176Y-70395849D01*
X69788354Y-70385359D01*
X69811454Y-70377094D01*
X69835252Y-70371133D01*
X69859521Y-70367533D01*
X69884025Y-70366329D01*
X71134025Y-70366329D01*
X71158529Y-70367533D01*
G37*
%TD.AperFunction*%
D12*
X75589025Y-99396329D03*
%TA.AperFunction,ComponentPad*%
D10*
G36*
X76363529Y-96047533D02*
G01*
X76387798Y-96051133D01*
X76411596Y-96057094D01*
X76434696Y-96065359D01*
X76456874Y-96075849D01*
X76477918Y-96088462D01*
X76497623Y-96103076D01*
X76515802Y-96119552D01*
X76532278Y-96137731D01*
X76546892Y-96157436D01*
X76559505Y-96178480D01*
X76569995Y-96200658D01*
X76578260Y-96223758D01*
X76584221Y-96247556D01*
X76587821Y-96271825D01*
X76589025Y-96296329D01*
X76589025Y-97496329D01*
X76587821Y-97520833D01*
X76584221Y-97545102D01*
X76578260Y-97568900D01*
X76569995Y-97592000D01*
X76559505Y-97614178D01*
X76546892Y-97635222D01*
X76532278Y-97654927D01*
X76515802Y-97673106D01*
X76497623Y-97689582D01*
X76477918Y-97704196D01*
X76456874Y-97716809D01*
X76434696Y-97727299D01*
X76411596Y-97735564D01*
X76387798Y-97741525D01*
X76363529Y-97745125D01*
X76339025Y-97746329D01*
X74839025Y-97746329D01*
X74814521Y-97745125D01*
X74790252Y-97741525D01*
X74766454Y-97735564D01*
X74743354Y-97727299D01*
X74721176Y-97716809D01*
X74700132Y-97704196D01*
X74680427Y-97689582D01*
X74662248Y-97673106D01*
X74645772Y-97654927D01*
X74631158Y-97635222D01*
X74618545Y-97614178D01*
X74608055Y-97592000D01*
X74599790Y-97568900D01*
X74593829Y-97545102D01*
X74590229Y-97520833D01*
X74589025Y-97496329D01*
X74589025Y-96296329D01*
X74590229Y-96271825D01*
X74593829Y-96247556D01*
X74599790Y-96223758D01*
X74608055Y-96200658D01*
X74618545Y-96178480D01*
X74631158Y-96157436D01*
X74645772Y-96137731D01*
X74662248Y-96119552D01*
X74680427Y-96103076D01*
X74700132Y-96088462D01*
X74721176Y-96075849D01*
X74743354Y-96065359D01*
X74766454Y-96057094D01*
X74790252Y-96051133D01*
X74814521Y-96047533D01*
X74839025Y-96046329D01*
X76339025Y-96046329D01*
X76363529Y-96047533D01*
G37*
%TD.AperFunction*%
D12*
X59674025Y-54946329D03*
%TA.AperFunction,ComponentPad*%
D10*
G36*
X60448529Y-56597533D02*
G01*
X60472798Y-56601133D01*
X60496596Y-56607094D01*
X60519696Y-56615359D01*
X60541874Y-56625849D01*
X60562918Y-56638462D01*
X60582623Y-56653076D01*
X60600802Y-56669552D01*
X60617278Y-56687731D01*
X60631892Y-56707436D01*
X60644505Y-56728480D01*
X60654995Y-56750658D01*
X60663260Y-56773758D01*
X60669221Y-56797556D01*
X60672821Y-56821825D01*
X60674025Y-56846329D01*
X60674025Y-58046329D01*
X60672821Y-58070833D01*
X60669221Y-58095102D01*
X60663260Y-58118900D01*
X60654995Y-58142000D01*
X60644505Y-58164178D01*
X60631892Y-58185222D01*
X60617278Y-58204927D01*
X60600802Y-58223106D01*
X60582623Y-58239582D01*
X60562918Y-58254196D01*
X60541874Y-58266809D01*
X60519696Y-58277299D01*
X60496596Y-58285564D01*
X60472798Y-58291525D01*
X60448529Y-58295125D01*
X60424025Y-58296329D01*
X58924025Y-58296329D01*
X58899521Y-58295125D01*
X58875252Y-58291525D01*
X58851454Y-58285564D01*
X58828354Y-58277299D01*
X58806176Y-58266809D01*
X58785132Y-58254196D01*
X58765427Y-58239582D01*
X58747248Y-58223106D01*
X58730772Y-58204927D01*
X58716158Y-58185222D01*
X58703545Y-58164178D01*
X58693055Y-58142000D01*
X58684790Y-58118900D01*
X58678829Y-58095102D01*
X58675229Y-58070833D01*
X58674025Y-58046329D01*
X58674025Y-56846329D01*
X58675229Y-56821825D01*
X58678829Y-56797556D01*
X58684790Y-56773758D01*
X58693055Y-56750658D01*
X58703545Y-56728480D01*
X58716158Y-56707436D01*
X58730772Y-56687731D01*
X58747248Y-56669552D01*
X58765427Y-56653076D01*
X58785132Y-56638462D01*
X58806176Y-56625849D01*
X58828354Y-56615359D01*
X58851454Y-56607094D01*
X58875252Y-56601133D01*
X58899521Y-56597533D01*
X58924025Y-56596329D01*
X60424025Y-56596329D01*
X60448529Y-56597533D01*
G37*
%TD.AperFunction*%
D13*
X62214025Y-34856329D03*
X62214025Y-31856329D03*
%TA.AperFunction,SMDPad,CuDef*%
D10*
G36*
X48348530Y-69487533D02*
G01*
X48372798Y-69491133D01*
X48396597Y-69497094D01*
X48419696Y-69505359D01*
X48441875Y-69515849D01*
X48462918Y-69528461D01*
X48482624Y-69543076D01*
X48500802Y-69559552D01*
X48517278Y-69577730D01*
X48531893Y-69597436D01*
X48544505Y-69618479D01*
X48554995Y-69640658D01*
X48563260Y-69663757D01*
X48569221Y-69687556D01*
X48572821Y-69711824D01*
X48574025Y-69736328D01*
X48574025Y-70636330D01*
X48572821Y-70660834D01*
X48569221Y-70685102D01*
X48563260Y-70708901D01*
X48554995Y-70732000D01*
X48544505Y-70754179D01*
X48531893Y-70775222D01*
X48517278Y-70794928D01*
X48500802Y-70813106D01*
X48482624Y-70829582D01*
X48462918Y-70844197D01*
X48441875Y-70856809D01*
X48419696Y-70867299D01*
X48396597Y-70875564D01*
X48372798Y-70881525D01*
X48348530Y-70885125D01*
X48324026Y-70886329D01*
X47674024Y-70886329D01*
X47649520Y-70885125D01*
X47625252Y-70881525D01*
X47601453Y-70875564D01*
X47578354Y-70867299D01*
X47556175Y-70856809D01*
X47535132Y-70844197D01*
X47515426Y-70829582D01*
X47497248Y-70813106D01*
X47480772Y-70794928D01*
X47466157Y-70775222D01*
X47453545Y-70754179D01*
X47443055Y-70732000D01*
X47434790Y-70708901D01*
X47428829Y-70685102D01*
X47425229Y-70660834D01*
X47424025Y-70636330D01*
X47424025Y-69736328D01*
X47425229Y-69711824D01*
X47428829Y-69687556D01*
X47434790Y-69663757D01*
X47443055Y-69640658D01*
X47453545Y-69618479D01*
X47466157Y-69597436D01*
X47480772Y-69577730D01*
X47497248Y-69559552D01*
X47515426Y-69543076D01*
X47535132Y-69528461D01*
X47556175Y-69515849D01*
X47578354Y-69505359D01*
X47601453Y-69497094D01*
X47625252Y-69491133D01*
X47649520Y-69487533D01*
X47674024Y-69486329D01*
X48324026Y-69486329D01*
X48348530Y-69487533D01*
G37*
%TD.AperFunction*%
%TA.AperFunction,SMDPad,CuDef*%
G36*
X46298530Y-69487533D02*
G01*
X46322798Y-69491133D01*
X46346597Y-69497094D01*
X46369696Y-69505359D01*
X46391875Y-69515849D01*
X46412918Y-69528461D01*
X46432624Y-69543076D01*
X46450802Y-69559552D01*
X46467278Y-69577730D01*
X46481893Y-69597436D01*
X46494505Y-69618479D01*
X46504995Y-69640658D01*
X46513260Y-69663757D01*
X46519221Y-69687556D01*
X46522821Y-69711824D01*
X46524025Y-69736328D01*
X46524025Y-70636330D01*
X46522821Y-70660834D01*
X46519221Y-70685102D01*
X46513260Y-70708901D01*
X46504995Y-70732000D01*
X46494505Y-70754179D01*
X46481893Y-70775222D01*
X46467278Y-70794928D01*
X46450802Y-70813106D01*
X46432624Y-70829582D01*
X46412918Y-70844197D01*
X46391875Y-70856809D01*
X46369696Y-70867299D01*
X46346597Y-70875564D01*
X46322798Y-70881525D01*
X46298530Y-70885125D01*
X46274026Y-70886329D01*
X45624024Y-70886329D01*
X45599520Y-70885125D01*
X45575252Y-70881525D01*
X45551453Y-70875564D01*
X45528354Y-70867299D01*
X45506175Y-70856809D01*
X45485132Y-70844197D01*
X45465426Y-70829582D01*
X45447248Y-70813106D01*
X45430772Y-70794928D01*
X45416157Y-70775222D01*
X45403545Y-70754179D01*
X45393055Y-70732000D01*
X45384790Y-70708901D01*
X45378829Y-70685102D01*
X45375229Y-70660834D01*
X45374025Y-70636330D01*
X45374025Y-69736328D01*
X45375229Y-69711824D01*
X45378829Y-69687556D01*
X45384790Y-69663757D01*
X45393055Y-69640658D01*
X45403545Y-69618479D01*
X45416157Y-69597436D01*
X45430772Y-69577730D01*
X45447248Y-69559552D01*
X45465426Y-69543076D01*
X45485132Y-69528461D01*
X45506175Y-69515849D01*
X45528354Y-69505359D01*
X45551453Y-69497094D01*
X45575252Y-69491133D01*
X45599520Y-69487533D01*
X45624024Y-69486329D01*
X46274026Y-69486329D01*
X46298530Y-69487533D01*
G37*
%TD.AperFunction*%
%TA.AperFunction,SMDPad,CuDef*%
G36*
X42368530Y-75717533D02*
G01*
X42392798Y-75721133D01*
X42416597Y-75727094D01*
X42439696Y-75735359D01*
X42461875Y-75745849D01*
X42482918Y-75758461D01*
X42502624Y-75773076D01*
X42520802Y-75789552D01*
X42537278Y-75807730D01*
X42551893Y-75827436D01*
X42564505Y-75848479D01*
X42574995Y-75870658D01*
X42583260Y-75893757D01*
X42589221Y-75917556D01*
X42592821Y-75941824D01*
X42594025Y-75966328D01*
X42594025Y-76616330D01*
X42592821Y-76640834D01*
X42589221Y-76665102D01*
X42583260Y-76688901D01*
X42574995Y-76712000D01*
X42564505Y-76734179D01*
X42551893Y-76755222D01*
X42537278Y-76774928D01*
X42520802Y-76793106D01*
X42502624Y-76809582D01*
X42482918Y-76824197D01*
X42461875Y-76836809D01*
X42439696Y-76847299D01*
X42416597Y-76855564D01*
X42392798Y-76861525D01*
X42368530Y-76865125D01*
X42344026Y-76866329D01*
X41444024Y-76866329D01*
X41419520Y-76865125D01*
X41395252Y-76861525D01*
X41371453Y-76855564D01*
X41348354Y-76847299D01*
X41326175Y-76836809D01*
X41305132Y-76824197D01*
X41285426Y-76809582D01*
X41267248Y-76793106D01*
X41250772Y-76774928D01*
X41236157Y-76755222D01*
X41223545Y-76734179D01*
X41213055Y-76712000D01*
X41204790Y-76688901D01*
X41198829Y-76665102D01*
X41195229Y-76640834D01*
X41194025Y-76616330D01*
X41194025Y-75966328D01*
X41195229Y-75941824D01*
X41198829Y-75917556D01*
X41204790Y-75893757D01*
X41213055Y-75870658D01*
X41223545Y-75848479D01*
X41236157Y-75827436D01*
X41250772Y-75807730D01*
X41267248Y-75789552D01*
X41285426Y-75773076D01*
X41305132Y-75758461D01*
X41326175Y-75745849D01*
X41348354Y-75735359D01*
X41371453Y-75727094D01*
X41395252Y-75721133D01*
X41419520Y-75717533D01*
X41444024Y-75716329D01*
X42344026Y-75716329D01*
X42368530Y-75717533D01*
G37*
%TD.AperFunction*%
%TA.AperFunction,SMDPad,CuDef*%
G36*
X42368530Y-73667533D02*
G01*
X42392798Y-73671133D01*
X42416597Y-73677094D01*
X42439696Y-73685359D01*
X42461875Y-73695849D01*
X42482918Y-73708461D01*
X42502624Y-73723076D01*
X42520802Y-73739552D01*
X42537278Y-73757730D01*
X42551893Y-73777436D01*
X42564505Y-73798479D01*
X42574995Y-73820658D01*
X42583260Y-73843757D01*
X42589221Y-73867556D01*
X42592821Y-73891824D01*
X42594025Y-73916328D01*
X42594025Y-74566330D01*
X42592821Y-74590834D01*
X42589221Y-74615102D01*
X42583260Y-74638901D01*
X42574995Y-74662000D01*
X42564505Y-74684179D01*
X42551893Y-74705222D01*
X42537278Y-74724928D01*
X42520802Y-74743106D01*
X42502624Y-74759582D01*
X42482918Y-74774197D01*
X42461875Y-74786809D01*
X42439696Y-74797299D01*
X42416597Y-74805564D01*
X42392798Y-74811525D01*
X42368530Y-74815125D01*
X42344026Y-74816329D01*
X41444024Y-74816329D01*
X41419520Y-74815125D01*
X41395252Y-74811525D01*
X41371453Y-74805564D01*
X41348354Y-74797299D01*
X41326175Y-74786809D01*
X41305132Y-74774197D01*
X41285426Y-74759582D01*
X41267248Y-74743106D01*
X41250772Y-74724928D01*
X41236157Y-74705222D01*
X41223545Y-74684179D01*
X41213055Y-74662000D01*
X41204790Y-74638901D01*
X41198829Y-74615102D01*
X41195229Y-74590834D01*
X41194025Y-74566330D01*
X41194025Y-73916328D01*
X41195229Y-73891824D01*
X41198829Y-73867556D01*
X41204790Y-73843757D01*
X41213055Y-73820658D01*
X41223545Y-73798479D01*
X41236157Y-73777436D01*
X41250772Y-73757730D01*
X41267248Y-73739552D01*
X41285426Y-73723076D01*
X41305132Y-73708461D01*
X41326175Y-73695849D01*
X41348354Y-73685359D01*
X41371453Y-73677094D01*
X41395252Y-73671133D01*
X41419520Y-73667533D01*
X41444024Y-73666329D01*
X42344026Y-73666329D01*
X42368530Y-73667533D01*
G37*
%TD.AperFunction*%
D20*
X41324025Y-85666329D03*
X41324025Y-90266329D03*
X41324025Y-87966329D03*
D21*
X47624025Y-87966329D03*
%TA.AperFunction,SMDPad,CuDef*%
D10*
G36*
X45178529Y-61692533D02*
G01*
X45202798Y-61696133D01*
X45226596Y-61702094D01*
X45249696Y-61710359D01*
X45271874Y-61720849D01*
X45292918Y-61733462D01*
X45312623Y-61748076D01*
X45330802Y-61764552D01*
X45347278Y-61782731D01*
X45361892Y-61802436D01*
X45374505Y-61823480D01*
X45384995Y-61845658D01*
X45393260Y-61868758D01*
X45399221Y-61892556D01*
X45402821Y-61916825D01*
X45404025Y-61941329D01*
X45404025Y-63191329D01*
X45402821Y-63215833D01*
X45399221Y-63240102D01*
X45393260Y-63263900D01*
X45384995Y-63287000D01*
X45374505Y-63309178D01*
X45361892Y-63330222D01*
X45347278Y-63349927D01*
X45330802Y-63368106D01*
X45312623Y-63384582D01*
X45292918Y-63399196D01*
X45271874Y-63411809D01*
X45249696Y-63422299D01*
X45226596Y-63430564D01*
X45202798Y-63436525D01*
X45178529Y-63440125D01*
X45154025Y-63441329D01*
X44229025Y-63441329D01*
X44204521Y-63440125D01*
X44180252Y-63436525D01*
X44156454Y-63430564D01*
X44133354Y-63422299D01*
X44111176Y-63411809D01*
X44090132Y-63399196D01*
X44070427Y-63384582D01*
X44052248Y-63368106D01*
X44035772Y-63349927D01*
X44021158Y-63330222D01*
X44008545Y-63309178D01*
X43998055Y-63287000D01*
X43989790Y-63263900D01*
X43983829Y-63240102D01*
X43980229Y-63215833D01*
X43979025Y-63191329D01*
X43979025Y-61941329D01*
X43980229Y-61916825D01*
X43983829Y-61892556D01*
X43989790Y-61868758D01*
X43998055Y-61845658D01*
X44008545Y-61823480D01*
X44021158Y-61802436D01*
X44035772Y-61782731D01*
X44052248Y-61764552D01*
X44070427Y-61748076D01*
X44090132Y-61733462D01*
X44111176Y-61720849D01*
X44133354Y-61710359D01*
X44156454Y-61702094D01*
X44180252Y-61696133D01*
X44204521Y-61692533D01*
X44229025Y-61691329D01*
X45154025Y-61691329D01*
X45178529Y-61692533D01*
G37*
%TD.AperFunction*%
%TA.AperFunction,SMDPad,CuDef*%
G36*
X42203529Y-61692533D02*
G01*
X42227798Y-61696133D01*
X42251596Y-61702094D01*
X42274696Y-61710359D01*
X42296874Y-61720849D01*
X42317918Y-61733462D01*
X42337623Y-61748076D01*
X42355802Y-61764552D01*
X42372278Y-61782731D01*
X42386892Y-61802436D01*
X42399505Y-61823480D01*
X42409995Y-61845658D01*
X42418260Y-61868758D01*
X42424221Y-61892556D01*
X42427821Y-61916825D01*
X42429025Y-61941329D01*
X42429025Y-63191329D01*
X42427821Y-63215833D01*
X42424221Y-63240102D01*
X42418260Y-63263900D01*
X42409995Y-63287000D01*
X42399505Y-63309178D01*
X42386892Y-63330222D01*
X42372278Y-63349927D01*
X42355802Y-63368106D01*
X42337623Y-63384582D01*
X42317918Y-63399196D01*
X42296874Y-63411809D01*
X42274696Y-63422299D01*
X42251596Y-63430564D01*
X42227798Y-63436525D01*
X42203529Y-63440125D01*
X42179025Y-63441329D01*
X41254025Y-63441329D01*
X41229521Y-63440125D01*
X41205252Y-63436525D01*
X41181454Y-63430564D01*
X41158354Y-63422299D01*
X41136176Y-63411809D01*
X41115132Y-63399196D01*
X41095427Y-63384582D01*
X41077248Y-63368106D01*
X41060772Y-63349927D01*
X41046158Y-63330222D01*
X41033545Y-63309178D01*
X41023055Y-63287000D01*
X41014790Y-63263900D01*
X41008829Y-63240102D01*
X41005229Y-63215833D01*
X41004025Y-63191329D01*
X41004025Y-61941329D01*
X41005229Y-61916825D01*
X41008829Y-61892556D01*
X41014790Y-61868758D01*
X41023055Y-61845658D01*
X41033545Y-61823480D01*
X41046158Y-61802436D01*
X41060772Y-61782731D01*
X41077248Y-61764552D01*
X41095427Y-61748076D01*
X41115132Y-61733462D01*
X41136176Y-61720849D01*
X41158354Y-61710359D01*
X41181454Y-61702094D01*
X41205252Y-61696133D01*
X41229521Y-61692533D01*
X41254025Y-61691329D01*
X42179025Y-61691329D01*
X42203529Y-61692533D01*
G37*
%TD.AperFunction*%
%TA.AperFunction,SMDPad,CuDef*%
G36*
X51528529Y-61692533D02*
G01*
X51552798Y-61696133D01*
X51576596Y-61702094D01*
X51599696Y-61710359D01*
X51621874Y-61720849D01*
X51642918Y-61733462D01*
X51662623Y-61748076D01*
X51680802Y-61764552D01*
X51697278Y-61782731D01*
X51711892Y-61802436D01*
X51724505Y-61823480D01*
X51734995Y-61845658D01*
X51743260Y-61868758D01*
X51749221Y-61892556D01*
X51752821Y-61916825D01*
X51754025Y-61941329D01*
X51754025Y-63191329D01*
X51752821Y-63215833D01*
X51749221Y-63240102D01*
X51743260Y-63263900D01*
X51734995Y-63287000D01*
X51724505Y-63309178D01*
X51711892Y-63330222D01*
X51697278Y-63349927D01*
X51680802Y-63368106D01*
X51662623Y-63384582D01*
X51642918Y-63399196D01*
X51621874Y-63411809D01*
X51599696Y-63422299D01*
X51576596Y-63430564D01*
X51552798Y-63436525D01*
X51528529Y-63440125D01*
X51504025Y-63441329D01*
X50579025Y-63441329D01*
X50554521Y-63440125D01*
X50530252Y-63436525D01*
X50506454Y-63430564D01*
X50483354Y-63422299D01*
X50461176Y-63411809D01*
X50440132Y-63399196D01*
X50420427Y-63384582D01*
X50402248Y-63368106D01*
X50385772Y-63349927D01*
X50371158Y-63330222D01*
X50358545Y-63309178D01*
X50348055Y-63287000D01*
X50339790Y-63263900D01*
X50333829Y-63240102D01*
X50330229Y-63215833D01*
X50329025Y-63191329D01*
X50329025Y-61941329D01*
X50330229Y-61916825D01*
X50333829Y-61892556D01*
X50339790Y-61868758D01*
X50348055Y-61845658D01*
X50358545Y-61823480D01*
X50371158Y-61802436D01*
X50385772Y-61782731D01*
X50402248Y-61764552D01*
X50420427Y-61748076D01*
X50440132Y-61733462D01*
X50461176Y-61720849D01*
X50483354Y-61710359D01*
X50506454Y-61702094D01*
X50530252Y-61696133D01*
X50554521Y-61692533D01*
X50579025Y-61691329D01*
X51504025Y-61691329D01*
X51528529Y-61692533D01*
G37*
%TD.AperFunction*%
%TA.AperFunction,SMDPad,CuDef*%
G36*
X48553529Y-61692533D02*
G01*
X48577798Y-61696133D01*
X48601596Y-61702094D01*
X48624696Y-61710359D01*
X48646874Y-61720849D01*
X48667918Y-61733462D01*
X48687623Y-61748076D01*
X48705802Y-61764552D01*
X48722278Y-61782731D01*
X48736892Y-61802436D01*
X48749505Y-61823480D01*
X48759995Y-61845658D01*
X48768260Y-61868758D01*
X48774221Y-61892556D01*
X48777821Y-61916825D01*
X48779025Y-61941329D01*
X48779025Y-63191329D01*
X48777821Y-63215833D01*
X48774221Y-63240102D01*
X48768260Y-63263900D01*
X48759995Y-63287000D01*
X48749505Y-63309178D01*
X48736892Y-63330222D01*
X48722278Y-63349927D01*
X48705802Y-63368106D01*
X48687623Y-63384582D01*
X48667918Y-63399196D01*
X48646874Y-63411809D01*
X48624696Y-63422299D01*
X48601596Y-63430564D01*
X48577798Y-63436525D01*
X48553529Y-63440125D01*
X48529025Y-63441329D01*
X47604025Y-63441329D01*
X47579521Y-63440125D01*
X47555252Y-63436525D01*
X47531454Y-63430564D01*
X47508354Y-63422299D01*
X47486176Y-63411809D01*
X47465132Y-63399196D01*
X47445427Y-63384582D01*
X47427248Y-63368106D01*
X47410772Y-63349927D01*
X47396158Y-63330222D01*
X47383545Y-63309178D01*
X47373055Y-63287000D01*
X47364790Y-63263900D01*
X47358829Y-63240102D01*
X47355229Y-63215833D01*
X47354025Y-63191329D01*
X47354025Y-61941329D01*
X47355229Y-61916825D01*
X47358829Y-61892556D01*
X47364790Y-61868758D01*
X47373055Y-61845658D01*
X47383545Y-61823480D01*
X47396158Y-61802436D01*
X47410772Y-61782731D01*
X47427248Y-61764552D01*
X47445427Y-61748076D01*
X47465132Y-61733462D01*
X47486176Y-61720849D01*
X47508354Y-61710359D01*
X47531454Y-61702094D01*
X47555252Y-61696133D01*
X47579521Y-61692533D01*
X47604025Y-61691329D01*
X48529025Y-61691329D01*
X48553529Y-61692533D01*
G37*
%TD.AperFunction*%
D22*
X44754025Y-74166329D03*
X46654025Y-74166329D03*
X46654025Y-76366329D03*
X45704025Y-76366329D03*
X44754025Y-76366329D03*
%TA.AperFunction,SMDPad,CuDef*%
D10*
G36*
X41329804Y-79872473D02*
G01*
X41352859Y-79875892D01*
X41375468Y-79881556D01*
X41397412Y-79889408D01*
X41418482Y-79899373D01*
X41438473Y-79911355D01*
X41457193Y-79925239D01*
X41474463Y-79940891D01*
X41490115Y-79958161D01*
X41503999Y-79976881D01*
X41515981Y-79996872D01*
X41525946Y-80017942D01*
X41533798Y-80039886D01*
X41539462Y-80062495D01*
X41542881Y-80085550D01*
X41544025Y-80108829D01*
X41544025Y-80583829D01*
X41542881Y-80607108D01*
X41539462Y-80630163D01*
X41533798Y-80652772D01*
X41525946Y-80674716D01*
X41515981Y-80695786D01*
X41503999Y-80715777D01*
X41490115Y-80734497D01*
X41474463Y-80751767D01*
X41457193Y-80767419D01*
X41438473Y-80781303D01*
X41418482Y-80793285D01*
X41397412Y-80803250D01*
X41375468Y-80811102D01*
X41352859Y-80816766D01*
X41329804Y-80820185D01*
X41306525Y-80821329D01*
X40731525Y-80821329D01*
X40708246Y-80820185D01*
X40685191Y-80816766D01*
X40662582Y-80811102D01*
X40640638Y-80803250D01*
X40619568Y-80793285D01*
X40599577Y-80781303D01*
X40580857Y-80767419D01*
X40563587Y-80751767D01*
X40547935Y-80734497D01*
X40534051Y-80715777D01*
X40522069Y-80695786D01*
X40512104Y-80674716D01*
X40504252Y-80652772D01*
X40498588Y-80630163D01*
X40495169Y-80607108D01*
X40494025Y-80583829D01*
X40494025Y-80108829D01*
X40495169Y-80085550D01*
X40498588Y-80062495D01*
X40504252Y-80039886D01*
X40512104Y-80017942D01*
X40522069Y-79996872D01*
X40534051Y-79976881D01*
X40547935Y-79958161D01*
X40563587Y-79940891D01*
X40580857Y-79925239D01*
X40599577Y-79911355D01*
X40619568Y-79899373D01*
X40640638Y-79889408D01*
X40662582Y-79881556D01*
X40685191Y-79875892D01*
X40708246Y-79872473D01*
X40731525Y-79871329D01*
X41306525Y-79871329D01*
X41329804Y-79872473D01*
G37*
%TD.AperFunction*%
%TA.AperFunction,SMDPad,CuDef*%
G36*
X43079804Y-79872473D02*
G01*
X43102859Y-79875892D01*
X43125468Y-79881556D01*
X43147412Y-79889408D01*
X43168482Y-79899373D01*
X43188473Y-79911355D01*
X43207193Y-79925239D01*
X43224463Y-79940891D01*
X43240115Y-79958161D01*
X43253999Y-79976881D01*
X43265981Y-79996872D01*
X43275946Y-80017942D01*
X43283798Y-80039886D01*
X43289462Y-80062495D01*
X43292881Y-80085550D01*
X43294025Y-80108829D01*
X43294025Y-80583829D01*
X43292881Y-80607108D01*
X43289462Y-80630163D01*
X43283798Y-80652772D01*
X43275946Y-80674716D01*
X43265981Y-80695786D01*
X43253999Y-80715777D01*
X43240115Y-80734497D01*
X43224463Y-80751767D01*
X43207193Y-80767419D01*
X43188473Y-80781303D01*
X43168482Y-80793285D01*
X43147412Y-80803250D01*
X43125468Y-80811102D01*
X43102859Y-80816766D01*
X43079804Y-80820185D01*
X43056525Y-80821329D01*
X42481525Y-80821329D01*
X42458246Y-80820185D01*
X42435191Y-80816766D01*
X42412582Y-80811102D01*
X42390638Y-80803250D01*
X42369568Y-80793285D01*
X42349577Y-80781303D01*
X42330857Y-80767419D01*
X42313587Y-80751767D01*
X42297935Y-80734497D01*
X42284051Y-80715777D01*
X42272069Y-80695786D01*
X42262104Y-80674716D01*
X42254252Y-80652772D01*
X42248588Y-80630163D01*
X42245169Y-80607108D01*
X42244025Y-80583829D01*
X42244025Y-80108829D01*
X42245169Y-80085550D01*
X42248588Y-80062495D01*
X42254252Y-80039886D01*
X42262104Y-80017942D01*
X42272069Y-79996872D01*
X42284051Y-79976881D01*
X42297935Y-79958161D01*
X42313587Y-79940891D01*
X42330857Y-79925239D01*
X42349577Y-79911355D01*
X42369568Y-79899373D01*
X42390638Y-79889408D01*
X42412582Y-79881556D01*
X42435191Y-79875892D01*
X42458246Y-79872473D01*
X42481525Y-79871329D01*
X43056525Y-79871329D01*
X43079804Y-79872473D01*
G37*
%TD.AperFunction*%
%TA.AperFunction,SMDPad,CuDef*%
G36*
X49774804Y-75617473D02*
G01*
X49797859Y-75620892D01*
X49820468Y-75626556D01*
X49842412Y-75634408D01*
X49863482Y-75644373D01*
X49883473Y-75656355D01*
X49902193Y-75670239D01*
X49919463Y-75685891D01*
X49935115Y-75703161D01*
X49948999Y-75721881D01*
X49960981Y-75741872D01*
X49970946Y-75762942D01*
X49978798Y-75784886D01*
X49984462Y-75807495D01*
X49987881Y-75830550D01*
X49989025Y-75853829D01*
X49989025Y-76428829D01*
X49987881Y-76452108D01*
X49984462Y-76475163D01*
X49978798Y-76497772D01*
X49970946Y-76519716D01*
X49960981Y-76540786D01*
X49948999Y-76560777D01*
X49935115Y-76579497D01*
X49919463Y-76596767D01*
X49902193Y-76612419D01*
X49883473Y-76626303D01*
X49863482Y-76638285D01*
X49842412Y-76648250D01*
X49820468Y-76656102D01*
X49797859Y-76661766D01*
X49774804Y-76665185D01*
X49751525Y-76666329D01*
X49276525Y-76666329D01*
X49253246Y-76665185D01*
X49230191Y-76661766D01*
X49207582Y-76656102D01*
X49185638Y-76648250D01*
X49164568Y-76638285D01*
X49144577Y-76626303D01*
X49125857Y-76612419D01*
X49108587Y-76596767D01*
X49092935Y-76579497D01*
X49079051Y-76560777D01*
X49067069Y-76540786D01*
X49057104Y-76519716D01*
X49049252Y-76497772D01*
X49043588Y-76475163D01*
X49040169Y-76452108D01*
X49039025Y-76428829D01*
X49039025Y-75853829D01*
X49040169Y-75830550D01*
X49043588Y-75807495D01*
X49049252Y-75784886D01*
X49057104Y-75762942D01*
X49067069Y-75741872D01*
X49079051Y-75721881D01*
X49092935Y-75703161D01*
X49108587Y-75685891D01*
X49125857Y-75670239D01*
X49144577Y-75656355D01*
X49164568Y-75644373D01*
X49185638Y-75634408D01*
X49207582Y-75626556D01*
X49230191Y-75620892D01*
X49253246Y-75617473D01*
X49276525Y-75616329D01*
X49751525Y-75616329D01*
X49774804Y-75617473D01*
G37*
%TD.AperFunction*%
%TA.AperFunction,SMDPad,CuDef*%
G36*
X49774804Y-73867473D02*
G01*
X49797859Y-73870892D01*
X49820468Y-73876556D01*
X49842412Y-73884408D01*
X49863482Y-73894373D01*
X49883473Y-73906355D01*
X49902193Y-73920239D01*
X49919463Y-73935891D01*
X49935115Y-73953161D01*
X49948999Y-73971881D01*
X49960981Y-73991872D01*
X49970946Y-74012942D01*
X49978798Y-74034886D01*
X49984462Y-74057495D01*
X49987881Y-74080550D01*
X49989025Y-74103829D01*
X49989025Y-74678829D01*
X49987881Y-74702108D01*
X49984462Y-74725163D01*
X49978798Y-74747772D01*
X49970946Y-74769716D01*
X49960981Y-74790786D01*
X49948999Y-74810777D01*
X49935115Y-74829497D01*
X49919463Y-74846767D01*
X49902193Y-74862419D01*
X49883473Y-74876303D01*
X49863482Y-74888285D01*
X49842412Y-74898250D01*
X49820468Y-74906102D01*
X49797859Y-74911766D01*
X49774804Y-74915185D01*
X49751525Y-74916329D01*
X49276525Y-74916329D01*
X49253246Y-74915185D01*
X49230191Y-74911766D01*
X49207582Y-74906102D01*
X49185638Y-74898250D01*
X49164568Y-74888285D01*
X49144577Y-74876303D01*
X49125857Y-74862419D01*
X49108587Y-74846767D01*
X49092935Y-74829497D01*
X49079051Y-74810777D01*
X49067069Y-74790786D01*
X49057104Y-74769716D01*
X49049252Y-74747772D01*
X49043588Y-74725163D01*
X49040169Y-74702108D01*
X49039025Y-74678829D01*
X49039025Y-74103829D01*
X49040169Y-74080550D01*
X49043588Y-74057495D01*
X49049252Y-74034886D01*
X49057104Y-74012942D01*
X49067069Y-73991872D01*
X49079051Y-73971881D01*
X49092935Y-73953161D01*
X49108587Y-73935891D01*
X49125857Y-73920239D01*
X49144577Y-73906355D01*
X49164568Y-73894373D01*
X49185638Y-73884408D01*
X49207582Y-73876556D01*
X49230191Y-73870892D01*
X49253246Y-73867473D01*
X49276525Y-73866329D01*
X49751525Y-73866329D01*
X49774804Y-73867473D01*
G37*
%TD.AperFunction*%
%TA.AperFunction,SMDPad,CuDef*%
G36*
X43079804Y-69712473D02*
G01*
X43102859Y-69715892D01*
X43125468Y-69721556D01*
X43147412Y-69729408D01*
X43168482Y-69739373D01*
X43188473Y-69751355D01*
X43207193Y-69765239D01*
X43224463Y-69780891D01*
X43240115Y-69798161D01*
X43253999Y-69816881D01*
X43265981Y-69836872D01*
X43275946Y-69857942D01*
X43283798Y-69879886D01*
X43289462Y-69902495D01*
X43292881Y-69925550D01*
X43294025Y-69948829D01*
X43294025Y-70423829D01*
X43292881Y-70447108D01*
X43289462Y-70470163D01*
X43283798Y-70492772D01*
X43275946Y-70514716D01*
X43265981Y-70535786D01*
X43253999Y-70555777D01*
X43240115Y-70574497D01*
X43224463Y-70591767D01*
X43207193Y-70607419D01*
X43188473Y-70621303D01*
X43168482Y-70633285D01*
X43147412Y-70643250D01*
X43125468Y-70651102D01*
X43102859Y-70656766D01*
X43079804Y-70660185D01*
X43056525Y-70661329D01*
X42481525Y-70661329D01*
X42458246Y-70660185D01*
X42435191Y-70656766D01*
X42412582Y-70651102D01*
X42390638Y-70643250D01*
X42369568Y-70633285D01*
X42349577Y-70621303D01*
X42330857Y-70607419D01*
X42313587Y-70591767D01*
X42297935Y-70574497D01*
X42284051Y-70555777D01*
X42272069Y-70535786D01*
X42262104Y-70514716D01*
X42254252Y-70492772D01*
X42248588Y-70470163D01*
X42245169Y-70447108D01*
X42244025Y-70423829D01*
X42244025Y-69948829D01*
X42245169Y-69925550D01*
X42248588Y-69902495D01*
X42254252Y-69879886D01*
X42262104Y-69857942D01*
X42272069Y-69836872D01*
X42284051Y-69816881D01*
X42297935Y-69798161D01*
X42313587Y-69780891D01*
X42330857Y-69765239D01*
X42349577Y-69751355D01*
X42369568Y-69739373D01*
X42390638Y-69729408D01*
X42412582Y-69721556D01*
X42435191Y-69715892D01*
X42458246Y-69712473D01*
X42481525Y-69711329D01*
X43056525Y-69711329D01*
X43079804Y-69712473D01*
G37*
%TD.AperFunction*%
%TA.AperFunction,SMDPad,CuDef*%
G36*
X41329804Y-69712473D02*
G01*
X41352859Y-69715892D01*
X41375468Y-69721556D01*
X41397412Y-69729408D01*
X41418482Y-69739373D01*
X41438473Y-69751355D01*
X41457193Y-69765239D01*
X41474463Y-69780891D01*
X41490115Y-69798161D01*
X41503999Y-69816881D01*
X41515981Y-69836872D01*
X41525946Y-69857942D01*
X41533798Y-69879886D01*
X41539462Y-69902495D01*
X41542881Y-69925550D01*
X41544025Y-69948829D01*
X41544025Y-70423829D01*
X41542881Y-70447108D01*
X41539462Y-70470163D01*
X41533798Y-70492772D01*
X41525946Y-70514716D01*
X41515981Y-70535786D01*
X41503999Y-70555777D01*
X41490115Y-70574497D01*
X41474463Y-70591767D01*
X41457193Y-70607419D01*
X41438473Y-70621303D01*
X41418482Y-70633285D01*
X41397412Y-70643250D01*
X41375468Y-70651102D01*
X41352859Y-70656766D01*
X41329804Y-70660185D01*
X41306525Y-70661329D01*
X40731525Y-70661329D01*
X40708246Y-70660185D01*
X40685191Y-70656766D01*
X40662582Y-70651102D01*
X40640638Y-70643250D01*
X40619568Y-70633285D01*
X40599577Y-70621303D01*
X40580857Y-70607419D01*
X40563587Y-70591767D01*
X40547935Y-70574497D01*
X40534051Y-70555777D01*
X40522069Y-70535786D01*
X40512104Y-70514716D01*
X40504252Y-70492772D01*
X40498588Y-70470163D01*
X40495169Y-70447108D01*
X40494025Y-70423829D01*
X40494025Y-69948829D01*
X40495169Y-69925550D01*
X40498588Y-69902495D01*
X40504252Y-69879886D01*
X40512104Y-69857942D01*
X40522069Y-69836872D01*
X40534051Y-69816881D01*
X40547935Y-69798161D01*
X40563587Y-69780891D01*
X40580857Y-69765239D01*
X40599577Y-69751355D01*
X40619568Y-69739373D01*
X40640638Y-69729408D01*
X40662582Y-69721556D01*
X40685191Y-69715892D01*
X40708246Y-69712473D01*
X40731525Y-69711329D01*
X41306525Y-69711329D01*
X41329804Y-69712473D01*
G37*
%TD.AperFunction*%
%TA.AperFunction,SMDPad,CuDef*%
G36*
X48159804Y-79872473D02*
G01*
X48182859Y-79875892D01*
X48205468Y-79881556D01*
X48227412Y-79889408D01*
X48248482Y-79899373D01*
X48268473Y-79911355D01*
X48287193Y-79925239D01*
X48304463Y-79940891D01*
X48320115Y-79958161D01*
X48333999Y-79976881D01*
X48345981Y-79996872D01*
X48355946Y-80017942D01*
X48363798Y-80039886D01*
X48369462Y-80062495D01*
X48372881Y-80085550D01*
X48374025Y-80108829D01*
X48374025Y-80583829D01*
X48372881Y-80607108D01*
X48369462Y-80630163D01*
X48363798Y-80652772D01*
X48355946Y-80674716D01*
X48345981Y-80695786D01*
X48333999Y-80715777D01*
X48320115Y-80734497D01*
X48304463Y-80751767D01*
X48287193Y-80767419D01*
X48268473Y-80781303D01*
X48248482Y-80793285D01*
X48227412Y-80803250D01*
X48205468Y-80811102D01*
X48182859Y-80816766D01*
X48159804Y-80820185D01*
X48136525Y-80821329D01*
X47561525Y-80821329D01*
X47538246Y-80820185D01*
X47515191Y-80816766D01*
X47492582Y-80811102D01*
X47470638Y-80803250D01*
X47449568Y-80793285D01*
X47429577Y-80781303D01*
X47410857Y-80767419D01*
X47393587Y-80751767D01*
X47377935Y-80734497D01*
X47364051Y-80715777D01*
X47352069Y-80695786D01*
X47342104Y-80674716D01*
X47334252Y-80652772D01*
X47328588Y-80630163D01*
X47325169Y-80607108D01*
X47324025Y-80583829D01*
X47324025Y-80108829D01*
X47325169Y-80085550D01*
X47328588Y-80062495D01*
X47334252Y-80039886D01*
X47342104Y-80017942D01*
X47352069Y-79996872D01*
X47364051Y-79976881D01*
X47377935Y-79958161D01*
X47393587Y-79940891D01*
X47410857Y-79925239D01*
X47429577Y-79911355D01*
X47449568Y-79899373D01*
X47470638Y-79889408D01*
X47492582Y-79881556D01*
X47515191Y-79875892D01*
X47538246Y-79872473D01*
X47561525Y-79871329D01*
X48136525Y-79871329D01*
X48159804Y-79872473D01*
G37*
%TD.AperFunction*%
%TA.AperFunction,SMDPad,CuDef*%
G36*
X46409804Y-79872473D02*
G01*
X46432859Y-79875892D01*
X46455468Y-79881556D01*
X46477412Y-79889408D01*
X46498482Y-79899373D01*
X46518473Y-79911355D01*
X46537193Y-79925239D01*
X46554463Y-79940891D01*
X46570115Y-79958161D01*
X46583999Y-79976881D01*
X46595981Y-79996872D01*
X46605946Y-80017942D01*
X46613798Y-80039886D01*
X46619462Y-80062495D01*
X46622881Y-80085550D01*
X46624025Y-80108829D01*
X46624025Y-80583829D01*
X46622881Y-80607108D01*
X46619462Y-80630163D01*
X46613798Y-80652772D01*
X46605946Y-80674716D01*
X46595981Y-80695786D01*
X46583999Y-80715777D01*
X46570115Y-80734497D01*
X46554463Y-80751767D01*
X46537193Y-80767419D01*
X46518473Y-80781303D01*
X46498482Y-80793285D01*
X46477412Y-80803250D01*
X46455468Y-80811102D01*
X46432859Y-80816766D01*
X46409804Y-80820185D01*
X46386525Y-80821329D01*
X45811525Y-80821329D01*
X45788246Y-80820185D01*
X45765191Y-80816766D01*
X45742582Y-80811102D01*
X45720638Y-80803250D01*
X45699568Y-80793285D01*
X45679577Y-80781303D01*
X45660857Y-80767419D01*
X45643587Y-80751767D01*
X45627935Y-80734497D01*
X45614051Y-80715777D01*
X45602069Y-80695786D01*
X45592104Y-80674716D01*
X45584252Y-80652772D01*
X45578588Y-80630163D01*
X45575169Y-80607108D01*
X45574025Y-80583829D01*
X45574025Y-80108829D01*
X45575169Y-80085550D01*
X45578588Y-80062495D01*
X45584252Y-80039886D01*
X45592104Y-80017942D01*
X45602069Y-79996872D01*
X45614051Y-79976881D01*
X45627935Y-79958161D01*
X45643587Y-79940891D01*
X45660857Y-79925239D01*
X45679577Y-79911355D01*
X45699568Y-79899373D01*
X45720638Y-79889408D01*
X45742582Y-79881556D01*
X45765191Y-79875892D01*
X45788246Y-79872473D01*
X45811525Y-79871329D01*
X46386525Y-79871329D01*
X46409804Y-79872473D01*
G37*
%TD.AperFunction*%
%TA.AperFunction,SMDPad,CuDef*%
G36*
X43119804Y-82412473D02*
G01*
X43142859Y-82415892D01*
X43165468Y-82421556D01*
X43187412Y-82429408D01*
X43208482Y-82439373D01*
X43228473Y-82451355D01*
X43247193Y-82465239D01*
X43264463Y-82480891D01*
X43280115Y-82498161D01*
X43293999Y-82516881D01*
X43305981Y-82536872D01*
X43315946Y-82557942D01*
X43323798Y-82579886D01*
X43329462Y-82602495D01*
X43332881Y-82625550D01*
X43334025Y-82648829D01*
X43334025Y-83123829D01*
X43332881Y-83147108D01*
X43329462Y-83170163D01*
X43323798Y-83192772D01*
X43315946Y-83214716D01*
X43305981Y-83235786D01*
X43293999Y-83255777D01*
X43280115Y-83274497D01*
X43264463Y-83291767D01*
X43247193Y-83307419D01*
X43228473Y-83321303D01*
X43208482Y-83333285D01*
X43187412Y-83343250D01*
X43165468Y-83351102D01*
X43142859Y-83356766D01*
X43119804Y-83360185D01*
X43096525Y-83361329D01*
X42521525Y-83361329D01*
X42498246Y-83360185D01*
X42475191Y-83356766D01*
X42452582Y-83351102D01*
X42430638Y-83343250D01*
X42409568Y-83333285D01*
X42389577Y-83321303D01*
X42370857Y-83307419D01*
X42353587Y-83291767D01*
X42337935Y-83274497D01*
X42324051Y-83255777D01*
X42312069Y-83235786D01*
X42302104Y-83214716D01*
X42294252Y-83192772D01*
X42288588Y-83170163D01*
X42285169Y-83147108D01*
X42284025Y-83123829D01*
X42284025Y-82648829D01*
X42285169Y-82625550D01*
X42288588Y-82602495D01*
X42294252Y-82579886D01*
X42302104Y-82557942D01*
X42312069Y-82536872D01*
X42324051Y-82516881D01*
X42337935Y-82498161D01*
X42353587Y-82480891D01*
X42370857Y-82465239D01*
X42389577Y-82451355D01*
X42409568Y-82439373D01*
X42430638Y-82429408D01*
X42452582Y-82421556D01*
X42475191Y-82415892D01*
X42498246Y-82412473D01*
X42521525Y-82411329D01*
X43096525Y-82411329D01*
X43119804Y-82412473D01*
G37*
%TD.AperFunction*%
%TA.AperFunction,SMDPad,CuDef*%
G36*
X41369804Y-82412473D02*
G01*
X41392859Y-82415892D01*
X41415468Y-82421556D01*
X41437412Y-82429408D01*
X41458482Y-82439373D01*
X41478473Y-82451355D01*
X41497193Y-82465239D01*
X41514463Y-82480891D01*
X41530115Y-82498161D01*
X41543999Y-82516881D01*
X41555981Y-82536872D01*
X41565946Y-82557942D01*
X41573798Y-82579886D01*
X41579462Y-82602495D01*
X41582881Y-82625550D01*
X41584025Y-82648829D01*
X41584025Y-83123829D01*
X41582881Y-83147108D01*
X41579462Y-83170163D01*
X41573798Y-83192772D01*
X41565946Y-83214716D01*
X41555981Y-83235786D01*
X41543999Y-83255777D01*
X41530115Y-83274497D01*
X41514463Y-83291767D01*
X41497193Y-83307419D01*
X41478473Y-83321303D01*
X41458482Y-83333285D01*
X41437412Y-83343250D01*
X41415468Y-83351102D01*
X41392859Y-83356766D01*
X41369804Y-83360185D01*
X41346525Y-83361329D01*
X40771525Y-83361329D01*
X40748246Y-83360185D01*
X40725191Y-83356766D01*
X40702582Y-83351102D01*
X40680638Y-83343250D01*
X40659568Y-83333285D01*
X40639577Y-83321303D01*
X40620857Y-83307419D01*
X40603587Y-83291767D01*
X40587935Y-83274497D01*
X40574051Y-83255777D01*
X40562069Y-83235786D01*
X40552104Y-83214716D01*
X40544252Y-83192772D01*
X40538588Y-83170163D01*
X40535169Y-83147108D01*
X40534025Y-83123829D01*
X40534025Y-82648829D01*
X40535169Y-82625550D01*
X40538588Y-82602495D01*
X40544252Y-82579886D01*
X40552104Y-82557942D01*
X40562069Y-82536872D01*
X40574051Y-82516881D01*
X40587935Y-82498161D01*
X40603587Y-82480891D01*
X40620857Y-82465239D01*
X40639577Y-82451355D01*
X40659568Y-82439373D01*
X40680638Y-82429408D01*
X40702582Y-82421556D01*
X40725191Y-82415892D01*
X40748246Y-82412473D01*
X40771525Y-82411329D01*
X41346525Y-82411329D01*
X41369804Y-82412473D01*
G37*
%TD.AperFunction*%
%TA.AperFunction,SMDPad,CuDef*%
G36*
X81524804Y-87047473D02*
G01*
X81547859Y-87050892D01*
X81570468Y-87056556D01*
X81592412Y-87064408D01*
X81613482Y-87074373D01*
X81633473Y-87086355D01*
X81652193Y-87100239D01*
X81669463Y-87115891D01*
X81685115Y-87133161D01*
X81698999Y-87151881D01*
X81710981Y-87171872D01*
X81720946Y-87192942D01*
X81728798Y-87214886D01*
X81734462Y-87237495D01*
X81737881Y-87260550D01*
X81739025Y-87283829D01*
X81739025Y-87858829D01*
X81737881Y-87882108D01*
X81734462Y-87905163D01*
X81728798Y-87927772D01*
X81720946Y-87949716D01*
X81710981Y-87970786D01*
X81698999Y-87990777D01*
X81685115Y-88009497D01*
X81669463Y-88026767D01*
X81652193Y-88042419D01*
X81633473Y-88056303D01*
X81613482Y-88068285D01*
X81592412Y-88078250D01*
X81570468Y-88086102D01*
X81547859Y-88091766D01*
X81524804Y-88095185D01*
X81501525Y-88096329D01*
X81026525Y-88096329D01*
X81003246Y-88095185D01*
X80980191Y-88091766D01*
X80957582Y-88086102D01*
X80935638Y-88078250D01*
X80914568Y-88068285D01*
X80894577Y-88056303D01*
X80875857Y-88042419D01*
X80858587Y-88026767D01*
X80842935Y-88009497D01*
X80829051Y-87990777D01*
X80817069Y-87970786D01*
X80807104Y-87949716D01*
X80799252Y-87927772D01*
X80793588Y-87905163D01*
X80790169Y-87882108D01*
X80789025Y-87858829D01*
X80789025Y-87283829D01*
X80790169Y-87260550D01*
X80793588Y-87237495D01*
X80799252Y-87214886D01*
X80807104Y-87192942D01*
X80817069Y-87171872D01*
X80829051Y-87151881D01*
X80842935Y-87133161D01*
X80858587Y-87115891D01*
X80875857Y-87100239D01*
X80894577Y-87086355D01*
X80914568Y-87074373D01*
X80935638Y-87064408D01*
X80957582Y-87056556D01*
X80980191Y-87050892D01*
X81003246Y-87047473D01*
X81026525Y-87046329D01*
X81501525Y-87046329D01*
X81524804Y-87047473D01*
G37*
%TD.AperFunction*%
%TA.AperFunction,SMDPad,CuDef*%
G36*
X81524804Y-85297473D02*
G01*
X81547859Y-85300892D01*
X81570468Y-85306556D01*
X81592412Y-85314408D01*
X81613482Y-85324373D01*
X81633473Y-85336355D01*
X81652193Y-85350239D01*
X81669463Y-85365891D01*
X81685115Y-85383161D01*
X81698999Y-85401881D01*
X81710981Y-85421872D01*
X81720946Y-85442942D01*
X81728798Y-85464886D01*
X81734462Y-85487495D01*
X81737881Y-85510550D01*
X81739025Y-85533829D01*
X81739025Y-86108829D01*
X81737881Y-86132108D01*
X81734462Y-86155163D01*
X81728798Y-86177772D01*
X81720946Y-86199716D01*
X81710981Y-86220786D01*
X81698999Y-86240777D01*
X81685115Y-86259497D01*
X81669463Y-86276767D01*
X81652193Y-86292419D01*
X81633473Y-86306303D01*
X81613482Y-86318285D01*
X81592412Y-86328250D01*
X81570468Y-86336102D01*
X81547859Y-86341766D01*
X81524804Y-86345185D01*
X81501525Y-86346329D01*
X81026525Y-86346329D01*
X81003246Y-86345185D01*
X80980191Y-86341766D01*
X80957582Y-86336102D01*
X80935638Y-86328250D01*
X80914568Y-86318285D01*
X80894577Y-86306303D01*
X80875857Y-86292419D01*
X80858587Y-86276767D01*
X80842935Y-86259497D01*
X80829051Y-86240777D01*
X80817069Y-86220786D01*
X80807104Y-86199716D01*
X80799252Y-86177772D01*
X80793588Y-86155163D01*
X80790169Y-86132108D01*
X80789025Y-86108829D01*
X80789025Y-85533829D01*
X80790169Y-85510550D01*
X80793588Y-85487495D01*
X80799252Y-85464886D01*
X80807104Y-85442942D01*
X80817069Y-85421872D01*
X80829051Y-85401881D01*
X80842935Y-85383161D01*
X80858587Y-85365891D01*
X80875857Y-85350239D01*
X80894577Y-85336355D01*
X80914568Y-85324373D01*
X80935638Y-85314408D01*
X80957582Y-85306556D01*
X80980191Y-85300892D01*
X81003246Y-85297473D01*
X81026525Y-85296329D01*
X81501525Y-85296329D01*
X81524804Y-85297473D01*
G37*
%TD.AperFunction*%
%TA.AperFunction,SMDPad,CuDef*%
G36*
X53624804Y-54817473D02*
G01*
X53647859Y-54820892D01*
X53670468Y-54826556D01*
X53692412Y-54834408D01*
X53713482Y-54844373D01*
X53733473Y-54856355D01*
X53752193Y-54870239D01*
X53769463Y-54885891D01*
X53785115Y-54903161D01*
X53798999Y-54921881D01*
X53810981Y-54941872D01*
X53820946Y-54962942D01*
X53828798Y-54984886D01*
X53834462Y-55007495D01*
X53837881Y-55030550D01*
X53839025Y-55053829D01*
X53839025Y-55628829D01*
X53837881Y-55652108D01*
X53834462Y-55675163D01*
X53828798Y-55697772D01*
X53820946Y-55719716D01*
X53810981Y-55740786D01*
X53798999Y-55760777D01*
X53785115Y-55779497D01*
X53769463Y-55796767D01*
X53752193Y-55812419D01*
X53733473Y-55826303D01*
X53713482Y-55838285D01*
X53692412Y-55848250D01*
X53670468Y-55856102D01*
X53647859Y-55861766D01*
X53624804Y-55865185D01*
X53601525Y-55866329D01*
X53126525Y-55866329D01*
X53103246Y-55865185D01*
X53080191Y-55861766D01*
X53057582Y-55856102D01*
X53035638Y-55848250D01*
X53014568Y-55838285D01*
X52994577Y-55826303D01*
X52975857Y-55812419D01*
X52958587Y-55796767D01*
X52942935Y-55779497D01*
X52929051Y-55760777D01*
X52917069Y-55740786D01*
X52907104Y-55719716D01*
X52899252Y-55697772D01*
X52893588Y-55675163D01*
X52890169Y-55652108D01*
X52889025Y-55628829D01*
X52889025Y-55053829D01*
X52890169Y-55030550D01*
X52893588Y-55007495D01*
X52899252Y-54984886D01*
X52907104Y-54962942D01*
X52917069Y-54941872D01*
X52929051Y-54921881D01*
X52942935Y-54903161D01*
X52958587Y-54885891D01*
X52975857Y-54870239D01*
X52994577Y-54856355D01*
X53014568Y-54844373D01*
X53035638Y-54834408D01*
X53057582Y-54826556D01*
X53080191Y-54820892D01*
X53103246Y-54817473D01*
X53126525Y-54816329D01*
X53601525Y-54816329D01*
X53624804Y-54817473D01*
G37*
%TD.AperFunction*%
%TA.AperFunction,SMDPad,CuDef*%
G36*
X53624804Y-56567473D02*
G01*
X53647859Y-56570892D01*
X53670468Y-56576556D01*
X53692412Y-56584408D01*
X53713482Y-56594373D01*
X53733473Y-56606355D01*
X53752193Y-56620239D01*
X53769463Y-56635891D01*
X53785115Y-56653161D01*
X53798999Y-56671881D01*
X53810981Y-56691872D01*
X53820946Y-56712942D01*
X53828798Y-56734886D01*
X53834462Y-56757495D01*
X53837881Y-56780550D01*
X53839025Y-56803829D01*
X53839025Y-57378829D01*
X53837881Y-57402108D01*
X53834462Y-57425163D01*
X53828798Y-57447772D01*
X53820946Y-57469716D01*
X53810981Y-57490786D01*
X53798999Y-57510777D01*
X53785115Y-57529497D01*
X53769463Y-57546767D01*
X53752193Y-57562419D01*
X53733473Y-57576303D01*
X53713482Y-57588285D01*
X53692412Y-57598250D01*
X53670468Y-57606102D01*
X53647859Y-57611766D01*
X53624804Y-57615185D01*
X53601525Y-57616329D01*
X53126525Y-57616329D01*
X53103246Y-57615185D01*
X53080191Y-57611766D01*
X53057582Y-57606102D01*
X53035638Y-57598250D01*
X53014568Y-57588285D01*
X52994577Y-57576303D01*
X52975857Y-57562419D01*
X52958587Y-57546767D01*
X52942935Y-57529497D01*
X52929051Y-57510777D01*
X52917069Y-57490786D01*
X52907104Y-57469716D01*
X52899252Y-57447772D01*
X52893588Y-57425163D01*
X52890169Y-57402108D01*
X52889025Y-57378829D01*
X52889025Y-56803829D01*
X52890169Y-56780550D01*
X52893588Y-56757495D01*
X52899252Y-56734886D01*
X52907104Y-56712942D01*
X52917069Y-56691872D01*
X52929051Y-56671881D01*
X52942935Y-56653161D01*
X52958587Y-56635891D01*
X52975857Y-56620239D01*
X52994577Y-56606355D01*
X53014568Y-56594373D01*
X53035638Y-56584408D01*
X53057582Y-56576556D01*
X53080191Y-56570892D01*
X53103246Y-56567473D01*
X53126525Y-56566329D01*
X53601525Y-56566329D01*
X53624804Y-56567473D01*
G37*
%TD.AperFunction*%
%TA.AperFunction,SMDPad,CuDef*%
G36*
X81524804Y-80217473D02*
G01*
X81547859Y-80220892D01*
X81570468Y-80226556D01*
X81592412Y-80234408D01*
X81613482Y-80244373D01*
X81633473Y-80256355D01*
X81652193Y-80270239D01*
X81669463Y-80285891D01*
X81685115Y-80303161D01*
X81698999Y-80321881D01*
X81710981Y-80341872D01*
X81720946Y-80362942D01*
X81728798Y-80384886D01*
X81734462Y-80407495D01*
X81737881Y-80430550D01*
X81739025Y-80453829D01*
X81739025Y-81028829D01*
X81737881Y-81052108D01*
X81734462Y-81075163D01*
X81728798Y-81097772D01*
X81720946Y-81119716D01*
X81710981Y-81140786D01*
X81698999Y-81160777D01*
X81685115Y-81179497D01*
X81669463Y-81196767D01*
X81652193Y-81212419D01*
X81633473Y-81226303D01*
X81613482Y-81238285D01*
X81592412Y-81248250D01*
X81570468Y-81256102D01*
X81547859Y-81261766D01*
X81524804Y-81265185D01*
X81501525Y-81266329D01*
X81026525Y-81266329D01*
X81003246Y-81265185D01*
X80980191Y-81261766D01*
X80957582Y-81256102D01*
X80935638Y-81248250D01*
X80914568Y-81238285D01*
X80894577Y-81226303D01*
X80875857Y-81212419D01*
X80858587Y-81196767D01*
X80842935Y-81179497D01*
X80829051Y-81160777D01*
X80817069Y-81140786D01*
X80807104Y-81119716D01*
X80799252Y-81097772D01*
X80793588Y-81075163D01*
X80790169Y-81052108D01*
X80789025Y-81028829D01*
X80789025Y-80453829D01*
X80790169Y-80430550D01*
X80793588Y-80407495D01*
X80799252Y-80384886D01*
X80807104Y-80362942D01*
X80817069Y-80341872D01*
X80829051Y-80321881D01*
X80842935Y-80303161D01*
X80858587Y-80285891D01*
X80875857Y-80270239D01*
X80894577Y-80256355D01*
X80914568Y-80244373D01*
X80935638Y-80234408D01*
X80957582Y-80226556D01*
X80980191Y-80220892D01*
X81003246Y-80217473D01*
X81026525Y-80216329D01*
X81501525Y-80216329D01*
X81524804Y-80217473D01*
G37*
%TD.AperFunction*%
%TA.AperFunction,SMDPad,CuDef*%
G36*
X81524804Y-81967473D02*
G01*
X81547859Y-81970892D01*
X81570468Y-81976556D01*
X81592412Y-81984408D01*
X81613482Y-81994373D01*
X81633473Y-82006355D01*
X81652193Y-82020239D01*
X81669463Y-82035891D01*
X81685115Y-82053161D01*
X81698999Y-82071881D01*
X81710981Y-82091872D01*
X81720946Y-82112942D01*
X81728798Y-82134886D01*
X81734462Y-82157495D01*
X81737881Y-82180550D01*
X81739025Y-82203829D01*
X81739025Y-82778829D01*
X81737881Y-82802108D01*
X81734462Y-82825163D01*
X81728798Y-82847772D01*
X81720946Y-82869716D01*
X81710981Y-82890786D01*
X81698999Y-82910777D01*
X81685115Y-82929497D01*
X81669463Y-82946767D01*
X81652193Y-82962419D01*
X81633473Y-82976303D01*
X81613482Y-82988285D01*
X81592412Y-82998250D01*
X81570468Y-83006102D01*
X81547859Y-83011766D01*
X81524804Y-83015185D01*
X81501525Y-83016329D01*
X81026525Y-83016329D01*
X81003246Y-83015185D01*
X80980191Y-83011766D01*
X80957582Y-83006102D01*
X80935638Y-82998250D01*
X80914568Y-82988285D01*
X80894577Y-82976303D01*
X80875857Y-82962419D01*
X80858587Y-82946767D01*
X80842935Y-82929497D01*
X80829051Y-82910777D01*
X80817069Y-82890786D01*
X80807104Y-82869716D01*
X80799252Y-82847772D01*
X80793588Y-82825163D01*
X80790169Y-82802108D01*
X80789025Y-82778829D01*
X80789025Y-82203829D01*
X80790169Y-82180550D01*
X80793588Y-82157495D01*
X80799252Y-82134886D01*
X80807104Y-82112942D01*
X80817069Y-82091872D01*
X80829051Y-82071881D01*
X80842935Y-82053161D01*
X80858587Y-82035891D01*
X80875857Y-82020239D01*
X80894577Y-82006355D01*
X80914568Y-81994373D01*
X80935638Y-81984408D01*
X80957582Y-81976556D01*
X80980191Y-81970892D01*
X81003246Y-81967473D01*
X81026525Y-81966329D01*
X81501525Y-81966329D01*
X81524804Y-81967473D01*
G37*
%TD.AperFunction*%
%TA.AperFunction,SMDPad,CuDef*%
G36*
X68824804Y-88317473D02*
G01*
X68847859Y-88320892D01*
X68870468Y-88326556D01*
X68892412Y-88334408D01*
X68913482Y-88344373D01*
X68933473Y-88356355D01*
X68952193Y-88370239D01*
X68969463Y-88385891D01*
X68985115Y-88403161D01*
X68998999Y-88421881D01*
X69010981Y-88441872D01*
X69020946Y-88462942D01*
X69028798Y-88484886D01*
X69034462Y-88507495D01*
X69037881Y-88530550D01*
X69039025Y-88553829D01*
X69039025Y-89128829D01*
X69037881Y-89152108D01*
X69034462Y-89175163D01*
X69028798Y-89197772D01*
X69020946Y-89219716D01*
X69010981Y-89240786D01*
X68998999Y-89260777D01*
X68985115Y-89279497D01*
X68969463Y-89296767D01*
X68952193Y-89312419D01*
X68933473Y-89326303D01*
X68913482Y-89338285D01*
X68892412Y-89348250D01*
X68870468Y-89356102D01*
X68847859Y-89361766D01*
X68824804Y-89365185D01*
X68801525Y-89366329D01*
X68326525Y-89366329D01*
X68303246Y-89365185D01*
X68280191Y-89361766D01*
X68257582Y-89356102D01*
X68235638Y-89348250D01*
X68214568Y-89338285D01*
X68194577Y-89326303D01*
X68175857Y-89312419D01*
X68158587Y-89296767D01*
X68142935Y-89279497D01*
X68129051Y-89260777D01*
X68117069Y-89240786D01*
X68107104Y-89219716D01*
X68099252Y-89197772D01*
X68093588Y-89175163D01*
X68090169Y-89152108D01*
X68089025Y-89128829D01*
X68089025Y-88553829D01*
X68090169Y-88530550D01*
X68093588Y-88507495D01*
X68099252Y-88484886D01*
X68107104Y-88462942D01*
X68117069Y-88441872D01*
X68129051Y-88421881D01*
X68142935Y-88403161D01*
X68158587Y-88385891D01*
X68175857Y-88370239D01*
X68194577Y-88356355D01*
X68214568Y-88344373D01*
X68235638Y-88334408D01*
X68257582Y-88326556D01*
X68280191Y-88320892D01*
X68303246Y-88317473D01*
X68326525Y-88316329D01*
X68801525Y-88316329D01*
X68824804Y-88317473D01*
G37*
%TD.AperFunction*%
%TA.AperFunction,SMDPad,CuDef*%
G36*
X68824804Y-86567473D02*
G01*
X68847859Y-86570892D01*
X68870468Y-86576556D01*
X68892412Y-86584408D01*
X68913482Y-86594373D01*
X68933473Y-86606355D01*
X68952193Y-86620239D01*
X68969463Y-86635891D01*
X68985115Y-86653161D01*
X68998999Y-86671881D01*
X69010981Y-86691872D01*
X69020946Y-86712942D01*
X69028798Y-86734886D01*
X69034462Y-86757495D01*
X69037881Y-86780550D01*
X69039025Y-86803829D01*
X69039025Y-87378829D01*
X69037881Y-87402108D01*
X69034462Y-87425163D01*
X69028798Y-87447772D01*
X69020946Y-87469716D01*
X69010981Y-87490786D01*
X68998999Y-87510777D01*
X68985115Y-87529497D01*
X68969463Y-87546767D01*
X68952193Y-87562419D01*
X68933473Y-87576303D01*
X68913482Y-87588285D01*
X68892412Y-87598250D01*
X68870468Y-87606102D01*
X68847859Y-87611766D01*
X68824804Y-87615185D01*
X68801525Y-87616329D01*
X68326525Y-87616329D01*
X68303246Y-87615185D01*
X68280191Y-87611766D01*
X68257582Y-87606102D01*
X68235638Y-87598250D01*
X68214568Y-87588285D01*
X68194577Y-87576303D01*
X68175857Y-87562419D01*
X68158587Y-87546767D01*
X68142935Y-87529497D01*
X68129051Y-87510777D01*
X68117069Y-87490786D01*
X68107104Y-87469716D01*
X68099252Y-87447772D01*
X68093588Y-87425163D01*
X68090169Y-87402108D01*
X68089025Y-87378829D01*
X68089025Y-86803829D01*
X68090169Y-86780550D01*
X68093588Y-86757495D01*
X68099252Y-86734886D01*
X68107104Y-86712942D01*
X68117069Y-86691872D01*
X68129051Y-86671881D01*
X68142935Y-86653161D01*
X68158587Y-86635891D01*
X68175857Y-86620239D01*
X68194577Y-86606355D01*
X68214568Y-86594373D01*
X68235638Y-86584408D01*
X68257582Y-86576556D01*
X68280191Y-86570892D01*
X68303246Y-86567473D01*
X68326525Y-86566329D01*
X68801525Y-86566329D01*
X68824804Y-86567473D01*
G37*
%TD.AperFunction*%
%TA.AperFunction,SMDPad,CuDef*%
G36*
X68824804Y-78947473D02*
G01*
X68847859Y-78950892D01*
X68870468Y-78956556D01*
X68892412Y-78964408D01*
X68913482Y-78974373D01*
X68933473Y-78986355D01*
X68952193Y-79000239D01*
X68969463Y-79015891D01*
X68985115Y-79033161D01*
X68998999Y-79051881D01*
X69010981Y-79071872D01*
X69020946Y-79092942D01*
X69028798Y-79114886D01*
X69034462Y-79137495D01*
X69037881Y-79160550D01*
X69039025Y-79183829D01*
X69039025Y-79758829D01*
X69037881Y-79782108D01*
X69034462Y-79805163D01*
X69028798Y-79827772D01*
X69020946Y-79849716D01*
X69010981Y-79870786D01*
X68998999Y-79890777D01*
X68985115Y-79909497D01*
X68969463Y-79926767D01*
X68952193Y-79942419D01*
X68933473Y-79956303D01*
X68913482Y-79968285D01*
X68892412Y-79978250D01*
X68870468Y-79986102D01*
X68847859Y-79991766D01*
X68824804Y-79995185D01*
X68801525Y-79996329D01*
X68326525Y-79996329D01*
X68303246Y-79995185D01*
X68280191Y-79991766D01*
X68257582Y-79986102D01*
X68235638Y-79978250D01*
X68214568Y-79968285D01*
X68194577Y-79956303D01*
X68175857Y-79942419D01*
X68158587Y-79926767D01*
X68142935Y-79909497D01*
X68129051Y-79890777D01*
X68117069Y-79870786D01*
X68107104Y-79849716D01*
X68099252Y-79827772D01*
X68093588Y-79805163D01*
X68090169Y-79782108D01*
X68089025Y-79758829D01*
X68089025Y-79183829D01*
X68090169Y-79160550D01*
X68093588Y-79137495D01*
X68099252Y-79114886D01*
X68107104Y-79092942D01*
X68117069Y-79071872D01*
X68129051Y-79051881D01*
X68142935Y-79033161D01*
X68158587Y-79015891D01*
X68175857Y-79000239D01*
X68194577Y-78986355D01*
X68214568Y-78974373D01*
X68235638Y-78964408D01*
X68257582Y-78956556D01*
X68280191Y-78950892D01*
X68303246Y-78947473D01*
X68326525Y-78946329D01*
X68801525Y-78946329D01*
X68824804Y-78947473D01*
G37*
%TD.AperFunction*%
%TA.AperFunction,SMDPad,CuDef*%
G36*
X68824804Y-80697473D02*
G01*
X68847859Y-80700892D01*
X68870468Y-80706556D01*
X68892412Y-80714408D01*
X68913482Y-80724373D01*
X68933473Y-80736355D01*
X68952193Y-80750239D01*
X68969463Y-80765891D01*
X68985115Y-80783161D01*
X68998999Y-80801881D01*
X69010981Y-80821872D01*
X69020946Y-80842942D01*
X69028798Y-80864886D01*
X69034462Y-80887495D01*
X69037881Y-80910550D01*
X69039025Y-80933829D01*
X69039025Y-81508829D01*
X69037881Y-81532108D01*
X69034462Y-81555163D01*
X69028798Y-81577772D01*
X69020946Y-81599716D01*
X69010981Y-81620786D01*
X68998999Y-81640777D01*
X68985115Y-81659497D01*
X68969463Y-81676767D01*
X68952193Y-81692419D01*
X68933473Y-81706303D01*
X68913482Y-81718285D01*
X68892412Y-81728250D01*
X68870468Y-81736102D01*
X68847859Y-81741766D01*
X68824804Y-81745185D01*
X68801525Y-81746329D01*
X68326525Y-81746329D01*
X68303246Y-81745185D01*
X68280191Y-81741766D01*
X68257582Y-81736102D01*
X68235638Y-81728250D01*
X68214568Y-81718285D01*
X68194577Y-81706303D01*
X68175857Y-81692419D01*
X68158587Y-81676767D01*
X68142935Y-81659497D01*
X68129051Y-81640777D01*
X68117069Y-81620786D01*
X68107104Y-81599716D01*
X68099252Y-81577772D01*
X68093588Y-81555163D01*
X68090169Y-81532108D01*
X68089025Y-81508829D01*
X68089025Y-80933829D01*
X68090169Y-80910550D01*
X68093588Y-80887495D01*
X68099252Y-80864886D01*
X68107104Y-80842942D01*
X68117069Y-80821872D01*
X68129051Y-80801881D01*
X68142935Y-80783161D01*
X68158587Y-80765891D01*
X68175857Y-80750239D01*
X68194577Y-80736355D01*
X68214568Y-80724373D01*
X68235638Y-80714408D01*
X68257582Y-80706556D01*
X68280191Y-80700892D01*
X68303246Y-80697473D01*
X68326525Y-80696329D01*
X68801525Y-80696329D01*
X68824804Y-80697473D01*
G37*
%TD.AperFunction*%
D21*
X78116000Y-87966329D03*
D20*
X71816000Y-87966329D03*
X71816000Y-90266329D03*
X71816000Y-85666329D03*
X78046000Y-82646329D03*
X78046000Y-78046329D03*
X78046000Y-80346329D03*
D21*
X71746000Y-80346329D03*
D23*
X42594025Y-67646329D03*
X41194025Y-67646329D03*
X47674025Y-67646329D03*
X46274025Y-67646329D03*
D24*
X78724025Y-71416329D03*
X78724025Y-66416329D03*
D25*
X59714025Y-85426329D03*
X57174025Y-70821329D03*
X39394025Y-90506329D03*
X45744025Y-77806329D03*
X41934025Y-77806329D03*
X39394025Y-67646329D03*
X49554025Y-70186329D03*
X53364025Y-58756329D03*
X81304025Y-89236329D03*
X69874025Y-90506329D03*
X59714025Y-77806329D03*
X49523524Y-72739297D03*
X49554025Y-67646329D03*
X77365287Y-75266329D03*
X74954025Y-80346329D03*
X41934025Y-72726329D03*
X49554025Y-80346329D03*
D26*
X59714025Y-66416329D02*
X59674025Y-66376329D01*
X57809025Y-71456329D02*
X57174025Y-70821329D01*
X59714025Y-71456329D02*
X59714025Y-66416329D01*
X41324025Y-90266329D02*
X39634025Y-90266329D01*
X39634025Y-90266329D02*
X39394025Y-90506329D01*
D27*
X45704025Y-76366329D02*
X45704025Y-77766329D01*
X45704025Y-77766329D02*
X45744025Y-77806329D01*
D26*
X41894025Y-76291329D02*
X41894025Y-77766329D01*
X41894025Y-77766329D02*
X41934025Y-77806329D01*
X41194025Y-67646329D02*
X39394025Y-67646329D01*
X47999025Y-70186329D02*
X49554025Y-70186329D01*
X53364025Y-57091329D02*
X53364025Y-58756329D01*
X81264025Y-89196329D02*
X81304025Y-89236329D01*
X81264025Y-87571329D02*
X81264025Y-89196329D01*
X71816000Y-90266329D02*
X70114025Y-90266329D01*
X70114025Y-90266329D02*
X69874025Y-90506329D01*
X59714025Y-71456329D02*
X57809025Y-71456329D01*
X59714025Y-85426329D02*
X59714025Y-77806329D01*
X59714025Y-71456329D02*
X59714025Y-77806329D01*
X49514025Y-74391329D02*
X49514025Y-72748796D01*
X49514025Y-72748796D02*
X49523524Y-72739297D01*
X77631525Y-71416329D02*
X74319025Y-68103829D01*
X78724025Y-71416329D02*
X77631525Y-71416329D01*
X74319025Y-68103829D02*
X70509025Y-68103829D01*
X68956525Y-68103829D02*
X67969025Y-69091329D01*
X70509025Y-68103829D02*
X68956525Y-68103829D01*
X74874025Y-62566329D02*
X78724025Y-66416329D01*
X73129025Y-62566329D02*
X74874025Y-62566329D01*
D28*
X49319025Y-90526329D02*
X43839025Y-96006329D01*
X43839025Y-96006329D02*
X43839025Y-96856329D01*
X59714025Y-90526329D02*
X49319025Y-90526329D01*
X49319025Y-84791329D02*
X49319025Y-90526329D01*
X47889025Y-83361329D02*
X49319025Y-84791329D01*
X47889025Y-82886329D02*
X47889025Y-83361329D01*
X68564025Y-87091329D02*
X68564025Y-81221329D01*
X68564025Y-81746329D02*
X68564025Y-81221329D01*
X69464025Y-82646329D02*
X68564025Y-81746329D01*
X78046000Y-82646329D02*
X69464025Y-82646329D01*
X68089025Y-81221329D02*
X68564025Y-81221329D01*
X66149025Y-81221329D02*
X68089025Y-81221329D01*
X62214025Y-77286329D02*
X66149025Y-81221329D01*
X62214025Y-76536329D02*
X62214025Y-77286329D01*
X81264025Y-82491329D02*
X81264025Y-85821329D01*
X81109025Y-85666329D02*
X81264025Y-85821329D01*
X71816000Y-85666329D02*
X81109025Y-85666329D01*
X68564025Y-88316329D02*
X68564025Y-88841329D01*
X68914025Y-87966329D02*
X68564025Y-88316329D01*
X78116000Y-87966329D02*
X68914025Y-87966329D01*
X41324025Y-84371329D02*
X42809025Y-82886329D01*
X41324025Y-85666329D02*
X41324025Y-84371329D01*
X42769025Y-80346329D02*
X46099025Y-80346329D01*
X46879025Y-76141329D02*
X46654025Y-76366329D01*
X49514025Y-76141329D02*
X46879025Y-76141329D01*
X47229025Y-78741329D02*
X46099025Y-79871329D01*
X47229025Y-77721329D02*
X47229025Y-78741329D01*
X46654025Y-76366329D02*
X46654025Y-77146329D01*
X46099025Y-79871329D02*
X46099025Y-80346329D01*
X46654025Y-77146329D02*
X47229025Y-77721329D01*
D26*
X44691525Y-62566329D02*
X48066525Y-62566329D01*
D28*
X46654025Y-73386329D02*
X46654025Y-74166329D01*
X41019025Y-70186329D02*
X44144024Y-73311328D01*
X46579024Y-73311328D02*
X46654025Y-73386329D01*
X44144024Y-73311328D02*
X46579024Y-73311328D01*
D26*
X70509025Y-71078829D02*
X74319025Y-71078829D01*
X49554025Y-67646329D02*
X47674025Y-67646329D01*
X78046000Y-75947042D02*
X77365287Y-75266329D01*
X78046000Y-78046329D02*
X78046000Y-75947042D01*
X74319025Y-72855079D02*
X74319025Y-71078829D01*
X77365287Y-75266329D02*
X76730275Y-75266329D01*
X76730275Y-75266329D02*
X74319025Y-72855079D01*
X77589025Y-99396329D02*
X82604027Y-94381327D01*
X75589025Y-99396329D02*
X77589025Y-99396329D01*
X82604027Y-79656541D02*
X78213815Y-75266329D01*
X78213815Y-75266329D02*
X77365287Y-75266329D01*
X82604027Y-94381327D02*
X82604027Y-79656541D01*
X74954025Y-80346329D02*
X71746000Y-80346329D01*
X80869025Y-80346329D02*
X81264025Y-80741329D01*
X74954025Y-80346329D02*
X80869025Y-80346329D01*
X44679025Y-74241329D02*
X44754025Y-74166329D01*
X41894025Y-74241329D02*
X44679025Y-74241329D01*
X59914025Y-34856329D02*
X62214025Y-34856329D01*
X59674025Y-35096329D02*
X59914025Y-34856329D01*
X59434025Y-34856329D02*
X59674025Y-35096329D01*
X59674025Y-44206329D02*
X59674025Y-46056329D01*
X59674025Y-35096329D02*
X59674025Y-44206329D01*
X57134025Y-34856329D02*
X59434025Y-34856329D01*
X41894025Y-72766329D02*
X41934025Y-72726329D01*
X41894025Y-74241329D02*
X41894025Y-72766329D01*
X47849025Y-80346329D02*
X49554025Y-80346329D01*
X58364025Y-62566329D02*
X59674025Y-63876329D01*
X51041525Y-62566329D02*
X58364025Y-62566329D01*
X57674025Y-63876329D02*
X54634025Y-66916329D01*
X59674025Y-63876329D02*
X57674025Y-63876329D01*
X54634025Y-71496329D02*
X57134025Y-73996329D01*
X54634025Y-66916329D02*
X54634025Y-71496329D01*
X60984025Y-62566329D02*
X59674025Y-63876329D01*
X69079025Y-62566329D02*
X60984025Y-62566329D01*
D28*
X45949025Y-69486329D02*
X45949025Y-70186329D01*
X45379025Y-68916329D02*
X45949025Y-69486329D01*
X43564025Y-68916329D02*
X45379025Y-68916329D01*
X42769025Y-69711329D02*
X43564025Y-68916329D01*
X42769025Y-70186329D02*
X42769025Y-69711329D01*
X42594025Y-67646329D02*
X43204025Y-67646329D01*
X43204025Y-67646329D02*
X44474025Y-68916329D01*
X46274025Y-67646329D02*
X45744025Y-67646329D01*
X45744025Y-67646329D02*
X44474025Y-68916329D01*
X41716525Y-63441329D02*
X44474025Y-66198829D01*
X41716525Y-62566329D02*
X41716525Y-63441329D01*
X44474025Y-66198829D02*
X44474025Y-68916329D01*
X57134025Y-76536329D02*
X54634025Y-76536329D01*
X54634025Y-76536329D02*
X52094025Y-73996329D01*
X50454583Y-72172308D02*
X49738604Y-71456329D01*
X50339035Y-73175858D02*
X50454583Y-73060310D01*
X52094025Y-73996329D02*
X50339035Y-73996329D01*
X50454583Y-73060310D02*
X50454583Y-72172308D01*
X50339035Y-73996329D02*
X50339035Y-73175858D01*
X49738604Y-71456329D02*
X44474025Y-71456329D01*
X44474025Y-71456329D02*
X44474025Y-68916329D01*
X68089025Y-79471329D02*
X68564025Y-79471329D01*
X67969025Y-79351329D02*
X68089025Y-79471329D01*
X67969025Y-70091329D02*
X67969025Y-79351329D01*
X41059025Y-80386329D02*
X41019025Y-80346329D01*
X41059025Y-82886329D02*
X41059025Y-80386329D01*
X44754025Y-76571329D02*
X41019025Y-80306329D01*
X41019025Y-80306329D02*
X41019025Y-80346329D01*
X44754025Y-76366329D02*
X44754025Y-76571329D01*
X41854025Y-81616329D02*
X41059025Y-82411329D01*
X57134025Y-79826329D02*
X55344025Y-81616329D01*
X41059025Y-82411329D02*
X41059025Y-82886329D01*
X57134025Y-79076329D02*
X57134025Y-79826329D01*
X55344025Y-81616329D02*
X41854025Y-81616329D01*
X53364025Y-45926329D02*
X53364025Y-46451329D01*
X53364025Y-34076329D02*
X53364025Y-45926329D01*
X55584025Y-31856329D02*
X53364025Y-34076329D01*
X57134025Y-31856329D02*
X55584025Y-31856329D01*
X57569025Y-46451329D02*
X59674025Y-48556329D01*
X53364025Y-46451329D02*
X57569025Y-46451329D01*
X57569025Y-55341329D02*
X59674025Y-57446329D01*
X53364025Y-55341329D02*
X57569025Y-55341329D01*
X60674025Y-57446329D02*
X59674025Y-57446329D01*
X63839026Y-31931330D02*
X63839026Y-54281328D01*
X63839026Y-54281328D02*
X60674025Y-57446329D01*
X63764025Y-31856329D02*
X63839026Y-31931330D01*
X62214025Y-31856329D02*
X63764025Y-31856329D01*
X46139025Y-87731329D02*
X46374025Y-87966329D01*
X46374025Y-87966329D02*
X47624025Y-87966329D01*
X46139025Y-82886329D02*
X46139025Y-87731329D01*
X41324025Y-87966329D02*
X47624025Y-87966329D01*
X55904025Y-87966329D02*
X50024015Y-82086319D01*
X62214025Y-81616329D02*
X61464025Y-81616329D01*
X60984025Y-87966329D02*
X55904025Y-87966329D01*
X46464035Y-82086319D02*
X46139025Y-82411329D01*
X60984025Y-82096329D02*
X60984025Y-87966329D01*
X50024015Y-82086319D02*
X46464035Y-82086319D01*
X61464025Y-81616329D02*
X60984025Y-82096329D01*
X46139025Y-82411329D02*
X46139025Y-82886329D01*
X40074025Y-87966329D02*
X35584025Y-83476329D01*
X41324025Y-87966329D02*
X40074025Y-87966329D01*
X52889025Y-48201329D02*
X53364025Y-48201329D01*
X35584025Y-65506329D02*
X52889025Y-48201329D01*
X35584025Y-83476329D02*
X35584025Y-65506329D01*
M02*
