0
SECTION
2
HEADER
9
$INSUNITS
70
4
9
$ACADVER
1
AC1014
9
$HANDSEED
5
FFFF
0
ENDSEC
0
SECTION
2
TABLES
0
TABLE
2
VPORT
5
8
100
AcDbSymbolTable
0
ENDTAB
0
TABLE
2
LTYPE
5
5
100
AcDbSymbolTable
0
LTYPE
5
14
100
AcDbSymbolTableRecord
100
AcDbLinetypeTableRecord
2
BYBLOCK
70
0
0
LTYPE
5
15
100
AcDbSymbolTableRecord
100
AcDbLinetypeTableRecord
2
BYLAYER
70
0
0
ENDTAB
0
TABLE
2
LAYER
5
2
100
AcDbSymbolTable
70
2
0
LAYER
5
50
100
AcDbSymbolTableRecord
100
AcDbLayerTableRecord
2
0
70
0
6
CONTINUOUS
0
ENDTAB
0
TABLE
2
STYLE
5
3
100
AcDbSymbolTable
70
1
0
STYLE
5
11
100
AcDbSymbolTableRecord
100
AcDbTextStyleTableRecord
2
STANDARD
70
0
0
ENDTAB
0
TABLE
2
VIEW
5
6
100
AcDbSymbolTable
70
0
0
ENDTAB
0
TABLE
2
UCS
5
7
100
AcDbSymbolTable
70
0
0
ENDTAB
0
TABLE
2
APPID
5
9
100
AcDbSymbolTable
70
2
0
APPID
5
12
100
AcDbSymbolTableRecord
100
AcDbRegAppTableRecord
2
ACAD
70
0
0
ENDTAB
0
TABLE
2
DIMSTYLE
5
A
100
AcDbSymbolTable
70
1
0
ENDTAB
0
TABLE
2
BLOCK_RECORD
5
1
100
AcDbSymbolTable
70
1
0
BLOCK_RECORD
5
1F
100
AcDbSymbolTableRecord
100
AcDbBlockTableRecord
2
*MODEL_SPACE
0
BLOCK_RECORD
5
1B
100
AcDbSymbolTableRecord
100
AcDbBlockTableRecord
2
*PAPER_SPACE
0
ENDTAB
0
ENDSEC
0
SECTION
2
BLOCKS
0
BLOCK
5
20
100
AcDbEntity
100
AcDbBlockBegin
2
*MODEL_SPACE
0
ENDBLK
5
21
100
AcDbEntity
100
AcDbBlockEnd
0
BLOCK
5
1C
100
AcDbEntity
100
AcDbBlockBegin
2
*PAPER_SPACE
0
ENDBLK
5
1D
100
AcDbEntity
100
AcDbBlockEnd
0
ENDSEC
0
SECTION
2
ENTITIES
0
LINE
5
100
100
AcDbEntity
8
0
100
AcDbLine
10
44.9367945704156
20
23.566644400965203
30
0
11
-15.840542448093844
21
23.566897498209514
31
0
0
ARC
5
101
100
AcDbEntity
8
0
100
AcDbCircle
10
337.51969789116663
20
-29.649543310030211
30
0
40
357.34499999988367
210
0
220
0
230
1
100
AcDbArc
50
171.4355547432086
51
179.34306385728544
0
LINE
5
102
100
AcDbEntity
8
0
100
AcDbLine
10
-19.801813677908893
20
-25.552422991144738
30
0
11
-13.82619852899583
21
-25.552447875613336
31
0
0
ARC
5
103
100
AcDbEntity
8
0
100
AcDbCircle
10
-13.826211699643736
20
-28.715172550944807
30
0
40
3.1627246753589109
210
0
220
0
230
1
100
AcDbArc
50
-90.000238598869728
51
89.999761401128495
0
LINE
5
104
100
AcDbEntity
8
0
100
AcDbLine
10
-13.826224870291544
20
-31.877897226276293
30
0
11
-19.818354343617788
21
-31.877872273036498
31
0
0
ARC
5
105
100
AcDbEntity
8
0
100
AcDbCircle
10
337.51969789116663
20
-29.649543310030211
30
0
40
357.34499999988373
210
0
220
0
230
1
100
AcDbArc
50
180.35728685834849
51
184.00603630942356
0
LINE
5
106
100
AcDbEntity
8
0
100
AcDbLine
10
-18.952199511060268
20
-54.614226111407199
30
0
11
48.047800488359165
21
-54.614505121910341
31
0
0
ARC
5
107
100
AcDbEntity
8
0
100
AcDbCircle
10
-308.42388897885547
20
-29.646853383982652
30
0
40
357.3449999998835
210
0
220
0
230
1
100
AcDbArc
50
355.99348649283695
51
359.64223594391279
0
LINE
5
108
100
AcDbEntity
8
0
100
AcDbLine
10
48.91414468451417
20
-31.878158498247601
30
0
11
42.92201521118826
21
-31.87813354500781
31
0
0
ARC
5
109
100
AcDbEntity
8
0
100
AcDbCircle
10
42.922028381836121
20
-28.715408869676232
30
0
40
3.1627246753589109
210
0
220
-0
230
1
100
AcDbArc
50
89.999761401129305
51
269.99976140112926
0
LINE
5
110
100
AcDbEntity
8
0
100
AcDbLine
10
42.922041552483982
20
-25.552684194344746
30
0
11
48.897656701397594
21
-25.552709078813358
31
0
0
ARC
5
111
100
AcDbEntity
8
0
100
AcDbCircle
10
-308.42388897885547
20
-29.646853383982652
30
0
40
357.3449999998835
210
0
220
-0
230
1
100
AcDbArc
50
0.65645894497474611
51
8.5639680590520388
0
CIRCLE
5
112
100
AcDbEntity
8
0
100
AcDbCircle
10
-13.792987550261326
20
-3.7151726890844561
30
0
40
1.6000000000000003
210
0
220
0
230
1
0
CIRCLE
5
113
100
AcDbEntity
8
0
100
AcDbCircle
10
43.460845875807536
20
-43.715411113623439
30
0
40
1.6000000000000003
210
0
220
0
230
1
0
CIRCLE
5
114
100
AcDbEntity
8
0
100
AcDbCircle
10
-14.365154123691095
20
-43.715170306737534
30
0
40
1.6000000000000003
210
0
220
0
230
1
0
CIRCLE
5
115
100
AcDbEntity
8
0
100
AcDbCircle
10
42.889012449247218
20
-3.715408731970129
30
0
40
1.6000000000000003
210
0
220
0
230
1
0
LINE
5
116
100
AcDbEntity
8
0
100
AcDbLine
10
44.9367945704156
20
23.566644400965203
30
0
11
-15.840542448093853
21
23.566897498209521
31
0
0
ARC
5
117
100
AcDbEntity
8
0
100
AcDbCircle
10
337.51969789116663
20
-29.649543310030211
30
0
40
357.34499999988367
210
0
220
0
230
1
100
AcDbArc
50
171.4355547432086
51
179.34306385728544
0
LINE
5
118
100
AcDbEntity
8
0
100
AcDbLine
10
-19.801813677908839
20
-25.552422991144816
30
0
11
-13.826198528995828
21
-25.552447875613332
31
0
0
ARC
5
119
100
AcDbEntity
8
0
100
AcDbCircle
10
-13.826211699643736
20
-28.715172550944807
30
0
40
3.1627246753589109
210
0
220
0
230
1
100
AcDbArc
50
-90.000238598869728
51
89.999761401128453
0
LINE
5
120
100
AcDbEntity
8
0
100
AcDbLine
10
-13.826224870291542
20
-31.877897226276293
30
0
11
-19.818354343617788
21
-31.877872273036495
31
0
0
ARC
5
121
100
AcDbEntity
8
0
100
AcDbCircle
10
337.51969789116663
20
-29.649543310030211
30
0
40
357.34499999988373
210
0
220
0
230
1
100
AcDbArc
50
180.35728685834849
51
184.00603630942356
0
LINE
5
122
100
AcDbEntity
8
0
100
AcDbLine
10
-18.952199511060286
20
-54.614226111407277
30
0
11
48.047800488359165
21
-54.614505121910327
31
0
0
ARC
5
123
100
AcDbEntity
8
0
100
AcDbCircle
10
-308.42388897885547
20
-29.646853383982652
30
0
40
357.3449999998835
210
-0
220
0
230
1
100
AcDbArc
50
355.99348649283695
51
359.64223594391279
0
LINE
5
124
100
AcDbEntity
8
0
100
AcDbLine
10
48.914144684514227
20
-31.878158498247736
30
0
11
42.92201521118826
21
-31.87813354500781
31
0
0
ARC
5
125
100
AcDbEntity
8
0
100
AcDbCircle
10
42.922028381836128
20
-28.715408869676232
30
0
40
3.1627246753589109
210
0
220
-0
230
1
100
AcDbArc
50
89.999761401129433
51
269.99976140112915
0
LINE
5
126
100
AcDbEntity
8
0
100
AcDbLine
10
42.922041552483982
20
-25.552684194344746
30
0
11
48.897656701397594
21
-25.552709078813358
31
0
0
ARC
5
127
100
AcDbEntity
8
0
100
AcDbCircle
10
-308.42388897885547
20
-29.646853383982652
30
0
40
357.3449999998835
210
0
220
-0
230
1
100
AcDbArc
50
0.65645894497474611
51
8.5639680590520388
0
CIRCLE
5
128
100
AcDbEntity
8
0
100
AcDbCircle
10
-13.792987550261326
20
-3.7151726890844561
30
0
40
1.6000000000000003
210
0
220
-0
230
1
0
CIRCLE
5
129
100
AcDbEntity
8
0
100
AcDbCircle
10
43.460845875807536
20
-43.715411113623439
30
0
40
1.6000000000000003
210
0
220
-0
230
1
0
CIRCLE
5
130
100
AcDbEntity
8
0
100
AcDbCircle
10
-14.365154123691095
20
-43.715170306737534
30
0
40
1.6000000000000003
210
0
220
-0
230
1
0
CIRCLE
5
131
100
AcDbEntity
8
0
100
AcDbCircle
10
42.889012449247218
20
-3.715408731970129
30
0
40
1.6000000000000003
210
0
220
-0
230
1
0
ENDSEC
0
SECTION
2
OBJECTS
0
DICTIONARY
5
C
100
AcDbDictionary
3
ACAD_GROUP
350
D
3
ACAD_MLINESTYLE
350
17
0
DICTIONARY
5
D
100
AcDbDictionary
0
DICTIONARY
5
1A
330
C
100
AcDbDictionary
0
DICTIONARY
5
17
100
AcDbDictionary
0
ENDSEC
0
EOF
